  0
SECTION
  2
HEADER
  9
$ACADVER
  1
AC1014
  9
$HANDSEED
  5
FFFF
  9
$MEASUREMENT
 70
     1
  0
ENDSEC
  0
SECTION
  2
TABLES
  0
TABLE
  2
VPORT
  5
8
330
0
100
AcDbSymbolTable
 70
     4
  0
VPORT
  5
2E
330
8
100
AcDbSymbolTableRecord
100
AcDbViewportTableRecord
  2
*ACTIVE
 70
     0
 10
0.0
 20
0.0
 11
1.0
 21
1.0
 12
210.0
 22
148.5
 13
0.0
 23
0.0
 14
10.0
 24
10.0
 15
10.0
 25
10.0
 16
0.0
 26
0.0
 36
1.0
 17
0.0
 27
0.0
 37
0.0
 40
341.0
 41
1.24
 42
50.0
 43
0.0
 44
0.0
 50
0.0
 51
0.0
 71
     0
 72
   100
 73
     1
 74
     3
 75
     0
 76
     0
 77
     0
 78
     0
  0
ENDTAB
  0
TABLE
  2
LTYPE
  5
5
330
0
100
AcDbSymbolTable
 70
     1
  0
LTYPE
  5
14
330
5
100
AcDbSymbolTableRecord
100
AcDbLinetypeTableRecord
  2
BYBLOCK
 70
     0
  3

 72
    65
 73
     0
 40
0.0
  0
LTYPE
  5
15
330
5
100
AcDbSymbolTableRecord
100
AcDbLinetypeTableRecord
  2
BYLAYER
 70
     0
  3

 72
    65
 73
     0
 40
0.0
  0
LTYPE
  5
16
330
5
100
AcDbSymbolTableRecord
100
AcDbLinetypeTableRecord
  2
CONTINUOUS
 70
     0
  3
Solid line
 72
    65
 73
     0
 40
0.0
  0
ENDTAB
  0
TABLE
  2
LAYER
  5
2
100
AcDbSymbolTable
 70
2
  0
LAYER
  5
50
100
AcDbSymbolTableRecord
100
AcDbLayerTableRecord
  2
0
 70
0
  6
CONTINUOUS
  0
LAYER
  5
51
100
AcDbSymbolTableRecord
100
AcDbLayerTableRecord
  2
Decoupe_Ver._4
 70
0
  6
CONTINUOUS
  0
ENDTAB
  0
TABLE
  2
STYLE
  5
3
330
0
100
AcDbSymbolTable
 70
     1
  0
STYLE
  5
11
330
3
100
AcDbSymbolTableRecord
100
AcDbTextStyleTableRecord
  2
STANDARD
 70
     0
 40
0.0
 41
1.0
 50
0.0
 71
     0
 42
2.5
  3
txt
  4

  0
ENDTAB
  0
TABLE
  2
VIEW
  5
6
330
0
100
AcDbSymbolTable
 70
     0
  0
ENDTAB
  0
TABLE
  2
UCS
  5
7
330
0
100
AcDbSymbolTable
 70
     0
  0
ENDTAB
  0
TABLE
  2
APPID
  5
9
330
0
100
AcDbSymbolTable
 70
     2
  0
APPID
  5
12
330
9
100
AcDbSymbolTableRecord
100
AcDbRegAppTableRecord
  2
ACAD
 70
     0
  0
ENDTAB
  0
TABLE
  2
DIMSTYLE
  5
A
330
0
100
AcDbSymbolTable
 70
     1
  0
DIMSTYLE
105
27
330
A
100
AcDbSymbolTableRecord
100
AcDbDimStyleTableRecord
  2
ISO-25
 70
     0
  3

  4

  5

  6

  7

 40
1.0
 41
2.5
 42
0.625
 43
3.75
 44
1.25
 45
0.0
 46
0.0
 47
0.0
 48
0.0
140
2.5
141
2.5
142
0.0
143
0.03937007874016
144
1.0
145
0.0
146
1.0
147
0.625
 71
     0
 72
     0
 73
     0
 74
     0
 75
     0
 76
     0
 77
     1
 78
     8
170
     0
171
     3
172
     1
173
     0
174
     0
175
     0
176
     0
177
     0
178
     0
270
     2
271
     2
272
     2
273
     2
274
     3
340
11
275
     0
280
     0
281
     0
282
     0
283
     0
284
     8
285
     0
286
     0
287
     3
288
     0
  0
ENDTAB
  0
TABLE
  2
BLOCK_RECORD
  5
1
330
0
100
AcDbSymbolTable
 70
     1
  0
BLOCK_RECORD
  5
1F
330
1
100
AcDbSymbolTableRecord
100
AcDbBlockTableRecord
  2
*MODEL_SPACE
  0
BLOCK_RECORD
  5
1B
330
1
100
AcDbSymbolTableRecord
100
AcDbBlockTableRecord
  2
*PAPER_SPACE
  0
ENDTAB
  0
ENDSEC
  0
SECTION
  2
BLOCKS
  0
BLOCK
  5
20
330
1F
100
AcDbEntity
  8
0
100
AcDbBlockBegin
  2
*MODEL_SPACE
 70
     0
 10
0.0
 20
0.0
 30
0.0
  3
*MODEL_SPACE
  1

  0
ENDBLK
  5
21
330
1F
100
AcDbEntity
  8
0
100
AcDbBlockEnd
  0
BLOCK
  5
1C
330
1B
100
AcDbEntity
 67
     1
  8
0
100
AcDbBlockBegin
  2
*PAPER_SPACE
  1

  0
ENDBLK
  5
1D
330
1B
100
AcDbEntity
 67
     1
  8
0
100
AcDbBlockEnd
  0
ENDSEC
  0
SECTION
  2
ENTITIES
  0
SPLINE
  5
100
100
AcDbEntity
  8
Decoupe_Ver._4
 62
1
100
AcDbSpline
 70
8
 71
3
 72
8
 73
4
 74
0
 40
0
 40
0
 40
0
 40
0
 40
1
 40
1
 40
1
 40
1
 10
140.199997
 20
178.299987
 30
0.0
 10
138.946164
 20
178.299987
 30
0.0
 10
137.815791
 20
177.544696
 30
0.0
 10
137.335970
 20
176.386305
 30
0.0
  0
SPLINE
  5
101
100
AcDbEntity
  8
Decoupe_Ver._4
 62
1
100
AcDbSpline
 70
8
 71
3
 72
8
 73
4
 74
0
 40
0
 40
0
 40
0
 40
0
 40
1
 40
1
 40
1
 40
1
 10
137.335970
 20
176.386305
 30
0.0
 10
136.856149
 20
175.227915
 30
0.0
 10
137.121372
 20
173.894549
 30
0.0
 10
138.007966
 20
173.007955
 30
0.0
  0
SPLINE
  5
102
100
AcDbEntity
  8
Decoupe_Ver._4
 62
1
100
AcDbSpline
 70
8
 71
3
 72
8
 73
4
 74
0
 40
0
 40
0
 40
0
 40
0
 40
1
 40
1
 40
1
 40
1
 10
138.007966
 20
173.007955
 30
0.0
 10
138.894560
 20
172.121361
 30
0.0
 10
140.227925
 20
171.856138
 30
0.0
 10
141.386316
 20
172.335959
 30
0.0
  0
SPLINE
  5
103
100
AcDbEntity
  8
Decoupe_Ver._4
 62
1
100
AcDbSpline
 70
8
 71
3
 72
8
 73
4
 74
0
 40
0
 40
0
 40
0
 40
0
 40
1
 40
1
 40
1
 40
1
 10
141.386316
 20
172.335959
 30
0.0
 10
142.544707
 20
172.815781
 30
0.0
 10
143.299998
 20
173.946153
 30
0.0
 10
143.299998
 20
175.199986
 30
0.0
  0
SPLINE
  5
104
100
AcDbEntity
  8
Decoupe_Ver._4
 62
1
100
AcDbSpline
 70
8
 71
3
 72
8
 73
4
 74
0
 40
0
 40
0
 40
0
 40
0
 40
1
 40
1
 40
1
 40
1
 10
143.299998
 20
175.199986
 30
0.0
 10
143.299998
 20
176.022158
 30
0.0
 10
142.973391
 20
176.810655
 30
0.0
 10
142.392029
 20
177.392018
 30
0.0
  0
SPLINE
  5
105
100
AcDbEntity
  8
Decoupe_Ver._4
 62
1
100
AcDbSpline
 70
8
 71
3
 72
8
 73
4
 74
0
 40
0
 40
0
 40
0
 40
0
 40
1
 40
1
 40
1
 40
1
 10
142.392029
 20
177.392018
 30
0.0
 10
141.810666
 20
177.973381
 30
0.0
 10
141.022168
 20
178.299987
 30
0.0
 10
140.199997
 20
178.299987
 30
0.0
  0
LINE
  5
106
100
AcDbEntity
  8
Decoupe_Ver._4
 62
1
100
AcDbLine
 10
140.199997
 20
178.299987
 30
0.0
 11
140.199997
 21
178.299987
 31
0.0
  0
SPLINE
  5
107
100
AcDbEntity
  8
Decoupe_Ver._4
 62
1
100
AcDbSpline
 70
8
 71
3
 72
8
 73
4
 74
0
 40
0
 40
0
 40
0
 40
0
 40
1
 40
1
 40
1
 40
1
 10
200.199998
 20
178.299987
 30
0.0
 10
198.946165
 20
178.299987
 30
0.0
 10
197.815792
 20
177.544696
 30
0.0
 10
197.335971
 20
176.386305
 30
0.0
  0
SPLINE
  5
108
100
AcDbEntity
  8
Decoupe_Ver._4
 62
1
100
AcDbSpline
 70
8
 71
3
 72
8
 73
4
 74
0
 40
0
 40
0
 40
0
 40
0
 40
1
 40
1
 40
1
 40
1
 10
197.335971
 20
176.386305
 30
0.0
 10
196.856150
 20
175.227915
 30
0.0
 10
197.121373
 20
173.894549
 30
0.0
 10
198.007967
 20
173.007955
 30
0.0
  0
SPLINE
  5
109
100
AcDbEntity
  8
Decoupe_Ver._4
 62
1
100
AcDbSpline
 70
8
 71
3
 72
8
 73
4
 74
0
 40
0
 40
0
 40
0
 40
0
 40
1
 40
1
 40
1
 40
1
 10
198.007967
 20
173.007955
 30
0.0
 10
198.894561
 20
172.121361
 30
0.0
 10
200.227926
 20
171.856138
 30
0.0
 10
201.386317
 20
172.335959
 30
0.0
  0
SPLINE
  5
10a
100
AcDbEntity
  8
Decoupe_Ver._4
 62
1
100
AcDbSpline
 70
8
 71
3
 72
8
 73
4
 74
0
 40
0
 40
0
 40
0
 40
0
 40
1
 40
1
 40
1
 40
1
 10
201.386317
 20
172.335959
 30
0.0
 10
202.544708
 20
172.815781
 30
0.0
 10
203.299999
 20
173.946153
 30
0.0
 10
203.299999
 20
175.199986
 30
0.0
  0
SPLINE
  5
10b
100
AcDbEntity
  8
Decoupe_Ver._4
 62
1
100
AcDbSpline
 70
8
 71
3
 72
8
 73
4
 74
0
 40
0
 40
0
 40
0
 40
0
 40
1
 40
1
 40
1
 40
1
 10
203.299999
 20
175.199986
 30
0.0
 10
203.299999
 20
176.022158
 30
0.0
 10
202.973392
 20
176.810655
 30
0.0
 10
202.392029
 20
177.392018
 30
0.0
  0
SPLINE
  5
10c
100
AcDbEntity
  8
Decoupe_Ver._4
 62
1
100
AcDbSpline
 70
8
 71
3
 72
8
 73
4
 74
0
 40
0
 40
0
 40
0
 40
0
 40
1
 40
1
 40
1
 40
1
 10
202.392029
 20
177.392018
 30
0.0
 10
201.810667
 20
177.973381
 30
0.0
 10
201.022169
 20
178.299987
 30
0.0
 10
200.199998
 20
178.299987
 30
0.0
  0
LINE
  5
10d
100
AcDbEntity
  8
Decoupe_Ver._4
 62
1
100
AcDbLine
 10
200.199998
 20
178.299987
 30
0.0
 11
200.199998
 21
178.299987
 31
0.0
  0
SPLINE
  5
10e
100
AcDbEntity
  8
Decoupe_Ver._4
 62
1
100
AcDbSpline
 70
8
 71
3
 72
8
 73
4
 74
0
 40
0
 40
0
 40
0
 40
0
 40
1
 40
1
 40
1
 40
1
 10
350.199993
 20
178.299987
 30
0.0
 10
348.946160
 20
178.299987
 30
0.0
 10
347.815787
 20
177.544696
 30
0.0
 10
347.335966
 20
176.386305
 30
0.0
  0
SPLINE
  5
10f
100
AcDbEntity
  8
Decoupe_Ver._4
 62
1
100
AcDbSpline
 70
8
 71
3
 72
8
 73
4
 74
0
 40
0
 40
0
 40
0
 40
0
 40
1
 40
1
 40
1
 40
1
 10
347.335966
 20
176.386305
 30
0.0
 10
346.856145
 20
175.227915
 30
0.0
 10
347.121368
 20
173.894549
 30
0.0
 10
348.007962
 20
173.007955
 30
0.0
  0
SPLINE
  5
110
100
AcDbEntity
  8
Decoupe_Ver._4
 62
1
100
AcDbSpline
 70
8
 71
3
 72
8
 73
4
 74
0
 40
0
 40
0
 40
0
 40
0
 40
1
 40
1
 40
1
 40
1
 10
348.007962
 20
173.007955
 30
0.0
 10
348.894556
 20
172.121361
 30
0.0
 10
350.227921
 20
171.856138
 30
0.0
 10
351.386312
 20
172.335959
 30
0.0
  0
SPLINE
  5
111
100
AcDbEntity
  8
Decoupe_Ver._4
 62
1
100
AcDbSpline
 70
8
 71
3
 72
8
 73
4
 74
0
 40
0
 40
0
 40
0
 40
0
 40
1
 40
1
 40
1
 40
1
 10
351.386312
 20
172.335959
 30
0.0
 10
352.544703
 20
172.815781
 30
0.0
 10
353.299994
 20
173.946153
 30
0.0
 10
353.299994
 20
175.199986
 30
0.0
  0
SPLINE
  5
112
100
AcDbEntity
  8
Decoupe_Ver._4
 62
1
100
AcDbSpline
 70
8
 71
3
 72
8
 73
4
 74
0
 40
0
 40
0
 40
0
 40
0
 40
1
 40
1
 40
1
 40
1
 10
353.299994
 20
175.199986
 30
0.0
 10
353.299994
 20
176.912070
 30
0.0
 10
351.912076
 20
178.299987
 30
0.0
 10
350.199993
 20
178.299987
 30
0.0
  0
LINE
  5
113
100
AcDbEntity
  8
Decoupe_Ver._4
 62
1
100
AcDbLine
 10
350.199993
 20
178.299987
 30
0.0
 11
350.199993
 21
178.299987
 31
0.0
  0
SPLINE
  5
114
100
AcDbEntity
  8
Decoupe_Ver._4
 62
1
100
AcDbSpline
 70
8
 71
3
 72
8
 73
4
 74
0
 40
0
 40
0
 40
0
 40
0
 40
1
 40
1
 40
1
 40
1
 10
410.199992
 20
178.299987
 30
0.0
 10
408.946159
 20
178.299987
 30
0.0
 10
407.815786
 20
177.544696
 30
0.0
 10
407.335965
 20
176.386305
 30
0.0
  0
SPLINE
  5
115
100
AcDbEntity
  8
Decoupe_Ver._4
 62
1
100
AcDbSpline
 70
8
 71
3
 72
8
 73
4
 74
0
 40
0
 40
0
 40
0
 40
0
 40
1
 40
1
 40
1
 40
1
 10
407.335965
 20
176.386305
 30
0.0
 10
406.856144
 20
175.227915
 30
0.0
 10
407.121366
 20
173.894549
 30
0.0
 10
408.007960
 20
173.007955
 30
0.0
  0
SPLINE
  5
116
100
AcDbEntity
  8
Decoupe_Ver._4
 62
1
100
AcDbSpline
 70
8
 71
3
 72
8
 73
4
 74
0
 40
0
 40
0
 40
0
 40
0
 40
1
 40
1
 40
1
 40
1
 10
408.007960
 20
173.007955
 30
0.0
 10
408.894554
 20
172.121361
 30
0.0
 10
410.227920
 20
171.856138
 30
0.0
 10
411.386311
 20
172.335959
 30
0.0
  0
SPLINE
  5
117
100
AcDbEntity
  8
Decoupe_Ver._4
 62
1
100
AcDbSpline
 70
8
 71
3
 72
8
 73
4
 74
0
 40
0
 40
0
 40
0
 40
0
 40
1
 40
1
 40
1
 40
1
 10
411.386311
 20
172.335959
 30
0.0
 10
412.544701
 20
172.815781
 30
0.0
 10
413.299992
 20
173.946153
 30
0.0
 10
413.299992
 20
175.199986
 30
0.0
  0
SPLINE
  5
118
100
AcDbEntity
  8
Decoupe_Ver._4
 62
1
100
AcDbSpline
 70
8
 71
3
 72
8
 73
4
 74
0
 40
0
 40
0
 40
0
 40
0
 40
1
 40
1
 40
1
 40
1
 10
413.299992
 20
175.199986
 30
0.0
 10
413.299992
 20
176.022158
 30
0.0
 10
412.973386
 20
176.810655
 30
0.0
 10
412.392023
 20
177.392018
 30
0.0
  0
SPLINE
  5
119
100
AcDbEntity
  8
Decoupe_Ver._4
 62
1
100
AcDbSpline
 70
8
 71
3
 72
8
 73
4
 74
0
 40
0
 40
0
 40
0
 40
0
 40
1
 40
1
 40
1
 40
1
 10
412.392023
 20
177.392018
 30
0.0
 10
411.810660
 20
177.973381
 30
0.0
 10
411.022163
 20
178.299987
 30
0.0
 10
410.199992
 20
178.299987
 30
0.0
  0
LINE
  5
11a
100
AcDbEntity
  8
Decoupe_Ver._4
 62
1
100
AcDbLine
 10
410.199992
 20
178.299987
 30
0.0
 11
410.199992
 21
178.299987
 31
0.0
  0
SPLINE
  5
11b
100
AcDbEntity
  8
Decoupe_Ver._4
 62
1
100
AcDbSpline
 70
8
 71
3
 72
8
 73
4
 74
0
 40
0
 40
0
 40
0
 40
0
 40
1
 40
1
 40
1
 40
1
 10
410.199962
 20
328.299984
 30
0.0
 10
408.946129
 20
328.299984
 30
0.0
 10
407.815756
 20
327.544693
 30
0.0
 10
407.335935
 20
326.386302
 30
0.0
  0
SPLINE
  5
11c
100
AcDbEntity
  8
Decoupe_Ver._4
 62
1
100
AcDbSpline
 70
8
 71
3
 72
8
 73
4
 74
0
 40
0
 40
0
 40
0
 40
0
 40
1
 40
1
 40
1
 40
1
 10
407.335935
 20
326.386302
 30
0.0
 10
406.856114
 20
325.227912
 30
0.0
 10
407.121336
 20
323.894546
 30
0.0
 10
408.007930
 20
323.007952
 30
0.0
  0
SPLINE
  5
11d
100
AcDbEntity
  8
Decoupe_Ver._4
 62
1
100
AcDbSpline
 70
8
 71
3
 72
8
 73
4
 74
0
 40
0
 40
0
 40
0
 40
0
 40
1
 40
1
 40
1
 40
1
 10
408.007930
 20
323.007952
 30
0.0
 10
408.894524
 20
322.121358
 30
0.0
 10
410.227890
 20
321.856135
 30
0.0
 10
411.386281
 20
322.335956
 30
0.0
  0
SPLINE
  5
11e
100
AcDbEntity
  8
Decoupe_Ver._4
 62
1
100
AcDbSpline
 70
8
 71
3
 72
8
 73
4
 74
0
 40
0
 40
0
 40
0
 40
0
 40
1
 40
1
 40
1
 40
1
 10
411.386281
 20
322.335956
 30
0.0
 10
412.544671
 20
322.815778
 30
0.0
 10
413.299962
 20
323.946150
 30
0.0
 10
413.299962
 20
325.199984
 30
0.0
  0
SPLINE
  5
11f
100
AcDbEntity
  8
Decoupe_Ver._4
 62
1
100
AcDbSpline
 70
8
 71
3
 72
8
 73
4
 74
0
 40
0
 40
0
 40
0
 40
0
 40
1
 40
1
 40
1
 40
1
 10
413.299962
 20
325.199984
 30
0.0
 10
413.299962
 20
326.022155
 30
0.0
 10
412.973356
 20
326.810652
 30
0.0
 10
412.391993
 20
327.392015
 30
0.0
  0
SPLINE
  5
120
100
AcDbEntity
  8
Decoupe_Ver._4
 62
1
100
AcDbSpline
 70
8
 71
3
 72
8
 73
4
 74
0
 40
0
 40
0
 40
0
 40
0
 40
1
 40
1
 40
1
 40
1
 10
412.391993
 20
327.392015
 30
0.0
 10
411.810630
 20
327.973378
 30
0.0
 10
411.022133
 20
328.299984
 30
0.0
 10
410.199962
 20
328.299984
 30
0.0
  0
LINE
  5
121
100
AcDbEntity
  8
Decoupe_Ver._4
 62
1
100
AcDbLine
 10
410.199962
 20
328.299984
 30
0.0
 11
410.199962
 21
328.299984
 31
0.0
  0
SPLINE
  5
122
100
AcDbEntity
  8
Decoupe_Ver._4
 62
1
100
AcDbSpline
 70
8
 71
3
 72
8
 73
4
 74
0
 40
0
 40
0
 40
0
 40
0
 40
1
 40
1
 40
1
 40
1
 10
350.199973
 20
328.299984
 30
0.0
 10
348.946140
 20
328.299984
 30
0.0
 10
347.815767
 20
327.544693
 30
0.0
 10
347.335946
 20
326.386302
 30
0.0
  0
SPLINE
  5
123
100
AcDbEntity
  8
Decoupe_Ver._4
 62
1
100
AcDbSpline
 70
8
 71
3
 72
8
 73
4
 74
0
 40
0
 40
0
 40
0
 40
0
 40
1
 40
1
 40
1
 40
1
 10
347.335946
 20
326.386302
 30
0.0
 10
346.856125
 20
325.227912
 30
0.0
 10
347.121348
 20
323.894546
 30
0.0
 10
348.007942
 20
323.007952
 30
0.0
  0
SPLINE
  5
124
100
AcDbEntity
  8
Decoupe_Ver._4
 62
1
100
AcDbSpline
 70
8
 71
3
 72
8
 73
4
 74
0
 40
0
 40
0
 40
0
 40
0
 40
1
 40
1
 40
1
 40
1
 10
348.007942
 20
323.007952
 30
0.0
 10
348.894536
 20
322.121358
 30
0.0
 10
350.227901
 20
321.856135
 30
0.0
 10
351.386292
 20
322.335956
 30
0.0
  0
SPLINE
  5
125
100
AcDbEntity
  8
Decoupe_Ver._4
 62
1
100
AcDbSpline
 70
8
 71
3
 72
8
 73
4
 74
0
 40
0
 40
0
 40
0
 40
0
 40
1
 40
1
 40
1
 40
1
 10
351.386292
 20
322.335956
 30
0.0
 10
352.544683
 20
322.815778
 30
0.0
 10
353.299974
 20
323.946150
 30
0.0
 10
353.299974
 20
325.199984
 30
0.0
  0
SPLINE
  5
126
100
AcDbEntity
  8
Decoupe_Ver._4
 62
1
100
AcDbSpline
 70
8
 71
3
 72
8
 73
4
 74
0
 40
0
 40
0
 40
0
 40
0
 40
1
 40
1
 40
1
 40
1
 10
353.299974
 20
325.199984
 30
0.0
 10
353.299974
 20
326.022155
 30
0.0
 10
352.973367
 20
326.810652
 30
0.0
 10
352.392004
 20
327.392015
 30
0.0
  0
SPLINE
  5
127
100
AcDbEntity
  8
Decoupe_Ver._4
 62
1
100
AcDbSpline
 70
8
 71
3
 72
8
 73
4
 74
0
 40
0
 40
0
 40
0
 40
0
 40
1
 40
1
 40
1
 40
1
 10
352.392004
 20
327.392015
 30
0.0
 10
351.810642
 20
327.973378
 30
0.0
 10
351.022144
 20
328.299984
 30
0.0
 10
350.199973
 20
328.299984
 30
0.0
  0
LINE
  5
128
100
AcDbEntity
  8
Decoupe_Ver._4
 62
1
100
AcDbLine
 10
350.199973
 20
328.299984
 30
0.0
 11
350.199973
 21
328.299984
 31
0.0
  0
SPLINE
  5
129
100
AcDbEntity
  8
Decoupe_Ver._4
 62
1
100
AcDbSpline
 70
8
 71
3
 72
8
 73
4
 74
0
 40
0
 40
0
 40
0
 40
0
 40
1
 40
1
 40
1
 40
1
 10
200.199996
 20
328.299984
 30
0.0
 10
198.946163
 20
328.299984
 30
0.0
 10
197.815790
 20
327.544693
 30
0.0
 10
197.335969
 20
326.386302
 30
0.0
  0
SPLINE
  5
12a
100
AcDbEntity
  8
Decoupe_Ver._4
 62
1
100
AcDbSpline
 70
8
 71
3
 72
8
 73
4
 74
0
 40
0
 40
0
 40
0
 40
0
 40
1
 40
1
 40
1
 40
1
 10
197.335969
 20
326.386302
 30
0.0
 10
196.856148
 20
325.227912
 30
0.0
 10
197.121371
 20
323.894546
 30
0.0
 10
198.007965
 20
323.007952
 30
0.0
  0
SPLINE
  5
12b
100
AcDbEntity
  8
Decoupe_Ver._4
 62
1
100
AcDbSpline
 70
8
 71
3
 72
8
 73
4
 74
0
 40
0
 40
0
 40
0
 40
0
 40
1
 40
1
 40
1
 40
1
 10
198.007965
 20
323.007952
 30
0.0
 10
198.894559
 20
322.121358
 30
0.0
 10
200.227924
 20
321.856135
 30
0.0
 10
201.386315
 20
322.335956
 30
0.0
  0
SPLINE
  5
12c
100
AcDbEntity
  8
Decoupe_Ver._4
 62
1
100
AcDbSpline
 70
8
 71
3
 72
8
 73
4
 74
0
 40
0
 40
0
 40
0
 40
0
 40
1
 40
1
 40
1
 40
1
 10
201.386315
 20
322.335956
 30
0.0
 10
202.544706
 20
322.815778
 30
0.0
 10
203.299997
 20
323.946150
 30
0.0
 10
203.299997
 20
325.199984
 30
0.0
  0
SPLINE
  5
12d
100
AcDbEntity
  8
Decoupe_Ver._4
 62
1
100
AcDbSpline
 70
8
 71
3
 72
8
 73
4
 74
0
 40
0
 40
0
 40
0
 40
0
 40
1
 40
1
 40
1
 40
1
 10
203.299997
 20
325.199984
 30
0.0
 10
203.299997
 20
326.022155
 30
0.0
 10
202.973390
 20
326.810652
 30
0.0
 10
202.392027
 20
327.392015
 30
0.0
  0
SPLINE
  5
12e
100
AcDbEntity
  8
Decoupe_Ver._4
 62
1
100
AcDbSpline
 70
8
 71
3
 72
8
 73
4
 74
0
 40
0
 40
0
 40
0
 40
0
 40
1
 40
1
 40
1
 40
1
 10
202.392027
 20
327.392015
 30
0.0
 10
201.810665
 20
327.973378
 30
0.0
 10
201.022167
 20
328.299984
 30
0.0
 10
200.199996
 20
328.299984
 30
0.0
  0
LINE
  5
12f
100
AcDbEntity
  8
Decoupe_Ver._4
 62
1
100
AcDbLine
 10
200.199996
 20
328.299984
 30
0.0
 11
200.199996
 21
328.299984
 31
0.0
  0
SPLINE
  5
130
100
AcDbEntity
  8
Decoupe_Ver._4
 62
1
100
AcDbSpline
 70
8
 71
3
 72
8
 73
4
 74
0
 40
0
 40
0
 40
0
 40
0
 40
1
 40
1
 40
1
 40
1
 10
140.199997
 20
328.299984
 30
0.0
 10
138.946164
 20
328.299984
 30
0.0
 10
137.815791
 20
327.544693
 30
0.0
 10
137.335970
 20
326.386302
 30
0.0
  0
SPLINE
  5
131
100
AcDbEntity
  8
Decoupe_Ver._4
 62
1
100
AcDbSpline
 70
8
 71
3
 72
8
 73
4
 74
0
 40
0
 40
0
 40
0
 40
0
 40
1
 40
1
 40
1
 40
1
 10
137.335970
 20
326.386302
 30
0.0
 10
136.856149
 20
325.227912
 30
0.0
 10
137.121372
 20
323.894546
 30
0.0
 10
138.007966
 20
323.007952
 30
0.0
  0
SPLINE
  5
132
100
AcDbEntity
  8
Decoupe_Ver._4
 62
1
100
AcDbSpline
 70
8
 71
3
 72
8
 73
4
 74
0
 40
0
 40
0
 40
0
 40
0
 40
1
 40
1
 40
1
 40
1
 10
138.007966
 20
323.007952
 30
0.0
 10
138.894560
 20
322.121358
 30
0.0
 10
140.227925
 20
321.856135
 30
0.0
 10
141.386316
 20
322.335956
 30
0.0
  0
SPLINE
  5
133
100
AcDbEntity
  8
Decoupe_Ver._4
 62
1
100
AcDbSpline
 70
8
 71
3
 72
8
 73
4
 74
0
 40
0
 40
0
 40
0
 40
0
 40
1
 40
1
 40
1
 40
1
 10
141.386316
 20
322.335956
 30
0.0
 10
142.544707
 20
322.815778
 30
0.0
 10
143.299998
 20
323.946150
 30
0.0
 10
143.299998
 20
325.199984
 30
0.0
  0
SPLINE
  5
134
100
AcDbEntity
  8
Decoupe_Ver._4
 62
1
100
AcDbSpline
 70
8
 71
3
 72
8
 73
4
 74
0
 40
0
 40
0
 40
0
 40
0
 40
1
 40
1
 40
1
 40
1
 10
143.299998
 20
325.199984
 30
0.0
 10
143.299998
 20
326.022155
 30
0.0
 10
142.973391
 20
326.810652
 30
0.0
 10
142.392029
 20
327.392015
 30
0.0
  0
SPLINE
  5
135
100
AcDbEntity
  8
Decoupe_Ver._4
 62
1
100
AcDbSpline
 70
8
 71
3
 72
8
 73
4
 74
0
 40
0
 40
0
 40
0
 40
0
 40
1
 40
1
 40
1
 40
1
 10
142.392029
 20
327.392015
 30
0.0
 10
141.810666
 20
327.973378
 30
0.0
 10
141.022168
 20
328.299984
 30
0.0
 10
140.199997
 20
328.299984
 30
0.0
  0
LINE
  5
136
100
AcDbEntity
  8
Decoupe_Ver._4
 62
1
100
AcDbLine
 10
140.199997
 20
328.299984
 30
0.0
 11
140.199997
 21
328.299984
 31
0.0
  0
SPLINE
  5
137
100
AcDbEntity
  8
Decoupe_Ver._4
 62
1
100
AcDbSpline
 70
8
 71
3
 72
8
 73
4
 74
0
 40
0
 40
0
 40
0
 40
0
 40
1
 40
1
 40
1
 40
1
 10
225.199995
 20
327.299983
 30
0.0
 10
224.350625
 20
327.299983
 30
0.0
 10
223.584889
 20
326.788335
 30
0.0
 10
223.259849
 20
326.003619
 30
0.0
  0
SPLINE
  5
138
100
AcDbEntity
  8
Decoupe_Ver._4
 62
1
100
AcDbSpline
 70
8
 71
3
 72
8
 73
4
 74
0
 40
0
 40
0
 40
0
 40
0
 40
1
 40
1
 40
1
 40
1
 10
223.259849
 20
326.003619
 30
0.0
 10
222.934809
 20
325.218902
 30
0.0
 10
223.114476
 20
324.315655
 30
0.0
 10
223.715071
 20
323.715059
 30
0.0
  0
SPLINE
  5
139
100
AcDbEntity
  8
Decoupe_Ver._4
 62
1
100
AcDbSpline
 70
8
 71
3
 72
8
 73
4
 74
0
 40
0
 40
0
 40
0
 40
0
 40
1
 40
1
 40
1
 40
1
 10
223.715071
 20
323.715059
 30
0.0
 10
224.315667
 20
323.114464
 30
0.0
 10
225.218914
 20
322.934797
 30
0.0
 10
226.003631
 20
323.259837
 30
0.0
  0
SPLINE
  5
13a
100
AcDbEntity
  8
Decoupe_Ver._4
 62
1
100
AcDbSpline
 70
8
 71
3
 72
8
 73
4
 74
0
 40
0
 40
0
 40
0
 40
0
 40
1
 40
1
 40
1
 40
1
 10
226.003631
 20
323.259837
 30
0.0
 10
226.788347
 20
323.584877
 30
0.0
 10
227.299995
 20
324.350613
 30
0.0
 10
227.299995
 20
325.199984
 30
0.0
  0
SPLINE
  5
13b
100
AcDbEntity
  8
Decoupe_Ver._4
 62
1
100
AcDbSpline
 70
8
 71
3
 72
8
 73
4
 74
0
 40
0
 40
0
 40
0
 40
0
 40
1
 40
1
 40
1
 40
1
 10
227.299995
 20
325.199984
 30
0.0
 10
227.299995
 20
325.756938
 30
0.0
 10
227.078746
 20
326.291081
 30
0.0
 10
226.684920
 20
326.684908
 30
0.0
  0
SPLINE
  5
13c
100
AcDbEntity
  8
Decoupe_Ver._4
 62
1
100
AcDbSpline
 70
8
 71
3
 72
8
 73
4
 74
0
 40
0
 40
0
 40
0
 40
0
 40
1
 40
1
 40
1
 40
1
 10
226.684920
 20
326.684908
 30
0.0
 10
226.291093
 20
327.078734
 30
0.0
 10
225.756950
 20
327.299983
 30
0.0
 10
225.199995
 20
327.299983
 30
0.0
  0
LINE
  5
13d
100
AcDbEntity
  8
Decoupe_Ver._4
 62
1
100
AcDbLine
 10
225.199995
 20
327.299983
 30
0.0
 11
225.199995
 21
327.299983
 31
0.0
  0
SPLINE
  5
13e
100
AcDbEntity
  8
Decoupe_Ver._4
 62
1
100
AcDbSpline
 70
8
 71
3
 72
8
 73
4
 74
0
 40
0
 40
0
 40
0
 40
0
 40
1
 40
1
 40
1
 40
1
 10
250.199995
 20
327.299983
 30
0.0
 10
249.350624
 20
327.299983
 30
0.0
 10
248.584888
 20
326.788335
 30
0.0
 10
248.259848
 20
326.003619
 30
0.0
  0
SPLINE
  5
13f
100
AcDbEntity
  8
Decoupe_Ver._4
 62
1
100
AcDbSpline
 70
8
 71
3
 72
8
 73
4
 74
0
 40
0
 40
0
 40
0
 40
0
 40
1
 40
1
 40
1
 40
1
 10
248.259848
 20
326.003619
 30
0.0
 10
247.934808
 20
325.218902
 30
0.0
 10
248.114475
 20
324.315655
 30
0.0
 10
248.715071
 20
323.715059
 30
0.0
  0
SPLINE
  5
140
100
AcDbEntity
  8
Decoupe_Ver._4
 62
1
100
AcDbSpline
 70
8
 71
3
 72
8
 73
4
 74
0
 40
0
 40
0
 40
0
 40
0
 40
1
 40
1
 40
1
 40
1
 10
248.715071
 20
323.715059
 30
0.0
 10
249.315667
 20
323.114464
 30
0.0
 10
250.218914
 20
322.934797
 30
0.0
 10
251.003630
 20
323.259837
 30
0.0
  0
SPLINE
  5
141
100
AcDbEntity
  8
Decoupe_Ver._4
 62
1
100
AcDbSpline
 70
8
 71
3
 72
8
 73
4
 74
0
 40
0
 40
0
 40
0
 40
0
 40
1
 40
1
 40
1
 40
1
 10
251.003630
 20
323.259837
 30
0.0
 10
251.788346
 20
323.584877
 30
0.0
 10
252.299995
 20
324.350613
 30
0.0
 10
252.299995
 20
325.199984
 30
0.0
  0
SPLINE
  5
142
100
AcDbEntity
  8
Decoupe_Ver._4
 62
1
100
AcDbSpline
 70
8
 71
3
 72
8
 73
4
 74
0
 40
0
 40
0
 40
0
 40
0
 40
1
 40
1
 40
1
 40
1
 10
252.299995
 20
325.199984
 30
0.0
 10
252.299995
 20
325.756938
 30
0.0
 10
252.078746
 20
326.291081
 30
0.0
 10
251.684919
 20
326.684908
 30
0.0
  0
SPLINE
  5
143
100
AcDbEntity
  8
Decoupe_Ver._4
 62
1
100
AcDbSpline
 70
8
 71
3
 72
8
 73
4
 74
0
 40
0
 40
0
 40
0
 40
0
 40
1
 40
1
 40
1
 40
1
 10
251.684919
 20
326.684908
 30
0.0
 10
251.291093
 20
327.078734
 30
0.0
 10
250.756950
 20
327.299983
 30
0.0
 10
250.199995
 20
327.299983
 30
0.0
  0
LINE
  5
144
100
AcDbEntity
  8
Decoupe_Ver._4
 62
1
100
AcDbLine
 10
250.199995
 20
327.299983
 30
0.0
 11
250.199995
 21
327.299983
 31
0.0
  0
SPLINE
  5
145
100
AcDbEntity
  8
Decoupe_Ver._4
 62
1
100
AcDbSpline
 70
8
 71
3
 72
8
 73
4
 74
0
 40
0
 40
0
 40
0
 40
0
 40
1
 40
1
 40
1
 40
1
 10
275.199995
 20
327.299983
 30
0.0
 10
274.350624
 20
327.299983
 30
0.0
 10
273.584888
 20
326.788335
 30
0.0
 10
273.259848
 20
326.003619
 30
0.0
  0
SPLINE
  5
146
100
AcDbEntity
  8
Decoupe_Ver._4
 62
1
100
AcDbSpline
 70
8
 71
3
 72
8
 73
4
 74
0
 40
0
 40
0
 40
0
 40
0
 40
1
 40
1
 40
1
 40
1
 10
273.259848
 20
326.003619
 30
0.0
 10
272.934808
 20
325.218902
 30
0.0
 10
273.114475
 20
324.315655
 30
0.0
 10
273.715070
 20
323.715059
 30
0.0
  0
SPLINE
  5
147
100
AcDbEntity
  8
Decoupe_Ver._4
 62
1
100
AcDbSpline
 70
8
 71
3
 72
8
 73
4
 74
0
 40
0
 40
0
 40
0
 40
0
 40
1
 40
1
 40
1
 40
1
 10
273.715070
 20
323.715059
 30
0.0
 10
274.315666
 20
323.114464
 30
0.0
 10
275.218913
 20
322.934797
 30
0.0
 10
276.003630
 20
323.259837
 30
0.0
  0
SPLINE
  5
148
100
AcDbEntity
  8
Decoupe_Ver._4
 62
1
100
AcDbSpline
 70
8
 71
3
 72
8
 73
4
 74
0
 40
0
 40
0
 40
0
 40
0
 40
1
 40
1
 40
1
 40
1
 10
276.003630
 20
323.259837
 30
0.0
 10
276.788346
 20
323.584877
 30
0.0
 10
277.299994
 20
324.350613
 30
0.0
 10
277.299994
 20
325.199984
 30
0.0
  0
SPLINE
  5
149
100
AcDbEntity
  8
Decoupe_Ver._4
 62
1
100
AcDbSpline
 70
8
 71
3
 72
8
 73
4
 74
0
 40
0
 40
0
 40
0
 40
0
 40
1
 40
1
 40
1
 40
1
 10
277.299994
 20
325.199984
 30
0.0
 10
277.299994
 20
325.756938
 30
0.0
 10
277.078745
 20
326.291081
 30
0.0
 10
276.684919
 20
326.684908
 30
0.0
  0
SPLINE
  5
14a
100
AcDbEntity
  8
Decoupe_Ver._4
 62
1
100
AcDbSpline
 70
8
 71
3
 72
8
 73
4
 74
0
 40
0
 40
0
 40
0
 40
0
 40
1
 40
1
 40
1
 40
1
 10
276.684919
 20
326.684908
 30
0.0
 10
276.291092
 20
327.078734
 30
0.0
 10
275.756949
 20
327.299983
 30
0.0
 10
275.199995
 20
327.299983
 30
0.0
  0
LINE
  5
14b
100
AcDbEntity
  8
Decoupe_Ver._4
 62
1
100
AcDbLine
 10
275.199995
 20
327.299983
 30
0.0
 11
275.199995
 21
327.299983
 31
0.0
  0
SPLINE
  5
14c
100
AcDbEntity
  8
Decoupe_Ver._4
 62
1
100
AcDbSpline
 70
8
 71
3
 72
8
 73
4
 74
0
 40
0
 40
0
 40
0
 40
0
 40
1
 40
1
 40
1
 40
1
 10
300.199994
 20
327.299983
 30
0.0
 10
299.350623
 20
327.299983
 30
0.0
 10
298.584887
 20
326.788335
 30
0.0
 10
298.259847
 20
326.003619
 30
0.0
  0
SPLINE
  5
14d
100
AcDbEntity
  8
Decoupe_Ver._4
 62
1
100
AcDbSpline
 70
8
 71
3
 72
8
 73
4
 74
0
 40
0
 40
0
 40
0
 40
0
 40
1
 40
1
 40
1
 40
1
 10
298.259847
 20
326.003619
 30
0.0
 10
297.934807
 20
325.218902
 30
0.0
 10
298.114474
 20
324.315655
 30
0.0
 10
298.715070
 20
323.715059
 30
0.0
  0
SPLINE
  5
14e
100
AcDbEntity
  8
Decoupe_Ver._4
 62
1
100
AcDbSpline
 70
8
 71
3
 72
8
 73
4
 74
0
 40
0
 40
0
 40
0
 40
0
 40
1
 40
1
 40
1
 40
1
 10
298.715070
 20
323.715059
 30
0.0
 10
299.315666
 20
323.114464
 30
0.0
 10
300.218913
 20
322.934797
 30
0.0
 10
301.003629
 20
323.259837
 30
0.0
  0
SPLINE
  5
14f
100
AcDbEntity
  8
Decoupe_Ver._4
 62
1
100
AcDbSpline
 70
8
 71
3
 72
8
 73
4
 74
0
 40
0
 40
0
 40
0
 40
0
 40
1
 40
1
 40
1
 40
1
 10
301.003629
 20
323.259837
 30
0.0
 10
301.788345
 20
323.584877
 30
0.0
 10
302.299994
 20
324.350613
 30
0.0
 10
302.299994
 20
325.199984
 30
0.0
  0
SPLINE
  5
150
100
AcDbEntity
  8
Decoupe_Ver._4
 62
1
100
AcDbSpline
 70
8
 71
3
 72
8
 73
4
 74
0
 40
0
 40
0
 40
0
 40
0
 40
1
 40
1
 40
1
 40
1
 10
302.299994
 20
325.199984
 30
0.0
 10
302.299994
 20
325.756938
 30
0.0
 10
302.078745
 20
326.291081
 30
0.0
 10
301.684918
 20
326.684908
 30
0.0
  0
SPLINE
  5
151
100
AcDbEntity
  8
Decoupe_Ver._4
 62
1
100
AcDbSpline
 70
8
 71
3
 72
8
 73
4
 74
0
 40
0
 40
0
 40
0
 40
0
 40
1
 40
1
 40
1
 40
1
 10
301.684918
 20
326.684908
 30
0.0
 10
301.291092
 20
327.078734
 30
0.0
 10
300.756949
 20
327.299983
 30
0.0
 10
300.199994
 20
327.299983
 30
0.0
  0
LINE
  5
152
100
AcDbEntity
  8
Decoupe_Ver._4
 62
1
100
AcDbLine
 10
300.199994
 20
327.299983
 30
0.0
 11
300.199994
 21
327.299983
 31
0.0
  0
SPLINE
  5
153
100
AcDbEntity
  8
Decoupe_Ver._4
 62
1
100
AcDbSpline
 70
8
 71
3
 72
8
 73
4
 74
0
 40
0
 40
0
 40
0
 40
0
 40
1
 40
1
 40
1
 40
1
 10
150.199997
 20
302.299984
 30
0.0
 10
149.350626
 20
302.299984
 30
0.0
 10
148.584890
 20
301.788335
 30
0.0
 10
148.259850
 20
301.003619
 30
0.0
  0
SPLINE
  5
154
100
AcDbEntity
  8
Decoupe_Ver._4
 62
1
100
AcDbSpline
 70
8
 71
3
 72
8
 73
4
 74
0
 40
0
 40
0
 40
0
 40
0
 40
1
 40
1
 40
1
 40
1
 10
148.259850
 20
301.003619
 30
0.0
 10
147.934810
 20
300.218903
 30
0.0
 10
148.114477
 20
299.315656
 30
0.0
 10
148.715073
 20
298.715060
 30
0.0
  0
SPLINE
  5
155
100
AcDbEntity
  8
Decoupe_Ver._4
 62
1
100
AcDbSpline
 70
8
 71
3
 72
8
 73
4
 74
0
 40
0
 40
0
 40
0
 40
0
 40
1
 40
1
 40
1
 40
1
 10
148.715073
 20
298.715060
 30
0.0
 10
149.315669
 20
298.114464
 30
0.0
 10
150.218916
 20
297.934797
 30
0.0
 10
151.003632
 20
298.259837
 30
0.0
  0
SPLINE
  5
156
100
AcDbEntity
  8
Decoupe_Ver._4
 62
1
100
AcDbSpline
 70
8
 71
3
 72
8
 73
4
 74
0
 40
0
 40
0
 40
0
 40
0
 40
1
 40
1
 40
1
 40
1
 10
151.003632
 20
298.259837
 30
0.0
 10
151.788348
 20
298.584877
 30
0.0
 10
152.299997
 20
299.350613
 30
0.0
 10
152.299997
 20
300.199984
 30
0.0
  0
SPLINE
  5
157
100
AcDbEntity
  8
Decoupe_Ver._4
 62
1
100
AcDbSpline
 70
8
 71
3
 72
8
 73
4
 74
0
 40
0
 40
0
 40
0
 40
0
 40
1
 40
1
 40
1
 40
1
 10
152.299997
 20
300.199984
 30
0.0
 10
152.299997
 20
300.756939
 30
0.0
 10
152.078748
 20
301.291082
 30
0.0
 10
151.684921
 20
301.684908
 30
0.0
  0
SPLINE
  5
158
100
AcDbEntity
  8
Decoupe_Ver._4
 62
1
100
AcDbSpline
 70
8
 71
3
 72
8
 73
4
 74
0
 40
0
 40
0
 40
0
 40
0
 40
1
 40
1
 40
1
 40
1
 10
151.684921
 20
301.684908
 30
0.0
 10
151.291095
 20
302.078735
 30
0.0
 10
150.756952
 20
302.299984
 30
0.0
 10
150.199997
 20
302.299984
 30
0.0
  0
LINE
  5
159
100
AcDbEntity
  8
Decoupe_Ver._4
 62
1
100
AcDbLine
 10
150.199997
 20
302.299984
 30
0.0
 11
150.199997
 21
302.299984
 31
0.0
  0
SPLINE
  5
15a
100
AcDbEntity
  8
Decoupe_Ver._4
 62
1
100
AcDbSpline
 70
8
 71
3
 72
8
 73
4
 74
0
 40
0
 40
0
 40
0
 40
0
 40
1
 40
1
 40
1
 40
1
 10
175.199996
 20
302.299984
 30
0.0
 10
174.350626
 20
302.299984
 30
0.0
 10
173.584890
 20
301.788335
 30
0.0
 10
173.259850
 20
301.003619
 30
0.0
  0
SPLINE
  5
15b
100
AcDbEntity
  8
Decoupe_Ver._4
 62
1
100
AcDbSpline
 70
8
 71
3
 72
8
 73
4
 74
0
 40
0
 40
0
 40
0
 40
0
 40
1
 40
1
 40
1
 40
1
 10
173.259850
 20
301.003619
 30
0.0
 10
172.934810
 20
300.218903
 30
0.0
 10
173.114477
 20
299.315656
 30
0.0
 10
173.715072
 20
298.715060
 30
0.0
  0
SPLINE
  5
15c
100
AcDbEntity
  8
Decoupe_Ver._4
 62
1
100
AcDbSpline
 70
8
 71
3
 72
8
 73
4
 74
0
 40
0
 40
0
 40
0
 40
0
 40
1
 40
1
 40
1
 40
1
 10
173.715072
 20
298.715060
 30
0.0
 10
174.315668
 20
298.114464
 30
0.0
 10
175.218915
 20
297.934797
 30
0.0
 10
176.003632
 20
298.259837
 30
0.0
  0
SPLINE
  5
15d
100
AcDbEntity
  8
Decoupe_Ver._4
 62
1
100
AcDbSpline
 70
8
 71
3
 72
8
 73
4
 74
0
 40
0
 40
0
 40
0
 40
0
 40
1
 40
1
 40
1
 40
1
 10
176.003632
 20
298.259837
 30
0.0
 10
176.788348
 20
298.584877
 30
0.0
 10
177.299996
 20
299.350613
 30
0.0
 10
177.299996
 20
300.199984
 30
0.0
  0
SPLINE
  5
15e
100
AcDbEntity
  8
Decoupe_Ver._4
 62
1
100
AcDbSpline
 70
8
 71
3
 72
8
 73
4
 74
0
 40
0
 40
0
 40
0
 40
0
 40
1
 40
1
 40
1
 40
1
 10
177.299996
 20
300.199984
 30
0.0
 10
177.299996
 20
300.756939
 30
0.0
 10
177.078747
 20
301.291082
 30
0.0
 10
176.684921
 20
301.684908
 30
0.0
  0
SPLINE
  5
15f
100
AcDbEntity
  8
Decoupe_Ver._4
 62
1
100
AcDbSpline
 70
8
 71
3
 72
8
 73
4
 74
0
 40
0
 40
0
 40
0
 40
0
 40
1
 40
1
 40
1
 40
1
 10
176.684921
 20
301.684908
 30
0.0
 10
176.291094
 20
302.078735
 30
0.0
 10
175.756951
 20
302.299984
 30
0.0
 10
175.199996
 20
302.299984
 30
0.0
  0
LINE
  5
160
100
AcDbEntity
  8
Decoupe_Ver._4
 62
1
100
AcDbLine
 10
175.199996
 20
302.299984
 30
0.0
 11
175.199996
 21
302.299984
 31
0.0
  0
SPLINE
  5
161
100
AcDbEntity
  8
Decoupe_Ver._4
 62
1
100
AcDbSpline
 70
8
 71
3
 72
8
 73
4
 74
0
 40
0
 40
0
 40
0
 40
0
 40
1
 40
1
 40
1
 40
1
 10
200.199996
 20
302.299984
 30
0.0
 10
199.350625
 20
302.299984
 30
0.0
 10
198.584889
 20
301.788335
 30
0.0
 10
198.259849
 20
301.003619
 30
0.0
  0
SPLINE
  5
162
100
AcDbEntity
  8
Decoupe_Ver._4
 62
1
100
AcDbSpline
 70
8
 71
3
 72
8
 73
4
 74
0
 40
0
 40
0
 40
0
 40
0
 40
1
 40
1
 40
1
 40
1
 10
198.259849
 20
301.003619
 30
0.0
 10
197.934809
 20
300.218903
 30
0.0
 10
198.114476
 20
299.315656
 30
0.0
 10
198.715072
 20
298.715060
 30
0.0
  0
SPLINE
  5
163
100
AcDbEntity
  8
Decoupe_Ver._4
 62
1
100
AcDbSpline
 70
8
 71
3
 72
8
 73
4
 74
0
 40
0
 40
0
 40
0
 40
0
 40
1
 40
1
 40
1
 40
1
 10
198.715072
 20
298.715060
 30
0.0
 10
199.315668
 20
298.114464
 30
0.0
 10
200.218915
 20
297.934797
 30
0.0
 10
201.003631
 20
298.259837
 30
0.0
  0
SPLINE
  5
164
100
AcDbEntity
  8
Decoupe_Ver._4
 62
1
100
AcDbSpline
 70
8
 71
3
 72
8
 73
4
 74
0
 40
0
 40
0
 40
0
 40
0
 40
1
 40
1
 40
1
 40
1
 10
201.003631
 20
298.259837
 30
0.0
 10
201.788347
 20
298.584877
 30
0.0
 10
202.299996
 20
299.350613
 30
0.0
 10
202.299996
 20
300.199984
 30
0.0
  0
SPLINE
  5
165
100
AcDbEntity
  8
Decoupe_Ver._4
 62
1
100
AcDbSpline
 70
8
 71
3
 72
8
 73
4
 74
0
 40
0
 40
0
 40
0
 40
0
 40
1
 40
1
 40
1
 40
1
 10
202.299996
 20
300.199984
 30
0.0
 10
202.299996
 20
300.756939
 30
0.0
 10
202.078747
 20
301.291082
 30
0.0
 10
201.684920
 20
301.684908
 30
0.0
  0
SPLINE
  5
166
100
AcDbEntity
  8
Decoupe_Ver._4
 62
1
100
AcDbSpline
 70
8
 71
3
 72
8
 73
4
 74
0
 40
0
 40
0
 40
0
 40
0
 40
1
 40
1
 40
1
 40
1
 10
201.684920
 20
301.684908
 30
0.0
 10
201.291094
 20
302.078735
 30
0.0
 10
200.756951
 20
302.299984
 30
0.0
 10
200.199996
 20
302.299984
 30
0.0
  0
LINE
  5
167
100
AcDbEntity
  8
Decoupe_Ver._4
 62
1
100
AcDbLine
 10
200.199996
 20
302.299984
 30
0.0
 11
200.199996
 21
302.299984
 31
0.0
  0
SPLINE
  5
168
100
AcDbEntity
  8
Decoupe_Ver._4
 62
1
100
AcDbSpline
 70
8
 71
3
 72
8
 73
4
 74
0
 40
0
 40
0
 40
0
 40
0
 40
1
 40
1
 40
1
 40
1
 10
225.199999
 20
302.299984
 30
0.0
 10
224.350629
 20
302.299984
 30
0.0
 10
223.584893
 20
301.788335
 30
0.0
 10
223.259853
 20
301.003619
 30
0.0
  0
SPLINE
  5
169
100
AcDbEntity
  8
Decoupe_Ver._4
 62
1
100
AcDbSpline
 70
8
 71
3
 72
8
 73
4
 74
0
 40
0
 40
0
 40
0
 40
0
 40
1
 40
1
 40
1
 40
1
 10
223.259853
 20
301.003619
 30
0.0
 10
222.934813
 20
300.218903
 30
0.0
 10
223.114480
 20
299.315656
 30
0.0
 10
223.715075
 20
298.715060
 30
0.0
  0
SPLINE
  5
16a
100
AcDbEntity
  8
Decoupe_Ver._4
 62
1
100
AcDbSpline
 70
8
 71
3
 72
8
 73
4
 74
0
 40
0
 40
0
 40
0
 40
0
 40
1
 40
1
 40
1
 40
1
 10
223.715075
 20
298.715060
 30
0.0
 10
224.315671
 20
298.114464
 30
0.0
 10
225.218918
 20
297.934797
 30
0.0
 10
226.003635
 20
298.259837
 30
0.0
  0
SPLINE
  5
16b
100
AcDbEntity
  8
Decoupe_Ver._4
 62
1
100
AcDbSpline
 70
8
 71
3
 72
8
 73
4
 74
0
 40
0
 40
0
 40
0
 40
0
 40
1
 40
1
 40
1
 40
1
 10
226.003635
 20
298.259837
 30
0.0
 10
226.788351
 20
298.584877
 30
0.0
 10
227.299999
 20
299.350613
 30
0.0
 10
227.299999
 20
300.199984
 30
0.0
  0
SPLINE
  5
16c
100
AcDbEntity
  8
Decoupe_Ver._4
 62
1
100
AcDbSpline
 70
8
 71
3
 72
8
 73
4
 74
0
 40
0
 40
0
 40
0
 40
0
 40
1
 40
1
 40
1
 40
1
 10
227.299999
 20
300.199984
 30
0.0
 10
227.299999
 20
300.756939
 30
0.0
 10
227.078750
 20
301.291082
 30
0.0
 10
226.684924
 20
301.684908
 30
0.0
  0
SPLINE
  5
16d
100
AcDbEntity
  8
Decoupe_Ver._4
 62
1
100
AcDbSpline
 70
8
 71
3
 72
8
 73
4
 74
0
 40
0
 40
0
 40
0
 40
0
 40
1
 40
1
 40
1
 40
1
 10
226.684924
 20
301.684908
 30
0.0
 10
226.291097
 20
302.078735
 30
0.0
 10
225.756954
 20
302.299984
 30
0.0
 10
225.199999
 20
302.299984
 30
0.0
  0
LINE
  5
16e
100
AcDbEntity
  8
Decoupe_Ver._4
 62
1
100
AcDbLine
 10
225.199999
 20
302.299984
 30
0.0
 11
225.199999
 21
302.299984
 31
0.0
  0
SPLINE
  5
16f
100
AcDbEntity
  8
Decoupe_Ver._4
 62
1
100
AcDbSpline
 70
8
 71
3
 72
8
 73
4
 74
0
 40
0
 40
0
 40
0
 40
0
 40
1
 40
1
 40
1
 40
1
 10
250.199995
 20
302.299984
 30
0.0
 10
249.350624
 20
302.299984
 30
0.0
 10
248.584888
 20
301.788335
 30
0.0
 10
248.259848
 20
301.003619
 30
0.0
  0
SPLINE
  5
170
100
AcDbEntity
  8
Decoupe_Ver._4
 62
1
100
AcDbSpline
 70
8
 71
3
 72
8
 73
4
 74
0
 40
0
 40
0
 40
0
 40
0
 40
1
 40
1
 40
1
 40
1
 10
248.259848
 20
301.003619
 30
0.0
 10
247.934808
 20
300.218903
 30
0.0
 10
248.114475
 20
299.315656
 30
0.0
 10
248.715071
 20
298.715060
 30
0.0
  0
SPLINE
  5
171
100
AcDbEntity
  8
Decoupe_Ver._4
 62
1
100
AcDbSpline
 70
8
 71
3
 72
8
 73
4
 74
0
 40
0
 40
0
 40
0
 40
0
 40
1
 40
1
 40
1
 40
1
 10
248.715071
 20
298.715060
 30
0.0
 10
249.315667
 20
298.114464
 30
0.0
 10
250.218914
 20
297.934797
 30
0.0
 10
251.003630
 20
298.259837
 30
0.0
  0
SPLINE
  5
172
100
AcDbEntity
  8
Decoupe_Ver._4
 62
1
100
AcDbSpline
 70
8
 71
3
 72
8
 73
4
 74
0
 40
0
 40
0
 40
0
 40
0
 40
1
 40
1
 40
1
 40
1
 10
251.003630
 20
298.259837
 30
0.0
 10
251.788346
 20
298.584877
 30
0.0
 10
252.299995
 20
299.350613
 30
0.0
 10
252.299995
 20
300.199984
 30
0.0
  0
SPLINE
  5
173
100
AcDbEntity
  8
Decoupe_Ver._4
 62
1
100
AcDbSpline
 70
8
 71
3
 72
8
 73
4
 74
0
 40
0
 40
0
 40
0
 40
0
 40
1
 40
1
 40
1
 40
1
 10
252.299995
 20
300.199984
 30
0.0
 10
252.299995
 20
300.756939
 30
0.0
 10
252.078746
 20
301.291082
 30
0.0
 10
251.684919
 20
301.684908
 30
0.0
  0
SPLINE
  5
174
100
AcDbEntity
  8
Decoupe_Ver._4
 62
1
100
AcDbSpline
 70
8
 71
3
 72
8
 73
4
 74
0
 40
0
 40
0
 40
0
 40
0
 40
1
 40
1
 40
1
 40
1
 10
251.684919
 20
301.684908
 30
0.0
 10
251.291093
 20
302.078735
 30
0.0
 10
250.756950
 20
302.299984
 30
0.0
 10
250.199995
 20
302.299984
 30
0.0
  0
LINE
  5
175
100
AcDbEntity
  8
Decoupe_Ver._4
 62
1
100
AcDbLine
 10
250.199995
 20
302.299984
 30
0.0
 11
250.199995
 21
302.299984
 31
0.0
  0
SPLINE
  5
176
100
AcDbEntity
  8
Decoupe_Ver._4
 62
1
100
AcDbSpline
 70
8
 71
3
 72
8
 73
4
 74
0
 40
0
 40
0
 40
0
 40
0
 40
1
 40
1
 40
1
 40
1
 10
275.199995
 20
302.299984
 30
0.0
 10
274.350624
 20
302.299984
 30
0.0
 10
273.584888
 20
301.788335
 30
0.0
 10
273.259848
 20
301.003619
 30
0.0
  0
SPLINE
  5
177
100
AcDbEntity
  8
Decoupe_Ver._4
 62
1
100
AcDbSpline
 70
8
 71
3
 72
8
 73
4
 74
0
 40
0
 40
0
 40
0
 40
0
 40
1
 40
1
 40
1
 40
1
 10
273.259848
 20
301.003619
 30
0.0
 10
272.934808
 20
300.218903
 30
0.0
 10
273.114475
 20
299.315656
 30
0.0
 10
273.715070
 20
298.715060
 30
0.0
  0
SPLINE
  5
178
100
AcDbEntity
  8
Decoupe_Ver._4
 62
1
100
AcDbSpline
 70
8
 71
3
 72
8
 73
4
 74
0
 40
0
 40
0
 40
0
 40
0
 40
1
 40
1
 40
1
 40
1
 10
273.715070
 20
298.715060
 30
0.0
 10
274.315666
 20
298.114464
 30
0.0
 10
275.218913
 20
297.934797
 30
0.0
 10
276.003630
 20
298.259837
 30
0.0
  0
SPLINE
  5
179
100
AcDbEntity
  8
Decoupe_Ver._4
 62
1
100
AcDbSpline
 70
8
 71
3
 72
8
 73
4
 74
0
 40
0
 40
0
 40
0
 40
0
 40
1
 40
1
 40
1
 40
1
 10
276.003630
 20
298.259837
 30
0.0
 10
276.788346
 20
298.584877
 30
0.0
 10
277.299994
 20
299.350613
 30
0.0
 10
277.299994
 20
300.199984
 30
0.0
  0
SPLINE
  5
17a
100
AcDbEntity
  8
Decoupe_Ver._4
 62
1
100
AcDbSpline
 70
8
 71
3
 72
8
 73
4
 74
0
 40
0
 40
0
 40
0
 40
0
 40
1
 40
1
 40
1
 40
1
 10
277.299994
 20
300.199984
 30
0.0
 10
277.299994
 20
300.756939
 30
0.0
 10
277.078745
 20
301.291082
 30
0.0
 10
276.684919
 20
301.684908
 30
0.0
  0
SPLINE
  5
17b
100
AcDbEntity
  8
Decoupe_Ver._4
 62
1
100
AcDbSpline
 70
8
 71
3
 72
8
 73
4
 74
0
 40
0
 40
0
 40
0
 40
0
 40
1
 40
1
 40
1
 40
1
 10
276.684919
 20
301.684908
 30
0.0
 10
276.291092
 20
302.078735
 30
0.0
 10
275.756949
 20
302.299984
 30
0.0
 10
275.199995
 20
302.299984
 30
0.0
  0
LINE
  5
17c
100
AcDbEntity
  8
Decoupe_Ver._4
 62
1
100
AcDbLine
 10
275.199995
 20
302.299984
 30
0.0
 11
275.199995
 21
302.299984
 31
0.0
  0
SPLINE
  5
17d
100
AcDbEntity
  8
Decoupe_Ver._4
 62
1
100
AcDbSpline
 70
8
 71
3
 72
8
 73
4
 74
0
 40
0
 40
0
 40
0
 40
0
 40
1
 40
1
 40
1
 40
1
 10
300.199994
 20
302.299984
 30
0.0
 10
299.350623
 20
302.299984
 30
0.0
 10
298.584887
 20
301.788335
 30
0.0
 10
298.259847
 20
301.003619
 30
0.0
  0
SPLINE
  5
17e
100
AcDbEntity
  8
Decoupe_Ver._4
 62
1
100
AcDbSpline
 70
8
 71
3
 72
8
 73
4
 74
0
 40
0
 40
0
 40
0
 40
0
 40
1
 40
1
 40
1
 40
1
 10
298.259847
 20
301.003619
 30
0.0
 10
297.934807
 20
300.218903
 30
0.0
 10
298.114474
 20
299.315656
 30
0.0
 10
298.715070
 20
298.715060
 30
0.0
  0
SPLINE
  5
17f
100
AcDbEntity
  8
Decoupe_Ver._4
 62
1
100
AcDbSpline
 70
8
 71
3
 72
8
 73
4
 74
0
 40
0
 40
0
 40
0
 40
0
 40
1
 40
1
 40
1
 40
1
 10
298.715070
 20
298.715060
 30
0.0
 10
299.315666
 20
298.114464
 30
0.0
 10
300.218913
 20
297.934797
 30
0.0
 10
301.003629
 20
298.259837
 30
0.0
  0
SPLINE
  5
180
100
AcDbEntity
  8
Decoupe_Ver._4
 62
1
100
AcDbSpline
 70
8
 71
3
 72
8
 73
4
 74
0
 40
0
 40
0
 40
0
 40
0
 40
1
 40
1
 40
1
 40
1
 10
301.003629
 20
298.259837
 30
0.0
 10
301.788345
 20
298.584877
 30
0.0
 10
302.299994
 20
299.350613
 30
0.0
 10
302.299994
 20
300.199984
 30
0.0
  0
SPLINE
  5
181
100
AcDbEntity
  8
Decoupe_Ver._4
 62
1
100
AcDbSpline
 70
8
 71
3
 72
8
 73
4
 74
0
 40
0
 40
0
 40
0
 40
0
 40
1
 40
1
 40
1
 40
1
 10
302.299994
 20
300.199984
 30
0.0
 10
302.299994
 20
300.756939
 30
0.0
 10
302.078745
 20
301.291082
 30
0.0
 10
301.684918
 20
301.684908
 30
0.0
  0
SPLINE
  5
182
100
AcDbEntity
  8
Decoupe_Ver._4
 62
1
100
AcDbSpline
 70
8
 71
3
 72
8
 73
4
 74
0
 40
0
 40
0
 40
0
 40
0
 40
1
 40
1
 40
1
 40
1
 10
301.684918
 20
301.684908
 30
0.0
 10
301.291092
 20
302.078735
 30
0.0
 10
300.756949
 20
302.299984
 30
0.0
 10
300.199994
 20
302.299984
 30
0.0
  0
LINE
  5
183
100
AcDbEntity
  8
Decoupe_Ver._4
 62
1
100
AcDbLine
 10
300.199994
 20
302.299984
 30
0.0
 11
300.199994
 21
302.299984
 31
0.0
  0
SPLINE
  5
184
100
AcDbEntity
  8
Decoupe_Ver._4
 62
1
100
AcDbSpline
 70
8
 71
3
 72
8
 73
4
 74
0
 40
0
 40
0
 40
0
 40
0
 40
1
 40
1
 40
1
 40
1
 10
325.199974
 20
302.299984
 30
0.0
 10
324.350603
 20
302.299984
 30
0.0
 10
323.584867
 20
301.788335
 30
0.0
 10
323.259827
 20
301.003619
 30
0.0
  0
SPLINE
  5
185
100
AcDbEntity
  8
Decoupe_Ver._4
 62
1
100
AcDbSpline
 70
8
 71
3
 72
8
 73
4
 74
0
 40
0
 40
0
 40
0
 40
0
 40
1
 40
1
 40
1
 40
1
 10
323.259827
 20
301.003619
 30
0.0
 10
322.934787
 20
300.218903
 30
0.0
 10
323.114454
 20
299.315656
 30
0.0
 10
323.715049
 20
298.715060
 30
0.0
  0
SPLINE
  5
186
100
AcDbEntity
  8
Decoupe_Ver._4
 62
1
100
AcDbSpline
 70
8
 71
3
 72
8
 73
4
 74
0
 40
0
 40
0
 40
0
 40
0
 40
1
 40
1
 40
1
 40
1
 10
323.715049
 20
298.715060
 30
0.0
 10
324.315645
 20
298.114464
 30
0.0
 10
325.218892
 20
297.934797
 30
0.0
 10
326.003609
 20
298.259837
 30
0.0
  0
SPLINE
  5
187
100
AcDbEntity
  8
Decoupe_Ver._4
 62
1
100
AcDbSpline
 70
8
 71
3
 72
8
 73
4
 74
0
 40
0
 40
0
 40
0
 40
0
 40
1
 40
1
 40
1
 40
1
 10
326.003609
 20
298.259837
 30
0.0
 10
326.788325
 20
298.584877
 30
0.0
 10
327.299973
 20
299.350613
 30
0.0
 10
327.299973
 20
300.199984
 30
0.0
  0
SPLINE
  5
188
100
AcDbEntity
  8
Decoupe_Ver._4
 62
1
100
AcDbSpline
 70
8
 71
3
 72
8
 73
4
 74
0
 40
0
 40
0
 40
0
 40
0
 40
1
 40
1
 40
1
 40
1
 10
327.299973
 20
300.199984
 30
0.0
 10
327.299973
 20
300.756939
 30
0.0
 10
327.078724
 20
301.291082
 30
0.0
 10
326.684898
 20
301.684908
 30
0.0
  0
SPLINE
  5
189
100
AcDbEntity
  8
Decoupe_Ver._4
 62
1
100
AcDbSpline
 70
8
 71
3
 72
8
 73
4
 74
0
 40
0
 40
0
 40
0
 40
0
 40
1
 40
1
 40
1
 40
1
 10
326.684898
 20
301.684908
 30
0.0
 10
326.291071
 20
302.078735
 30
0.0
 10
325.756928
 20
302.299984
 30
0.0
 10
325.199974
 20
302.299984
 30
0.0
  0
LINE
  5
18a
100
AcDbEntity
  8
Decoupe_Ver._4
 62
1
100
AcDbLine
 10
325.199974
 20
302.299984
 30
0.0
 11
325.199974
 21
302.299984
 31
0.0
  0
SPLINE
  5
18b
100
AcDbEntity
  8
Decoupe_Ver._4
 62
1
100
AcDbSpline
 70
8
 71
3
 72
8
 73
4
 74
0
 40
0
 40
0
 40
0
 40
0
 40
1
 40
1
 40
1
 40
1
 10
325.199974
 20
327.299983
 30
0.0
 10
324.350603
 20
327.299983
 30
0.0
 10
323.584867
 20
326.788335
 30
0.0
 10
323.259827
 20
326.003619
 30
0.0
  0
SPLINE
  5
18c
100
AcDbEntity
  8
Decoupe_Ver._4
 62
1
100
AcDbSpline
 70
8
 71
3
 72
8
 73
4
 74
0
 40
0
 40
0
 40
0
 40
0
 40
1
 40
1
 40
1
 40
1
 10
323.259827
 20
326.003619
 30
0.0
 10
322.934787
 20
325.218902
 30
0.0
 10
323.114454
 20
324.315655
 30
0.0
 10
323.715049
 20
323.715059
 30
0.0
  0
SPLINE
  5
18d
100
AcDbEntity
  8
Decoupe_Ver._4
 62
1
100
AcDbSpline
 70
8
 71
3
 72
8
 73
4
 74
0
 40
0
 40
0
 40
0
 40
0
 40
1
 40
1
 40
1
 40
1
 10
323.715049
 20
323.715059
 30
0.0
 10
324.315645
 20
323.114464
 30
0.0
 10
325.218892
 20
322.934797
 30
0.0
 10
326.003609
 20
323.259837
 30
0.0
  0
SPLINE
  5
18e
100
AcDbEntity
  8
Decoupe_Ver._4
 62
1
100
AcDbSpline
 70
8
 71
3
 72
8
 73
4
 74
0
 40
0
 40
0
 40
0
 40
0
 40
1
 40
1
 40
1
 40
1
 10
326.003609
 20
323.259837
 30
0.0
 10
326.788325
 20
323.584877
 30
0.0
 10
327.299973
 20
324.350613
 30
0.0
 10
327.299973
 20
325.199984
 30
0.0
  0
SPLINE
  5
18f
100
AcDbEntity
  8
Decoupe_Ver._4
 62
1
100
AcDbSpline
 70
8
 71
3
 72
8
 73
4
 74
0
 40
0
 40
0
 40
0
 40
0
 40
1
 40
1
 40
1
 40
1
 10
327.299973
 20
325.199984
 30
0.0
 10
327.299973
 20
325.756938
 30
0.0
 10
327.078724
 20
326.291081
 30
0.0
 10
326.684898
 20
326.684908
 30
0.0
  0
SPLINE
  5
190
100
AcDbEntity
  8
Decoupe_Ver._4
 62
1
100
AcDbSpline
 70
8
 71
3
 72
8
 73
4
 74
0
 40
0
 40
0
 40
0
 40
0
 40
1
 40
1
 40
1
 40
1
 10
326.684898
 20
326.684908
 30
0.0
 10
326.291071
 20
327.078734
 30
0.0
 10
325.756928
 20
327.299983
 30
0.0
 10
325.199974
 20
327.299983
 30
0.0
  0
LINE
  5
191
100
AcDbEntity
  8
Decoupe_Ver._4
 62
1
100
AcDbLine
 10
325.199974
 20
327.299983
 30
0.0
 11
325.199974
 21
327.299983
 31
0.0
  0
SPLINE
  5
192
100
AcDbEntity
  8
Decoupe_Ver._4
 62
1
100
AcDbSpline
 70
8
 71
3
 72
8
 73
4
 74
0
 40
0
 40
0
 40
0
 40
0
 40
1
 40
1
 40
1
 40
1
 10
350.199973
 20
302.299984
 30
0.0
 10
349.350602
 20
302.299984
 30
0.0
 10
348.584866
 20
301.788335
 30
0.0
 10
348.259826
 20
301.003619
 30
0.0
  0
SPLINE
  5
193
100
AcDbEntity
  8
Decoupe_Ver._4
 62
1
100
AcDbSpline
 70
8
 71
3
 72
8
 73
4
 74
0
 40
0
 40
0
 40
0
 40
0
 40
1
 40
1
 40
1
 40
1
 10
348.259826
 20
301.003619
 30
0.0
 10
347.934786
 20
300.218903
 30
0.0
 10
348.114453
 20
299.315656
 30
0.0
 10
348.715049
 20
298.715060
 30
0.0
  0
SPLINE
  5
194
100
AcDbEntity
  8
Decoupe_Ver._4
 62
1
100
AcDbSpline
 70
8
 71
3
 72
8
 73
4
 74
0
 40
0
 40
0
 40
0
 40
0
 40
1
 40
1
 40
1
 40
1
 10
348.715049
 20
298.715060
 30
0.0
 10
349.315645
 20
298.114464
 30
0.0
 10
350.218892
 20
297.934797
 30
0.0
 10
351.003608
 20
298.259837
 30
0.0
  0
SPLINE
  5
195
100
AcDbEntity
  8
Decoupe_Ver._4
 62
1
100
AcDbSpline
 70
8
 71
3
 72
8
 73
4
 74
0
 40
0
 40
0
 40
0
 40
0
 40
1
 40
1
 40
1
 40
1
 10
351.003608
 20
298.259837
 30
0.0
 10
351.788324
 20
298.584877
 30
0.0
 10
352.299973
 20
299.350613
 30
0.0
 10
352.299973
 20
300.199984
 30
0.0
  0
SPLINE
  5
196
100
AcDbEntity
  8
Decoupe_Ver._4
 62
1
100
AcDbSpline
 70
8
 71
3
 72
8
 73
4
 74
0
 40
0
 40
0
 40
0
 40
0
 40
1
 40
1
 40
1
 40
1
 10
352.299973
 20
300.199984
 30
0.0
 10
352.299973
 20
300.756939
 30
0.0
 10
352.078724
 20
301.291082
 30
0.0
 10
351.684897
 20
301.684908
 30
0.0
  0
SPLINE
  5
197
100
AcDbEntity
  8
Decoupe_Ver._4
 62
1
100
AcDbSpline
 70
8
 71
3
 72
8
 73
4
 74
0
 40
0
 40
0
 40
0
 40
0
 40
1
 40
1
 40
1
 40
1
 10
351.684897
 20
301.684908
 30
0.0
 10
351.291071
 20
302.078735
 30
0.0
 10
350.756928
 20
302.299984
 30
0.0
 10
350.199973
 20
302.299984
 30
0.0
  0
LINE
  5
198
100
AcDbEntity
  8
Decoupe_Ver._4
 62
1
100
AcDbLine
 10
350.199973
 20
302.299984
 30
0.0
 11
350.199973
 21
302.299984
 31
0.0
  0
SPLINE
  5
199
100
AcDbEntity
  8
Decoupe_Ver._4
 62
1
100
AcDbSpline
 70
8
 71
3
 72
8
 73
4
 74
0
 40
0
 40
0
 40
0
 40
0
 40
1
 40
1
 40
1
 40
1
 10
375.200013
 20
302.299984
 30
0.0
 10
374.350642
 20
302.299984
 30
0.0
 10
373.584906
 20
301.788335
 30
0.0
 10
373.259866
 20
301.003619
 30
0.0
  0
SPLINE
  5
19a
100
AcDbEntity
  8
Decoupe_Ver._4
 62
1
100
AcDbSpline
 70
8
 71
3
 72
8
 73
4
 74
0
 40
0
 40
0
 40
0
 40
0
 40
1
 40
1
 40
1
 40
1
 10
373.259866
 20
301.003619
 30
0.0
 10
372.934826
 20
300.218903
 30
0.0
 10
373.114493
 20
299.315656
 30
0.0
 10
373.715088
 20
298.715060
 30
0.0
  0
SPLINE
  5
19b
100
AcDbEntity
  8
Decoupe_Ver._4
 62
1
100
AcDbSpline
 70
8
 71
3
 72
8
 73
4
 74
0
 40
0
 40
0
 40
0
 40
0
 40
1
 40
1
 40
1
 40
1
 10
373.715088
 20
298.715060
 30
0.0
 10
374.315684
 20
298.114464
 30
0.0
 10
375.218931
 20
297.934797
 30
0.0
 10
376.003648
 20
298.259837
 30
0.0
  0
SPLINE
  5
19c
100
AcDbEntity
  8
Decoupe_Ver._4
 62
1
100
AcDbSpline
 70
8
 71
3
 72
8
 73
4
 74
0
 40
0
 40
0
 40
0
 40
0
 40
1
 40
1
 40
1
 40
1
 10
376.003648
 20
298.259837
 30
0.0
 10
376.788364
 20
298.584877
 30
0.0
 10
377.300012
 20
299.350613
 30
0.0
 10
377.300012
 20
300.199984
 30
0.0
  0
SPLINE
  5
19d
100
AcDbEntity
  8
Decoupe_Ver._4
 62
1
100
AcDbSpline
 70
8
 71
3
 72
8
 73
4
 74
0
 40
0
 40
0
 40
0
 40
0
 40
1
 40
1
 40
1
 40
1
 10
377.300012
 20
300.199984
 30
0.0
 10
377.300012
 20
300.756939
 30
0.0
 10
377.078763
 20
301.291082
 30
0.0
 10
376.684937
 20
301.684908
 30
0.0
  0
SPLINE
  5
19e
100
AcDbEntity
  8
Decoupe_Ver._4
 62
1
100
AcDbSpline
 70
8
 71
3
 72
8
 73
4
 74
0
 40
0
 40
0
 40
0
 40
0
 40
1
 40
1
 40
1
 40
1
 10
376.684937
 20
301.684908
 30
0.0
 10
376.291110
 20
302.078735
 30
0.0
 10
375.756967
 20
302.299984
 30
0.0
 10
375.200013
 20
302.299984
 30
0.0
  0
LINE
  5
19f
100
AcDbEntity
  8
Decoupe_Ver._4
 62
1
100
AcDbLine
 10
375.200013
 20
302.299984
 30
0.0
 11
375.200013
 21
302.299984
 31
0.0
  0
SPLINE
  5
1a0
100
AcDbEntity
  8
Decoupe_Ver._4
 62
1
100
AcDbSpline
 70
8
 71
3
 72
8
 73
4
 74
0
 40
0
 40
0
 40
0
 40
0
 40
1
 40
1
 40
1
 40
1
 10
150.199995
 20
277.299984
 30
0.0
 10
149.350624
 20
277.299984
 30
0.0
 10
148.584888
 20
276.788336
 30
0.0
 10
148.259848
 20
276.003620
 30
0.0
  0
SPLINE
  5
1a1
100
AcDbEntity
  8
Decoupe_Ver._4
 62
1
100
AcDbSpline
 70
8
 71
3
 72
8
 73
4
 74
0
 40
0
 40
0
 40
0
 40
0
 40
1
 40
1
 40
1
 40
1
 10
148.259848
 20
276.003620
 30
0.0
 10
147.934808
 20
275.218903
 30
0.0
 10
148.114475
 20
274.315656
 30
0.0
 10
148.715071
 20
273.715060
 30
0.0
  0
SPLINE
  5
1a2
100
AcDbEntity
  8
Decoupe_Ver._4
 62
1
100
AcDbSpline
 70
8
 71
3
 72
8
 73
4
 74
0
 40
0
 40
0
 40
0
 40
0
 40
1
 40
1
 40
1
 40
1
 10
148.715071
 20
273.715060
 30
0.0
 10
149.315667
 20
273.114465
 30
0.0
 10
150.218914
 20
272.934798
 30
0.0
 10
151.003630
 20
273.259838
 30
0.0
  0
SPLINE
  5
1a3
100
AcDbEntity
  8
Decoupe_Ver._4
 62
1
100
AcDbSpline
 70
8
 71
3
 72
8
 73
4
 74
0
 40
0
 40
0
 40
0
 40
0
 40
1
 40
1
 40
1
 40
1
 10
151.003630
 20
273.259838
 30
0.0
 10
151.788346
 20
273.584878
 30
0.0
 10
152.299995
 20
274.350614
 30
0.0
 10
152.299995
 20
275.199985
 30
0.0
  0
SPLINE
  5
1a4
100
AcDbEntity
  8
Decoupe_Ver._4
 62
1
100
AcDbSpline
 70
8
 71
3
 72
8
 73
4
 74
0
 40
0
 40
0
 40
0
 40
0
 40
1
 40
1
 40
1
 40
1
 10
152.299995
 20
275.199985
 30
0.0
 10
152.299995
 20
275.756939
 30
0.0
 10
152.078746
 20
276.291082
 30
0.0
 10
151.684919
 20
276.684909
 30
0.0
  0
SPLINE
  5
1a5
100
AcDbEntity
  8
Decoupe_Ver._4
 62
1
100
AcDbSpline
 70
8
 71
3
 72
8
 73
4
 74
0
 40
0
 40
0
 40
0
 40
0
 40
1
 40
1
 40
1
 40
1
 10
151.684919
 20
276.684909
 30
0.0
 10
151.291093
 20
277.078735
 30
0.0
 10
150.756950
 20
277.299984
 30
0.0
 10
150.199995
 20
277.299984
 30
0.0
  0
LINE
  5
1a6
100
AcDbEntity
  8
Decoupe_Ver._4
 62
1
100
AcDbLine
 10
150.199995
 20
277.299984
 30
0.0
 11
150.199995
 21
277.299984
 31
0.0
  0
SPLINE
  5
1a7
100
AcDbEntity
  8
Decoupe_Ver._4
 62
1
100
AcDbSpline
 70
8
 71
3
 72
8
 73
4
 74
0
 40
0
 40
0
 40
0
 40
0
 40
1
 40
1
 40
1
 40
1
 10
175.199995
 20
277.299984
 30
0.0
 10
174.350624
 20
277.299984
 30
0.0
 10
173.584888
 20
276.788336
 30
0.0
 10
173.259848
 20
276.003620
 30
0.0
  0
SPLINE
  5
1a8
100
AcDbEntity
  8
Decoupe_Ver._4
 62
1
100
AcDbSpline
 70
8
 71
3
 72
8
 73
4
 74
0
 40
0
 40
0
 40
0
 40
0
 40
1
 40
1
 40
1
 40
1
 10
173.259848
 20
276.003620
 30
0.0
 10
172.934808
 20
275.218903
 30
0.0
 10
173.114475
 20
274.315656
 30
0.0
 10
173.715070
 20
273.715060
 30
0.0
  0
SPLINE
  5
1a9
100
AcDbEntity
  8
Decoupe_Ver._4
 62
1
100
AcDbSpline
 70
8
 71
3
 72
8
 73
4
 74
0
 40
0
 40
0
 40
0
 40
0
 40
1
 40
1
 40
1
 40
1
 10
173.715070
 20
273.715060
 30
0.0
 10
174.315666
 20
273.114465
 30
0.0
 10
175.218914
 20
272.934798
 30
0.0
 10
176.003630
 20
273.259838
 30
0.0
  0
SPLINE
  5
1aa
100
AcDbEntity
  8
Decoupe_Ver._4
 62
1
100
AcDbSpline
 70
8
 71
3
 72
8
 73
4
 74
0
 40
0
 40
0
 40
0
 40
0
 40
1
 40
1
 40
1
 40
1
 10
176.003630
 20
273.259838
 30
0.0
 10
176.788346
 20
273.584878
 30
0.0
 10
177.299994
 20
274.350614
 30
0.0
 10
177.299994
 20
275.199985
 30
0.0
  0
SPLINE
  5
1ab
100
AcDbEntity
  8
Decoupe_Ver._4
 62
1
100
AcDbSpline
 70
8
 71
3
 72
8
 73
4
 74
0
 40
0
 40
0
 40
0
 40
0
 40
1
 40
1
 40
1
 40
1
 10
177.299994
 20
275.199985
 30
0.0
 10
177.299994
 20
275.756939
 30
0.0
 10
177.078745
 20
276.291082
 30
0.0
 10
176.684919
 20
276.684909
 30
0.0
  0
SPLINE
  5
1ac
100
AcDbEntity
  8
Decoupe_Ver._4
 62
1
100
AcDbSpline
 70
8
 71
3
 72
8
 73
4
 74
0
 40
0
 40
0
 40
0
 40
0
 40
1
 40
1
 40
1
 40
1
 10
176.684919
 20
276.684909
 30
0.0
 10
176.291092
 20
277.078735
 30
0.0
 10
175.756949
 20
277.299984
 30
0.0
 10
175.199995
 20
277.299984
 30
0.0
  0
LINE
  5
1ad
100
AcDbEntity
  8
Decoupe_Ver._4
 62
1
100
AcDbLine
 10
175.199995
 20
277.299984
 30
0.0
 11
175.199995
 21
277.299984
 31
0.0
  0
SPLINE
  5
1ae
100
AcDbEntity
  8
Decoupe_Ver._4
 62
1
100
AcDbSpline
 70
8
 71
3
 72
8
 73
4
 74
0
 40
0
 40
0
 40
0
 40
0
 40
1
 40
1
 40
1
 40
1
 10
200.199994
 20
277.299984
 30
0.0
 10
199.350623
 20
277.299984
 30
0.0
 10
198.584887
 20
276.788336
 30
0.0
 10
198.259847
 20
276.003620
 30
0.0
  0
SPLINE
  5
1af
100
AcDbEntity
  8
Decoupe_Ver._4
 62
1
100
AcDbSpline
 70
8
 71
3
 72
8
 73
4
 74
0
 40
0
 40
0
 40
0
 40
0
 40
1
 40
1
 40
1
 40
1
 10
198.259847
 20
276.003620
 30
0.0
 10
197.934807
 20
275.218903
 30
0.0
 10
198.114474
 20
274.315656
 30
0.0
 10
198.715070
 20
273.715060
 30
0.0
  0
SPLINE
  5
1b0
100
AcDbEntity
  8
Decoupe_Ver._4
 62
1
100
AcDbSpline
 70
8
 71
3
 72
8
 73
4
 74
0
 40
0
 40
0
 40
0
 40
0
 40
1
 40
1
 40
1
 40
1
 10
198.715070
 20
273.715060
 30
0.0
 10
199.315666
 20
273.114465
 30
0.0
 10
200.218913
 20
272.934798
 30
0.0
 10
201.003629
 20
273.259838
 30
0.0
  0
SPLINE
  5
1b1
100
AcDbEntity
  8
Decoupe_Ver._4
 62
1
100
AcDbSpline
 70
8
 71
3
 72
8
 73
4
 74
0
 40
0
 40
0
 40
0
 40
0
 40
1
 40
1
 40
1
 40
1
 10
201.003629
 20
273.259838
 30
0.0
 10
201.788345
 20
273.584878
 30
0.0
 10
202.299994
 20
274.350614
 30
0.0
 10
202.299994
 20
275.199985
 30
0.0
  0
SPLINE
  5
1b2
100
AcDbEntity
  8
Decoupe_Ver._4
 62
1
100
AcDbSpline
 70
8
 71
3
 72
8
 73
4
 74
0
 40
0
 40
0
 40
0
 40
0
 40
1
 40
1
 40
1
 40
1
 10
202.299994
 20
275.199985
 30
0.0
 10
202.299994
 20
275.756939
 30
0.0
 10
202.078745
 20
276.291082
 30
0.0
 10
201.684918
 20
276.684909
 30
0.0
  0
SPLINE
  5
1b3
100
AcDbEntity
  8
Decoupe_Ver._4
 62
1
100
AcDbSpline
 70
8
 71
3
 72
8
 73
4
 74
0
 40
0
 40
0
 40
0
 40
0
 40
1
 40
1
 40
1
 40
1
 10
201.684918
 20
276.684909
 30
0.0
 10
201.291092
 20
277.078735
 30
0.0
 10
200.756949
 20
277.299984
 30
0.0
 10
200.199994
 20
277.299984
 30
0.0
  0
LINE
  5
1b4
100
AcDbEntity
  8
Decoupe_Ver._4
 62
1
100
AcDbLine
 10
200.199994
 20
277.299984
 30
0.0
 11
200.199994
 21
277.299984
 31
0.0
  0
SPLINE
  5
1b5
100
AcDbEntity
  8
Decoupe_Ver._4
 62
1
100
AcDbSpline
 70
8
 71
3
 72
8
 73
4
 74
0
 40
0
 40
0
 40
0
 40
0
 40
1
 40
1
 40
1
 40
1
 10
225.199999
 20
277.299984
 30
0.0
 10
224.350629
 20
277.299984
 30
0.0
 10
223.584893
 20
276.788336
 30
0.0
 10
223.259853
 20
276.003620
 30
0.0
  0
SPLINE
  5
1b6
100
AcDbEntity
  8
Decoupe_Ver._4
 62
1
100
AcDbSpline
 70
8
 71
3
 72
8
 73
4
 74
0
 40
0
 40
0
 40
0
 40
0
 40
1
 40
1
 40
1
 40
1
 10
223.259853
 20
276.003620
 30
0.0
 10
222.934813
 20
275.218903
 30
0.0
 10
223.114480
 20
274.315656
 30
0.0
 10
223.715075
 20
273.715060
 30
0.0
  0
SPLINE
  5
1b7
100
AcDbEntity
  8
Decoupe_Ver._4
 62
1
100
AcDbSpline
 70
8
 71
3
 72
8
 73
4
 74
0
 40
0
 40
0
 40
0
 40
0
 40
1
 40
1
 40
1
 40
1
 10
223.715075
 20
273.715060
 30
0.0
 10
224.315671
 20
273.114465
 30
0.0
 10
225.218918
 20
272.934798
 30
0.0
 10
226.003635
 20
273.259838
 30
0.0
  0
SPLINE
  5
1b8
100
AcDbEntity
  8
Decoupe_Ver._4
 62
1
100
AcDbSpline
 70
8
 71
3
 72
8
 73
4
 74
0
 40
0
 40
0
 40
0
 40
0
 40
1
 40
1
 40
1
 40
1
 10
226.003635
 20
273.259838
 30
0.0
 10
226.788351
 20
273.584878
 30
0.0
 10
227.299999
 20
274.350614
 30
0.0
 10
227.299999
 20
275.199985
 30
0.0
  0
SPLINE
  5
1b9
100
AcDbEntity
  8
Decoupe_Ver._4
 62
1
100
AcDbSpline
 70
8
 71
3
 72
8
 73
4
 74
0
 40
0
 40
0
 40
0
 40
0
 40
1
 40
1
 40
1
 40
1
 10
227.299999
 20
275.199985
 30
0.0
 10
227.299999
 20
275.756939
 30
0.0
 10
227.078750
 20
276.291082
 30
0.0
 10
226.684924
 20
276.684909
 30
0.0
  0
SPLINE
  5
1ba
100
AcDbEntity
  8
Decoupe_Ver._4
 62
1
100
AcDbSpline
 70
8
 71
3
 72
8
 73
4
 74
0
 40
0
 40
0
 40
0
 40
0
 40
1
 40
1
 40
1
 40
1
 10
226.684924
 20
276.684909
 30
0.0
 10
226.291097
 20
277.078735
 30
0.0
 10
225.756954
 20
277.299984
 30
0.0
 10
225.199999
 20
277.299984
 30
0.0
  0
LINE
  5
1bb
100
AcDbEntity
  8
Decoupe_Ver._4
 62
1
100
AcDbLine
 10
225.199999
 20
277.299984
 30
0.0
 11
225.199999
 21
277.299984
 31
0.0
  0
SPLINE
  5
1bc
100
AcDbEntity
  8
Decoupe_Ver._4
 62
1
100
AcDbSpline
 70
8
 71
3
 72
8
 73
4
 74
0
 40
0
 40
0
 40
0
 40
0
 40
1
 40
1
 40
1
 40
1
 10
250.199995
 20
277.299984
 30
0.0
 10
249.350624
 20
277.299984
 30
0.0
 10
248.584888
 20
276.788336
 30
0.0
 10
248.259848
 20
276.003620
 30
0.0
  0
SPLINE
  5
1bd
100
AcDbEntity
  8
Decoupe_Ver._4
 62
1
100
AcDbSpline
 70
8
 71
3
 72
8
 73
4
 74
0
 40
0
 40
0
 40
0
 40
0
 40
1
 40
1
 40
1
 40
1
 10
248.259848
 20
276.003620
 30
0.0
 10
247.934808
 20
275.218903
 30
0.0
 10
248.114475
 20
274.315656
 30
0.0
 10
248.715071
 20
273.715060
 30
0.0
  0
SPLINE
  5
1be
100
AcDbEntity
  8
Decoupe_Ver._4
 62
1
100
AcDbSpline
 70
8
 71
3
 72
8
 73
4
 74
0
 40
0
 40
0
 40
0
 40
0
 40
1
 40
1
 40
1
 40
1
 10
248.715071
 20
273.715060
 30
0.0
 10
249.315667
 20
273.114465
 30
0.0
 10
250.218914
 20
272.934798
 30
0.0
 10
251.003630
 20
273.259838
 30
0.0
  0
SPLINE
  5
1bf
100
AcDbEntity
  8
Decoupe_Ver._4
 62
1
100
AcDbSpline
 70
8
 71
3
 72
8
 73
4
 74
0
 40
0
 40
0
 40
0
 40
0
 40
1
 40
1
 40
1
 40
1
 10
251.003630
 20
273.259838
 30
0.0
 10
251.788346
 20
273.584878
 30
0.0
 10
252.299995
 20
274.350614
 30
0.0
 10
252.299995
 20
275.199985
 30
0.0
  0
SPLINE
  5
1c0
100
AcDbEntity
  8
Decoupe_Ver._4
 62
1
100
AcDbSpline
 70
8
 71
3
 72
8
 73
4
 74
0
 40
0
 40
0
 40
0
 40
0
 40
1
 40
1
 40
1
 40
1
 10
252.299995
 20
275.199985
 30
0.0
 10
252.299995
 20
275.756939
 30
0.0
 10
252.078746
 20
276.291082
 30
0.0
 10
251.684919
 20
276.684909
 30
0.0
  0
SPLINE
  5
1c1
100
AcDbEntity
  8
Decoupe_Ver._4
 62
1
100
AcDbSpline
 70
8
 71
3
 72
8
 73
4
 74
0
 40
0
 40
0
 40
0
 40
0
 40
1
 40
1
 40
1
 40
1
 10
251.684919
 20
276.684909
 30
0.0
 10
251.291093
 20
277.078735
 30
0.0
 10
250.756950
 20
277.299984
 30
0.0
 10
250.199995
 20
277.299984
 30
0.0
  0
LINE
  5
1c2
100
AcDbEntity
  8
Decoupe_Ver._4
 62
1
100
AcDbLine
 10
250.199995
 20
277.299984
 30
0.0
 11
250.199995
 21
277.299984
 31
0.0
  0
SPLINE
  5
1c3
100
AcDbEntity
  8
Decoupe_Ver._4
 62
1
100
AcDbSpline
 70
8
 71
3
 72
8
 73
4
 74
0
 40
0
 40
0
 40
0
 40
0
 40
1
 40
1
 40
1
 40
1
 10
275.199995
 20
277.299984
 30
0.0
 10
274.350624
 20
277.299984
 30
0.0
 10
273.584888
 20
276.788336
 30
0.0
 10
273.259848
 20
276.003620
 30
0.0
  0
SPLINE
  5
1c4
100
AcDbEntity
  8
Decoupe_Ver._4
 62
1
100
AcDbSpline
 70
8
 71
3
 72
8
 73
4
 74
0
 40
0
 40
0
 40
0
 40
0
 40
1
 40
1
 40
1
 40
1
 10
273.259848
 20
276.003620
 30
0.0
 10
272.934808
 20
275.218903
 30
0.0
 10
273.114475
 20
274.315656
 30
0.0
 10
273.715070
 20
273.715060
 30
0.0
  0
SPLINE
  5
1c5
100
AcDbEntity
  8
Decoupe_Ver._4
 62
1
100
AcDbSpline
 70
8
 71
3
 72
8
 73
4
 74
0
 40
0
 40
0
 40
0
 40
0
 40
1
 40
1
 40
1
 40
1
 10
273.715070
 20
273.715060
 30
0.0
 10
274.315666
 20
273.114465
 30
0.0
 10
275.218913
 20
272.934798
 30
0.0
 10
276.003630
 20
273.259838
 30
0.0
  0
SPLINE
  5
1c6
100
AcDbEntity
  8
Decoupe_Ver._4
 62
1
100
AcDbSpline
 70
8
 71
3
 72
8
 73
4
 74
0
 40
0
 40
0
 40
0
 40
0
 40
1
 40
1
 40
1
 40
1
 10
276.003630
 20
273.259838
 30
0.0
 10
276.788346
 20
273.584878
 30
0.0
 10
277.299994
 20
274.350614
 30
0.0
 10
277.299994
 20
275.199985
 30
0.0
  0
SPLINE
  5
1c7
100
AcDbEntity
  8
Decoupe_Ver._4
 62
1
100
AcDbSpline
 70
8
 71
3
 72
8
 73
4
 74
0
 40
0
 40
0
 40
0
 40
0
 40
1
 40
1
 40
1
 40
1
 10
277.299994
 20
275.199985
 30
0.0
 10
277.299994
 20
275.756939
 30
0.0
 10
277.078745
 20
276.291082
 30
0.0
 10
276.684919
 20
276.684909
 30
0.0
  0
SPLINE
  5
1c8
100
AcDbEntity
  8
Decoupe_Ver._4
 62
1
100
AcDbSpline
 70
8
 71
3
 72
8
 73
4
 74
0
 40
0
 40
0
 40
0
 40
0
 40
1
 40
1
 40
1
 40
1
 10
276.684919
 20
276.684909
 30
0.0
 10
276.291092
 20
277.078735
 30
0.0
 10
275.756949
 20
277.299984
 30
0.0
 10
275.199995
 20
277.299984
 30
0.0
  0
LINE
  5
1c9
100
AcDbEntity
  8
Decoupe_Ver._4
 62
1
100
AcDbLine
 10
275.199995
 20
277.299984
 30
0.0
 11
275.199995
 21
277.299984
 31
0.0
  0
SPLINE
  5
1ca
100
AcDbEntity
  8
Decoupe_Ver._4
 62
1
100
AcDbSpline
 70
8
 71
3
 72
8
 73
4
 74
0
 40
0
 40
0
 40
0
 40
0
 40
1
 40
1
 40
1
 40
1
 10
300.199994
 20
277.299984
 30
0.0
 10
299.350623
 20
277.299984
 30
0.0
 10
298.584887
 20
276.788336
 30
0.0
 10
298.259847
 20
276.003620
 30
0.0
  0
SPLINE
  5
1cb
100
AcDbEntity
  8
Decoupe_Ver._4
 62
1
100
AcDbSpline
 70
8
 71
3
 72
8
 73
4
 74
0
 40
0
 40
0
 40
0
 40
0
 40
1
 40
1
 40
1
 40
1
 10
298.259847
 20
276.003620
 30
0.0
 10
297.934807
 20
275.218903
 30
0.0
 10
298.114474
 20
274.315656
 30
0.0
 10
298.715070
 20
273.715060
 30
0.0
  0
SPLINE
  5
1cc
100
AcDbEntity
  8
Decoupe_Ver._4
 62
1
100
AcDbSpline
 70
8
 71
3
 72
8
 73
4
 74
0
 40
0
 40
0
 40
0
 40
0
 40
1
 40
1
 40
1
 40
1
 10
298.715070
 20
273.715060
 30
0.0
 10
299.315666
 20
273.114465
 30
0.0
 10
300.218913
 20
272.934798
 30
0.0
 10
301.003629
 20
273.259838
 30
0.0
  0
SPLINE
  5
1cd
100
AcDbEntity
  8
Decoupe_Ver._4
 62
1
100
AcDbSpline
 70
8
 71
3
 72
8
 73
4
 74
0
 40
0
 40
0
 40
0
 40
0
 40
1
 40
1
 40
1
 40
1
 10
301.003629
 20
273.259838
 30
0.0
 10
301.788345
 20
273.584878
 30
0.0
 10
302.299994
 20
274.350614
 30
0.0
 10
302.299994
 20
275.199985
 30
0.0
  0
SPLINE
  5
1ce
100
AcDbEntity
  8
Decoupe_Ver._4
 62
1
100
AcDbSpline
 70
8
 71
3
 72
8
 73
4
 74
0
 40
0
 40
0
 40
0
 40
0
 40
1
 40
1
 40
1
 40
1
 10
302.299994
 20
275.199985
 30
0.0
 10
302.299994
 20
275.756939
 30
0.0
 10
302.078745
 20
276.291082
 30
0.0
 10
301.684918
 20
276.684909
 30
0.0
  0
SPLINE
  5
1cf
100
AcDbEntity
  8
Decoupe_Ver._4
 62
1
100
AcDbSpline
 70
8
 71
3
 72
8
 73
4
 74
0
 40
0
 40
0
 40
0
 40
0
 40
1
 40
1
 40
1
 40
1
 10
301.684918
 20
276.684909
 30
0.0
 10
301.291092
 20
277.078735
 30
0.0
 10
300.756949
 20
277.299984
 30
0.0
 10
300.199994
 20
277.299984
 30
0.0
  0
LINE
  5
1d0
100
AcDbEntity
  8
Decoupe_Ver._4
 62
1
100
AcDbLine
 10
300.199994
 20
277.299984
 30
0.0
 11
300.199994
 21
277.299984
 31
0.0
  0
SPLINE
  5
1d1
100
AcDbEntity
  8
Decoupe_Ver._4
 62
1
100
AcDbSpline
 70
8
 71
3
 72
8
 73
4
 74
0
 40
0
 40
0
 40
0
 40
0
 40
1
 40
1
 40
1
 40
1
 10
325.199974
 20
277.299984
 30
0.0
 10
324.350603
 20
277.299984
 30
0.0
 10
323.584867
 20
276.788336
 30
0.0
 10
323.259827
 20
276.003620
 30
0.0
  0
SPLINE
  5
1d2
100
AcDbEntity
  8
Decoupe_Ver._4
 62
1
100
AcDbSpline
 70
8
 71
3
 72
8
 73
4
 74
0
 40
0
 40
0
 40
0
 40
0
 40
1
 40
1
 40
1
 40
1
 10
323.259827
 20
276.003620
 30
0.0
 10
322.934787
 20
275.218903
 30
0.0
 10
323.114454
 20
274.315656
 30
0.0
 10
323.715049
 20
273.715060
 30
0.0
  0
SPLINE
  5
1d3
100
AcDbEntity
  8
Decoupe_Ver._4
 62
1
100
AcDbSpline
 70
8
 71
3
 72
8
 73
4
 74
0
 40
0
 40
0
 40
0
 40
0
 40
1
 40
1
 40
1
 40
1
 10
323.715049
 20
273.715060
 30
0.0
 10
324.315645
 20
273.114465
 30
0.0
 10
325.218892
 20
272.934798
 30
0.0
 10
326.003609
 20
273.259838
 30
0.0
  0
SPLINE
  5
1d4
100
AcDbEntity
  8
Decoupe_Ver._4
 62
1
100
AcDbSpline
 70
8
 71
3
 72
8
 73
4
 74
0
 40
0
 40
0
 40
0
 40
0
 40
1
 40
1
 40
1
 40
1
 10
326.003609
 20
273.259838
 30
0.0
 10
326.788325
 20
273.584878
 30
0.0
 10
327.299973
 20
274.350614
 30
0.0
 10
327.299973
 20
275.199985
 30
0.0
  0
SPLINE
  5
1d5
100
AcDbEntity
  8
Decoupe_Ver._4
 62
1
100
AcDbSpline
 70
8
 71
3
 72
8
 73
4
 74
0
 40
0
 40
0
 40
0
 40
0
 40
1
 40
1
 40
1
 40
1
 10
327.299973
 20
275.199985
 30
0.0
 10
327.299973
 20
275.756939
 30
0.0
 10
327.078724
 20
276.291082
 30
0.0
 10
326.684898
 20
276.684909
 30
0.0
  0
SPLINE
  5
1d6
100
AcDbEntity
  8
Decoupe_Ver._4
 62
1
100
AcDbSpline
 70
8
 71
3
 72
8
 73
4
 74
0
 40
0
 40
0
 40
0
 40
0
 40
1
 40
1
 40
1
 40
1
 10
326.684898
 20
276.684909
 30
0.0
 10
326.291071
 20
277.078735
 30
0.0
 10
325.756928
 20
277.299984
 30
0.0
 10
325.199974
 20
277.299984
 30
0.0
  0
LINE
  5
1d7
100
AcDbEntity
  8
Decoupe_Ver._4
 62
1
100
AcDbLine
 10
325.199974
 20
277.299984
 30
0.0
 11
325.199974
 21
277.299984
 31
0.0
  0
SPLINE
  5
1d8
100
AcDbEntity
  8
Decoupe_Ver._4
 62
1
100
AcDbSpline
 70
8
 71
3
 72
8
 73
4
 74
0
 40
0
 40
0
 40
0
 40
0
 40
1
 40
1
 40
1
 40
1
 10
350.199973
 20
277.299984
 30
0.0
 10
349.350602
 20
277.299984
 30
0.0
 10
348.584866
 20
276.788336
 30
0.0
 10
348.259826
 20
276.003620
 30
0.0
  0
SPLINE
  5
1d9
100
AcDbEntity
  8
Decoupe_Ver._4
 62
1
100
AcDbSpline
 70
8
 71
3
 72
8
 73
4
 74
0
 40
0
 40
0
 40
0
 40
0
 40
1
 40
1
 40
1
 40
1
 10
348.259826
 20
276.003620
 30
0.0
 10
347.934786
 20
275.218903
 30
0.0
 10
348.114453
 20
274.315656
 30
0.0
 10
348.715049
 20
273.715060
 30
0.0
  0
SPLINE
  5
1da
100
AcDbEntity
  8
Decoupe_Ver._4
 62
1
100
AcDbSpline
 70
8
 71
3
 72
8
 73
4
 74
0
 40
0
 40
0
 40
0
 40
0
 40
1
 40
1
 40
1
 40
1
 10
348.715049
 20
273.715060
 30
0.0
 10
349.315645
 20
273.114465
 30
0.0
 10
350.218892
 20
272.934798
 30
0.0
 10
351.003608
 20
273.259838
 30
0.0
  0
SPLINE
  5
1db
100
AcDbEntity
  8
Decoupe_Ver._4
 62
1
100
AcDbSpline
 70
8
 71
3
 72
8
 73
4
 74
0
 40
0
 40
0
 40
0
 40
0
 40
1
 40
1
 40
1
 40
1
 10
351.003608
 20
273.259838
 30
0.0
 10
351.788324
 20
273.584878
 30
0.0
 10
352.299973
 20
274.350614
 30
0.0
 10
352.299973
 20
275.199985
 30
0.0
  0
SPLINE
  5
1dc
100
AcDbEntity
  8
Decoupe_Ver._4
 62
1
100
AcDbSpline
 70
8
 71
3
 72
8
 73
4
 74
0
 40
0
 40
0
 40
0
 40
0
 40
1
 40
1
 40
1
 40
1
 10
352.299973
 20
275.199985
 30
0.0
 10
352.299973
 20
275.756939
 30
0.0
 10
352.078724
 20
276.291082
 30
0.0
 10
351.684897
 20
276.684909
 30
0.0
  0
SPLINE
  5
1dd
100
AcDbEntity
  8
Decoupe_Ver._4
 62
1
100
AcDbSpline
 70
8
 71
3
 72
8
 73
4
 74
0
 40
0
 40
0
 40
0
 40
0
 40
1
 40
1
 40
1
 40
1
 10
351.684897
 20
276.684909
 30
0.0
 10
351.291071
 20
277.078735
 30
0.0
 10
350.756928
 20
277.299984
 30
0.0
 10
350.199973
 20
277.299984
 30
0.0
  0
LINE
  5
1de
100
AcDbEntity
  8
Decoupe_Ver._4
 62
1
100
AcDbLine
 10
350.199973
 20
277.299984
 30
0.0
 11
350.199973
 21
277.299984
 31
0.0
  0
SPLINE
  5
1df
100
AcDbEntity
  8
Decoupe_Ver._4
 62
1
100
AcDbSpline
 70
8
 71
3
 72
8
 73
4
 74
0
 40
0
 40
0
 40
0
 40
0
 40
1
 40
1
 40
1
 40
1
 10
375.200013
 20
277.299984
 30
0.0
 10
374.350642
 20
277.299984
 30
0.0
 10
373.584906
 20
276.788336
 30
0.0
 10
373.259866
 20
276.003620
 30
0.0
  0
SPLINE
  5
1e0
100
AcDbEntity
  8
Decoupe_Ver._4
 62
1
100
AcDbSpline
 70
8
 71
3
 72
8
 73
4
 74
0
 40
0
 40
0
 40
0
 40
0
 40
1
 40
1
 40
1
 40
1
 10
373.259866
 20
276.003620
 30
0.0
 10
372.934826
 20
275.218903
 30
0.0
 10
373.114493
 20
274.315656
 30
0.0
 10
373.715088
 20
273.715060
 30
0.0
  0
SPLINE
  5
1e1
100
AcDbEntity
  8
Decoupe_Ver._4
 62
1
100
AcDbSpline
 70
8
 71
3
 72
8
 73
4
 74
0
 40
0
 40
0
 40
0
 40
0
 40
1
 40
1
 40
1
 40
1
 10
373.715088
 20
273.715060
 30
0.0
 10
374.315684
 20
273.114465
 30
0.0
 10
375.218931
 20
272.934798
 30
0.0
 10
376.003648
 20
273.259838
 30
0.0
  0
SPLINE
  5
1e2
100
AcDbEntity
  8
Decoupe_Ver._4
 62
1
100
AcDbSpline
 70
8
 71
3
 72
8
 73
4
 74
0
 40
0
 40
0
 40
0
 40
0
 40
1
 40
1
 40
1
 40
1
 10
376.003648
 20
273.259838
 30
0.0
 10
376.788364
 20
273.584878
 30
0.0
 10
377.300012
 20
274.350614
 30
0.0
 10
377.300012
 20
275.199985
 30
0.0
  0
SPLINE
  5
1e3
100
AcDbEntity
  8
Decoupe_Ver._4
 62
1
100
AcDbSpline
 70
8
 71
3
 72
8
 73
4
 74
0
 40
0
 40
0
 40
0
 40
0
 40
1
 40
1
 40
1
 40
1
 10
377.300012
 20
275.199985
 30
0.0
 10
377.300012
 20
275.756939
 30
0.0
 10
377.078763
 20
276.291082
 30
0.0
 10
376.684937
 20
276.684909
 30
0.0
  0
SPLINE
  5
1e4
100
AcDbEntity
  8
Decoupe_Ver._4
 62
1
100
AcDbSpline
 70
8
 71
3
 72
8
 73
4
 74
0
 40
0
 40
0
 40
0
 40
0
 40
1
 40
1
 40
1
 40
1
 10
376.684937
 20
276.684909
 30
0.0
 10
376.291110
 20
277.078735
 30
0.0
 10
375.756967
 20
277.299984
 30
0.0
 10
375.200013
 20
277.299984
 30
0.0
  0
LINE
  5
1e5
100
AcDbEntity
  8
Decoupe_Ver._4
 62
1
100
AcDbLine
 10
375.200013
 20
277.299984
 30
0.0
 11
375.200013
 21
277.299984
 31
0.0
  0
SPLINE
  5
1e6
100
AcDbEntity
  8
Decoupe_Ver._4
 62
1
100
AcDbSpline
 70
8
 71
3
 72
8
 73
4
 74
0
 40
0
 40
0
 40
0
 40
0
 40
1
 40
1
 40
1
 40
1
 10
150.199995
 20
252.299985
 30
0.0
 10
149.350624
 20
252.299985
 30
0.0
 10
148.584888
 20
251.788336
 30
0.0
 10
148.259848
 20
251.003620
 30
0.0
  0
SPLINE
  5
1e7
100
AcDbEntity
  8
Decoupe_Ver._4
 62
1
100
AcDbSpline
 70
8
 71
3
 72
8
 73
4
 74
0
 40
0
 40
0
 40
0
 40
0
 40
1
 40
1
 40
1
 40
1
 10
148.259848
 20
251.003620
 30
0.0
 10
147.934808
 20
250.218904
 30
0.0
 10
148.114475
 20
249.315657
 30
0.0
 10
148.715071
 20
248.715061
 30
0.0
  0
SPLINE
  5
1e8
100
AcDbEntity
  8
Decoupe_Ver._4
 62
1
100
AcDbSpline
 70
8
 71
3
 72
8
 73
4
 74
0
 40
0
 40
0
 40
0
 40
0
 40
1
 40
1
 40
1
 40
1
 10
148.715071
 20
248.715061
 30
0.0
 10
149.315667
 20
248.114465
 30
0.0
 10
150.218914
 20
247.934798
 30
0.0
 10
151.003630
 20
248.259838
 30
0.0
  0
SPLINE
  5
1e9
100
AcDbEntity
  8
Decoupe_Ver._4
 62
1
100
AcDbSpline
 70
8
 71
3
 72
8
 73
4
 74
0
 40
0
 40
0
 40
0
 40
0
 40
1
 40
1
 40
1
 40
1
 10
151.003630
 20
248.259838
 30
0.0
 10
151.788346
 20
248.584878
 30
0.0
 10
152.299995
 20
249.350614
 30
0.0
 10
152.299995
 20
250.199985
 30
0.0
  0
SPLINE
  5
1ea
100
AcDbEntity
  8
Decoupe_Ver._4
 62
1
100
AcDbSpline
 70
8
 71
3
 72
8
 73
4
 74
0
 40
0
 40
0
 40
0
 40
0
 40
1
 40
1
 40
1
 40
1
 10
152.299995
 20
250.199985
 30
0.0
 10
152.299995
 20
250.756940
 30
0.0
 10
152.078746
 20
251.291083
 30
0.0
 10
151.684919
 20
251.684909
 30
0.0
  0
SPLINE
  5
1eb
100
AcDbEntity
  8
Decoupe_Ver._4
 62
1
100
AcDbSpline
 70
8
 71
3
 72
8
 73
4
 74
0
 40
0
 40
0
 40
0
 40
0
 40
1
 40
1
 40
1
 40
1
 10
151.684919
 20
251.684909
 30
0.0
 10
151.291093
 20
252.078736
 30
0.0
 10
150.756950
 20
252.299985
 30
0.0
 10
150.199995
 20
252.299985
 30
0.0
  0
LINE
  5
1ec
100
AcDbEntity
  8
Decoupe_Ver._4
 62
1
100
AcDbLine
 10
150.199995
 20
252.299985
 30
0.0
 11
150.199995
 21
252.299985
 31
0.0
  0
SPLINE
  5
1ed
100
AcDbEntity
  8
Decoupe_Ver._4
 62
1
100
AcDbSpline
 70
8
 71
3
 72
8
 73
4
 74
0
 40
0
 40
0
 40
0
 40
0
 40
1
 40
1
 40
1
 40
1
 10
175.199995
 20
252.299985
 30
0.0
 10
174.350625
 20
252.299985
 30
0.0
 10
173.584888
 20
251.788336
 30
0.0
 10
173.259848
 20
251.003620
 30
0.0
  0
SPLINE
  5
1ee
100
AcDbEntity
  8
Decoupe_Ver._4
 62
1
100
AcDbSpline
 70
8
 71
3
 72
8
 73
4
 74
0
 40
0
 40
0
 40
0
 40
0
 40
1
 40
1
 40
1
 40
1
 10
173.259848
 20
251.003620
 30
0.0
 10
172.934808
 20
250.218904
 30
0.0
 10
173.114475
 20
249.315657
 30
0.0
 10
173.715071
 20
248.715061
 30
0.0
  0
SPLINE
  5
1ef
100
AcDbEntity
  8
Decoupe_Ver._4
 62
1
100
AcDbSpline
 70
8
 71
3
 72
8
 73
4
 74
0
 40
0
 40
0
 40
0
 40
0
 40
1
 40
1
 40
1
 40
1
 10
173.715071
 20
248.715061
 30
0.0
 10
174.315667
 20
248.114465
 30
0.0
 10
175.218914
 20
247.934798
 30
0.0
 10
176.003630
 20
248.259838
 30
0.0
  0
SPLINE
  5
1f0
100
AcDbEntity
  8
Decoupe_Ver._4
 62
1
100
AcDbSpline
 70
8
 71
3
 72
8
 73
4
 74
0
 40
0
 40
0
 40
0
 40
0
 40
1
 40
1
 40
1
 40
1
 10
176.003630
 20
248.259838
 30
0.0
 10
176.788347
 20
248.584878
 30
0.0
 10
177.299995
 20
249.350614
 30
0.0
 10
177.299995
 20
250.199985
 30
0.0
  0
SPLINE
  5
1f1
100
AcDbEntity
  8
Decoupe_Ver._4
 62
1
100
AcDbSpline
 70
8
 71
3
 72
8
 73
4
 74
0
 40
0
 40
0
 40
0
 40
0
 40
1
 40
1
 40
1
 40
1
 10
177.299995
 20
250.199985
 30
0.0
 10
177.299995
 20
250.756940
 30
0.0
 10
177.078746
 20
251.291083
 30
0.0
 10
176.684919
 20
251.684909
 30
0.0
  0
SPLINE
  5
1f2
100
AcDbEntity
  8
Decoupe_Ver._4
 62
1
100
AcDbSpline
 70
8
 71
3
 72
8
 73
4
 74
0
 40
0
 40
0
 40
0
 40
0
 40
1
 40
1
 40
1
 40
1
 10
176.684919
 20
251.684909
 30
0.0
 10
176.291093
 20
252.078736
 30
0.0
 10
175.756950
 20
252.299985
 30
0.0
 10
175.199995
 20
252.299985
 30
0.0
  0
LINE
  5
1f3
100
AcDbEntity
  8
Decoupe_Ver._4
 62
1
100
AcDbLine
 10
175.199995
 20
252.299985
 30
0.0
 11
175.199995
 21
252.299985
 31
0.0
  0
SPLINE
  5
1f4
100
AcDbEntity
  8
Decoupe_Ver._4
 62
1
100
AcDbSpline
 70
8
 71
3
 72
8
 73
4
 74
0
 40
0
 40
0
 40
0
 40
0
 40
1
 40
1
 40
1
 40
1
 10
200.199994
 20
252.299985
 30
0.0
 10
199.350623
 20
252.299985
 30
0.0
 10
198.584887
 20
251.788336
 30
0.0
 10
198.259847
 20
251.003620
 30
0.0
  0
SPLINE
  5
1f5
100
AcDbEntity
  8
Decoupe_Ver._4
 62
1
100
AcDbSpline
 70
8
 71
3
 72
8
 73
4
 74
0
 40
0
 40
0
 40
0
 40
0
 40
1
 40
1
 40
1
 40
1
 10
198.259847
 20
251.003620
 30
0.0
 10
197.934807
 20
250.218904
 30
0.0
 10
198.114474
 20
249.315657
 30
0.0
 10
198.715070
 20
248.715061
 30
0.0
  0
SPLINE
  5
1f6
100
AcDbEntity
  8
Decoupe_Ver._4
 62
1
100
AcDbSpline
 70
8
 71
3
 72
8
 73
4
 74
0
 40
0
 40
0
 40
0
 40
0
 40
1
 40
1
 40
1
 40
1
 10
198.715070
 20
248.715061
 30
0.0
 10
199.315666
 20
248.114465
 30
0.0
 10
200.218913
 20
247.934798
 30
0.0
 10
201.003629
 20
248.259838
 30
0.0
  0
SPLINE
  5
1f7
100
AcDbEntity
  8
Decoupe_Ver._4
 62
1
100
AcDbSpline
 70
8
 71
3
 72
8
 73
4
 74
0
 40
0
 40
0
 40
0
 40
0
 40
1
 40
1
 40
1
 40
1
 10
201.003629
 20
248.259838
 30
0.0
 10
201.788345
 20
248.584878
 30
0.0
 10
202.299994
 20
249.350614
 30
0.0
 10
202.299994
 20
250.199985
 30
0.0
  0
SPLINE
  5
1f8
100
AcDbEntity
  8
Decoupe_Ver._4
 62
1
100
AcDbSpline
 70
8
 71
3
 72
8
 73
4
 74
0
 40
0
 40
0
 40
0
 40
0
 40
1
 40
1
 40
1
 40
1
 10
202.299994
 20
250.199985
 30
0.0
 10
202.299994
 20
250.756940
 30
0.0
 10
202.078745
 20
251.291083
 30
0.0
 10
201.684918
 20
251.684909
 30
0.0
  0
SPLINE
  5
1f9
100
AcDbEntity
  8
Decoupe_Ver._4
 62
1
100
AcDbSpline
 70
8
 71
3
 72
8
 73
4
 74
0
 40
0
 40
0
 40
0
 40
0
 40
1
 40
1
 40
1
 40
1
 10
201.684918
 20
251.684909
 30
0.0
 10
201.291092
 20
252.078736
 30
0.0
 10
200.756949
 20
252.299985
 30
0.0
 10
200.199994
 20
252.299985
 30
0.0
  0
LINE
  5
1fa
100
AcDbEntity
  8
Decoupe_Ver._4
 62
1
100
AcDbLine
 10
200.199994
 20
252.299985
 30
0.0
 11
200.199994
 21
252.299985
 31
0.0
  0
SPLINE
  5
1fb
100
AcDbEntity
  8
Decoupe_Ver._4
 62
1
100
AcDbSpline
 70
8
 71
3
 72
8
 73
4
 74
0
 40
0
 40
0
 40
0
 40
0
 40
1
 40
1
 40
1
 40
1
 10
225.199995
 20
252.299985
 30
0.0
 10
224.350625
 20
252.299985
 30
0.0
 10
223.584889
 20
251.788336
 30
0.0
 10
223.259849
 20
251.003620
 30
0.0
  0
SPLINE
  5
1fc
100
AcDbEntity
  8
Decoupe_Ver._4
 62
1
100
AcDbSpline
 70
8
 71
3
 72
8
 73
4
 74
0
 40
0
 40
0
 40
0
 40
0
 40
1
 40
1
 40
1
 40
1
 10
223.259849
 20
251.003620
 30
0.0
 10
222.934809
 20
250.218904
 30
0.0
 10
223.114476
 20
249.315657
 30
0.0
 10
223.715071
 20
248.715061
 30
0.0
  0
SPLINE
  5
1fd
100
AcDbEntity
  8
Decoupe_Ver._4
 62
1
100
AcDbSpline
 70
8
 71
3
 72
8
 73
4
 74
0
 40
0
 40
0
 40
0
 40
0
 40
1
 40
1
 40
1
 40
1
 10
223.715071
 20
248.715061
 30
0.0
 10
224.315667
 20
248.114465
 30
0.0
 10
225.218914
 20
247.934798
 30
0.0
 10
226.003631
 20
248.259838
 30
0.0
  0
SPLINE
  5
1fe
100
AcDbEntity
  8
Decoupe_Ver._4
 62
1
100
AcDbSpline
 70
8
 71
3
 72
8
 73
4
 74
0
 40
0
 40
0
 40
0
 40
0
 40
1
 40
1
 40
1
 40
1
 10
226.003631
 20
248.259838
 30
0.0
 10
226.788347
 20
248.584878
 30
0.0
 10
227.299995
 20
249.350614
 30
0.0
 10
227.299995
 20
250.199985
 30
0.0
  0
SPLINE
  5
1ff
100
AcDbEntity
  8
Decoupe_Ver._4
 62
1
100
AcDbSpline
 70
8
 71
3
 72
8
 73
4
 74
0
 40
0
 40
0
 40
0
 40
0
 40
1
 40
1
 40
1
 40
1
 10
227.299995
 20
250.199985
 30
0.0
 10
227.299995
 20
250.756940
 30
0.0
 10
227.078746
 20
251.291083
 30
0.0
 10
226.684920
 20
251.684909
 30
0.0
  0
SPLINE
  5
200
100
AcDbEntity
  8
Decoupe_Ver._4
 62
1
100
AcDbSpline
 70
8
 71
3
 72
8
 73
4
 74
0
 40
0
 40
0
 40
0
 40
0
 40
1
 40
1
 40
1
 40
1
 10
226.684920
 20
251.684909
 30
0.0
 10
226.291093
 20
252.078736
 30
0.0
 10
225.756950
 20
252.299985
 30
0.0
 10
225.199995
 20
252.299985
 30
0.0
  0
LINE
  5
201
100
AcDbEntity
  8
Decoupe_Ver._4
 62
1
100
AcDbLine
 10
225.199995
 20
252.299985
 30
0.0
 11
225.199995
 21
252.299985
 31
0.0
  0
SPLINE
  5
202
100
AcDbEntity
  8
Decoupe_Ver._4
 62
1
100
AcDbSpline
 70
8
 71
3
 72
8
 73
4
 74
0
 40
0
 40
0
 40
0
 40
0
 40
1
 40
1
 40
1
 40
1
 10
250.199995
 20
252.299985
 30
0.0
 10
249.350624
 20
252.299985
 30
0.0
 10
248.584888
 20
251.788336
 30
0.0
 10
248.259848
 20
251.003620
 30
0.0
  0
SPLINE
  5
203
100
AcDbEntity
  8
Decoupe_Ver._4
 62
1
100
AcDbSpline
 70
8
 71
3
 72
8
 73
4
 74
0
 40
0
 40
0
 40
0
 40
0
 40
1
 40
1
 40
1
 40
1
 10
248.259848
 20
251.003620
 30
0.0
 10
247.934808
 20
250.218904
 30
0.0
 10
248.114475
 20
249.315657
 30
0.0
 10
248.715071
 20
248.715061
 30
0.0
  0
SPLINE
  5
204
100
AcDbEntity
  8
Decoupe_Ver._4
 62
1
100
AcDbSpline
 70
8
 71
3
 72
8
 73
4
 74
0
 40
0
 40
0
 40
0
 40
0
 40
1
 40
1
 40
1
 40
1
 10
248.715071
 20
248.715061
 30
0.0
 10
249.315667
 20
248.114465
 30
0.0
 10
250.218914
 20
247.934798
 30
0.0
 10
251.003630
 20
248.259838
 30
0.0
  0
SPLINE
  5
205
100
AcDbEntity
  8
Decoupe_Ver._4
 62
1
100
AcDbSpline
 70
8
 71
3
 72
8
 73
4
 74
0
 40
0
 40
0
 40
0
 40
0
 40
1
 40
1
 40
1
 40
1
 10
251.003630
 20
248.259838
 30
0.0
 10
251.788346
 20
248.584878
 30
0.0
 10
252.299995
 20
249.350614
 30
0.0
 10
252.299995
 20
250.199985
 30
0.0
  0
SPLINE
  5
206
100
AcDbEntity
  8
Decoupe_Ver._4
 62
1
100
AcDbSpline
 70
8
 71
3
 72
8
 73
4
 74
0
 40
0
 40
0
 40
0
 40
0
 40
1
 40
1
 40
1
 40
1
 10
252.299995
 20
250.199985
 30
0.0
 10
252.299995
 20
250.756940
 30
0.0
 10
252.078746
 20
251.291083
 30
0.0
 10
251.684919
 20
251.684909
 30
0.0
  0
SPLINE
  5
207
100
AcDbEntity
  8
Decoupe_Ver._4
 62
1
100
AcDbSpline
 70
8
 71
3
 72
8
 73
4
 74
0
 40
0
 40
0
 40
0
 40
0
 40
1
 40
1
 40
1
 40
1
 10
251.684919
 20
251.684909
 30
0.0
 10
251.291093
 20
252.078736
 30
0.0
 10
250.756950
 20
252.299985
 30
0.0
 10
250.199995
 20
252.299985
 30
0.0
  0
LINE
  5
208
100
AcDbEntity
  8
Decoupe_Ver._4
 62
1
100
AcDbLine
 10
250.199995
 20
252.299985
 30
0.0
 11
250.199995
 21
252.299985
 31
0.0
  0
SPLINE
  5
209
100
AcDbEntity
  8
Decoupe_Ver._4
 62
1
100
AcDbSpline
 70
8
 71
3
 72
8
 73
4
 74
0
 40
0
 40
0
 40
0
 40
0
 40
1
 40
1
 40
1
 40
1
 10
275.199995
 20
252.299985
 30
0.0
 10
274.350624
 20
252.299985
 30
0.0
 10
273.584888
 20
251.788336
 30
0.0
 10
273.259848
 20
251.003620
 30
0.0
  0
SPLINE
  5
20a
100
AcDbEntity
  8
Decoupe_Ver._4
 62
1
100
AcDbSpline
 70
8
 71
3
 72
8
 73
4
 74
0
 40
0
 40
0
 40
0
 40
0
 40
1
 40
1
 40
1
 40
1
 10
273.259848
 20
251.003620
 30
0.0
 10
272.934808
 20
250.218904
 30
0.0
 10
273.114475
 20
249.315657
 30
0.0
 10
273.715070
 20
248.715061
 30
0.0
  0
SPLINE
  5
20b
100
AcDbEntity
  8
Decoupe_Ver._4
 62
1
100
AcDbSpline
 70
8
 71
3
 72
8
 73
4
 74
0
 40
0
 40
0
 40
0
 40
0
 40
1
 40
1
 40
1
 40
1
 10
273.715070
 20
248.715061
 30
0.0
 10
274.315666
 20
248.114465
 30
0.0
 10
275.218913
 20
247.934798
 30
0.0
 10
276.003630
 20
248.259838
 30
0.0
  0
SPLINE
  5
20c
100
AcDbEntity
  8
Decoupe_Ver._4
 62
1
100
AcDbSpline
 70
8
 71
3
 72
8
 73
4
 74
0
 40
0
 40
0
 40
0
 40
0
 40
1
 40
1
 40
1
 40
1
 10
276.003630
 20
248.259838
 30
0.0
 10
276.788346
 20
248.584878
 30
0.0
 10
277.299994
 20
249.350614
 30
0.0
 10
277.299994
 20
250.199985
 30
0.0
  0
SPLINE
  5
20d
100
AcDbEntity
  8
Decoupe_Ver._4
 62
1
100
AcDbSpline
 70
8
 71
3
 72
8
 73
4
 74
0
 40
0
 40
0
 40
0
 40
0
 40
1
 40
1
 40
1
 40
1
 10
277.299994
 20
250.199985
 30
0.0
 10
277.299994
 20
250.756940
 30
0.0
 10
277.078745
 20
251.291083
 30
0.0
 10
276.684919
 20
251.684909
 30
0.0
  0
SPLINE
  5
20e
100
AcDbEntity
  8
Decoupe_Ver._4
 62
1
100
AcDbSpline
 70
8
 71
3
 72
8
 73
4
 74
0
 40
0
 40
0
 40
0
 40
0
 40
1
 40
1
 40
1
 40
1
 10
276.684919
 20
251.684909
 30
0.0
 10
276.291092
 20
252.078736
 30
0.0
 10
275.756949
 20
252.299985
 30
0.0
 10
275.199995
 20
252.299985
 30
0.0
  0
LINE
  5
20f
100
AcDbEntity
  8
Decoupe_Ver._4
 62
1
100
AcDbLine
 10
275.199995
 20
252.299985
 30
0.0
 11
275.199995
 21
252.299985
 31
0.0
  0
SPLINE
  5
210
100
AcDbEntity
  8
Decoupe_Ver._4
 62
1
100
AcDbSpline
 70
8
 71
3
 72
8
 73
4
 74
0
 40
0
 40
0
 40
0
 40
0
 40
1
 40
1
 40
1
 40
1
 10
300.199994
 20
252.299985
 30
0.0
 10
299.350623
 20
252.299985
 30
0.0
 10
298.584887
 20
251.788336
 30
0.0
 10
298.259847
 20
251.003620
 30
0.0
  0
SPLINE
  5
211
100
AcDbEntity
  8
Decoupe_Ver._4
 62
1
100
AcDbSpline
 70
8
 71
3
 72
8
 73
4
 74
0
 40
0
 40
0
 40
0
 40
0
 40
1
 40
1
 40
1
 40
1
 10
298.259847
 20
251.003620
 30
0.0
 10
297.934807
 20
250.218904
 30
0.0
 10
298.114474
 20
249.315657
 30
0.0
 10
298.715070
 20
248.715061
 30
0.0
  0
SPLINE
  5
212
100
AcDbEntity
  8
Decoupe_Ver._4
 62
1
100
AcDbSpline
 70
8
 71
3
 72
8
 73
4
 74
0
 40
0
 40
0
 40
0
 40
0
 40
1
 40
1
 40
1
 40
1
 10
298.715070
 20
248.715061
 30
0.0
 10
299.315666
 20
248.114465
 30
0.0
 10
300.218913
 20
247.934798
 30
0.0
 10
301.003629
 20
248.259838
 30
0.0
  0
SPLINE
  5
213
100
AcDbEntity
  8
Decoupe_Ver._4
 62
1
100
AcDbSpline
 70
8
 71
3
 72
8
 73
4
 74
0
 40
0
 40
0
 40
0
 40
0
 40
1
 40
1
 40
1
 40
1
 10
301.003629
 20
248.259838
 30
0.0
 10
301.788345
 20
248.584878
 30
0.0
 10
302.299994
 20
249.350614
 30
0.0
 10
302.299994
 20
250.199985
 30
0.0
  0
SPLINE
  5
214
100
AcDbEntity
  8
Decoupe_Ver._4
 62
1
100
AcDbSpline
 70
8
 71
3
 72
8
 73
4
 74
0
 40
0
 40
0
 40
0
 40
0
 40
1
 40
1
 40
1
 40
1
 10
302.299994
 20
250.199985
 30
0.0
 10
302.299994
 20
250.756940
 30
0.0
 10
302.078745
 20
251.291083
 30
0.0
 10
301.684918
 20
251.684909
 30
0.0
  0
SPLINE
  5
215
100
AcDbEntity
  8
Decoupe_Ver._4
 62
1
100
AcDbSpline
 70
8
 71
3
 72
8
 73
4
 74
0
 40
0
 40
0
 40
0
 40
0
 40
1
 40
1
 40
1
 40
1
 10
301.684918
 20
251.684909
 30
0.0
 10
301.291092
 20
252.078736
 30
0.0
 10
300.756949
 20
252.299985
 30
0.0
 10
300.199994
 20
252.299985
 30
0.0
  0
LINE
  5
216
100
AcDbEntity
  8
Decoupe_Ver._4
 62
1
100
AcDbLine
 10
300.199994
 20
252.299985
 30
0.0
 11
300.199994
 21
252.299985
 31
0.0
  0
SPLINE
  5
217
100
AcDbEntity
  8
Decoupe_Ver._4
 62
1
100
AcDbSpline
 70
8
 71
3
 72
8
 73
4
 74
0
 40
0
 40
0
 40
0
 40
0
 40
1
 40
1
 40
1
 40
1
 10
325.199974
 20
252.299985
 30
0.0
 10
324.350603
 20
252.299985
 30
0.0
 10
323.584867
 20
251.788336
 30
0.0
 10
323.259827
 20
251.003620
 30
0.0
  0
SPLINE
  5
218
100
AcDbEntity
  8
Decoupe_Ver._4
 62
1
100
AcDbSpline
 70
8
 71
3
 72
8
 73
4
 74
0
 40
0
 40
0
 40
0
 40
0
 40
1
 40
1
 40
1
 40
1
 10
323.259827
 20
251.003620
 30
0.0
 10
322.934787
 20
250.218904
 30
0.0
 10
323.114454
 20
249.315657
 30
0.0
 10
323.715049
 20
248.715061
 30
0.0
  0
SPLINE
  5
219
100
AcDbEntity
  8
Decoupe_Ver._4
 62
1
100
AcDbSpline
 70
8
 71
3
 72
8
 73
4
 74
0
 40
0
 40
0
 40
0
 40
0
 40
1
 40
1
 40
1
 40
1
 10
323.715049
 20
248.715061
 30
0.0
 10
324.315645
 20
248.114465
 30
0.0
 10
325.218892
 20
247.934798
 30
0.0
 10
326.003609
 20
248.259838
 30
0.0
  0
SPLINE
  5
21a
100
AcDbEntity
  8
Decoupe_Ver._4
 62
1
100
AcDbSpline
 70
8
 71
3
 72
8
 73
4
 74
0
 40
0
 40
0
 40
0
 40
0
 40
1
 40
1
 40
1
 40
1
 10
326.003609
 20
248.259838
 30
0.0
 10
326.788325
 20
248.584878
 30
0.0
 10
327.299973
 20
249.350614
 30
0.0
 10
327.299973
 20
250.199985
 30
0.0
  0
SPLINE
  5
21b
100
AcDbEntity
  8
Decoupe_Ver._4
 62
1
100
AcDbSpline
 70
8
 71
3
 72
8
 73
4
 74
0
 40
0
 40
0
 40
0
 40
0
 40
1
 40
1
 40
1
 40
1
 10
327.299973
 20
250.199985
 30
0.0
 10
327.299973
 20
250.756940
 30
0.0
 10
327.078724
 20
251.291083
 30
0.0
 10
326.684898
 20
251.684909
 30
0.0
  0
SPLINE
  5
21c
100
AcDbEntity
  8
Decoupe_Ver._4
 62
1
100
AcDbSpline
 70
8
 71
3
 72
8
 73
4
 74
0
 40
0
 40
0
 40
0
 40
0
 40
1
 40
1
 40
1
 40
1
 10
326.684898
 20
251.684909
 30
0.0
 10
326.291071
 20
252.078736
 30
0.0
 10
325.756928
 20
252.299985
 30
0.0
 10
325.199974
 20
252.299985
 30
0.0
  0
LINE
  5
21d
100
AcDbEntity
  8
Decoupe_Ver._4
 62
1
100
AcDbLine
 10
325.199974
 20
252.299985
 30
0.0
 11
325.199974
 21
252.299985
 31
0.0
  0
SPLINE
  5
21e
100
AcDbEntity
  8
Decoupe_Ver._4
 62
1
100
AcDbSpline
 70
8
 71
3
 72
8
 73
4
 74
0
 40
0
 40
0
 40
0
 40
0
 40
1
 40
1
 40
1
 40
1
 10
350.199973
 20
252.299985
 30
0.0
 10
349.350602
 20
252.299985
 30
0.0
 10
348.584866
 20
251.788336
 30
0.0
 10
348.259826
 20
251.003620
 30
0.0
  0
SPLINE
  5
21f
100
AcDbEntity
  8
Decoupe_Ver._4
 62
1
100
AcDbSpline
 70
8
 71
3
 72
8
 73
4
 74
0
 40
0
 40
0
 40
0
 40
0
 40
1
 40
1
 40
1
 40
1
 10
348.259826
 20
251.003620
 30
0.0
 10
347.934786
 20
250.218904
 30
0.0
 10
348.114453
 20
249.315657
 30
0.0
 10
348.715049
 20
248.715061
 30
0.0
  0
SPLINE
  5
220
100
AcDbEntity
  8
Decoupe_Ver._4
 62
1
100
AcDbSpline
 70
8
 71
3
 72
8
 73
4
 74
0
 40
0
 40
0
 40
0
 40
0
 40
1
 40
1
 40
1
 40
1
 10
348.715049
 20
248.715061
 30
0.0
 10
349.315645
 20
248.114465
 30
0.0
 10
350.218892
 20
247.934798
 30
0.0
 10
351.003608
 20
248.259838
 30
0.0
  0
SPLINE
  5
221
100
AcDbEntity
  8
Decoupe_Ver._4
 62
1
100
AcDbSpline
 70
8
 71
3
 72
8
 73
4
 74
0
 40
0
 40
0
 40
0
 40
0
 40
1
 40
1
 40
1
 40
1
 10
351.003608
 20
248.259838
 30
0.0
 10
351.788324
 20
248.584878
 30
0.0
 10
352.299973
 20
249.350614
 30
0.0
 10
352.299973
 20
250.199985
 30
0.0
  0
SPLINE
  5
222
100
AcDbEntity
  8
Decoupe_Ver._4
 62
1
100
AcDbSpline
 70
8
 71
3
 72
8
 73
4
 74
0
 40
0
 40
0
 40
0
 40
0
 40
1
 40
1
 40
1
 40
1
 10
352.299973
 20
250.199985
 30
0.0
 10
352.299973
 20
250.756940
 30
0.0
 10
352.078724
 20
251.291083
 30
0.0
 10
351.684897
 20
251.684909
 30
0.0
  0
SPLINE
  5
223
100
AcDbEntity
  8
Decoupe_Ver._4
 62
1
100
AcDbSpline
 70
8
 71
3
 72
8
 73
4
 74
0
 40
0
 40
0
 40
0
 40
0
 40
1
 40
1
 40
1
 40
1
 10
351.684897
 20
251.684909
 30
0.0
 10
351.291071
 20
252.078736
 30
0.0
 10
350.756928
 20
252.299985
 30
0.0
 10
350.199973
 20
252.299985
 30
0.0
  0
LINE
  5
224
100
AcDbEntity
  8
Decoupe_Ver._4
 62
1
100
AcDbLine
 10
350.199973
 20
252.299985
 30
0.0
 11
350.199973
 21
252.299985
 31
0.0
  0
SPLINE
  5
225
100
AcDbEntity
  8
Decoupe_Ver._4
 62
1
100
AcDbSpline
 70
8
 71
3
 72
8
 73
4
 74
0
 40
0
 40
0
 40
0
 40
0
 40
1
 40
1
 40
1
 40
1
 10
375.200013
 20
252.299985
 30
0.0
 10
374.350642
 20
252.299985
 30
0.0
 10
373.584906
 20
251.788336
 30
0.0
 10
373.259866
 20
251.003620
 30
0.0
  0
SPLINE
  5
226
100
AcDbEntity
  8
Decoupe_Ver._4
 62
1
100
AcDbSpline
 70
8
 71
3
 72
8
 73
4
 74
0
 40
0
 40
0
 40
0
 40
0
 40
1
 40
1
 40
1
 40
1
 10
373.259866
 20
251.003620
 30
0.0
 10
372.934826
 20
250.218904
 30
0.0
 10
373.114493
 20
249.315657
 30
0.0
 10
373.715088
 20
248.715061
 30
0.0
  0
SPLINE
  5
227
100
AcDbEntity
  8
Decoupe_Ver._4
 62
1
100
AcDbSpline
 70
8
 71
3
 72
8
 73
4
 74
0
 40
0
 40
0
 40
0
 40
0
 40
1
 40
1
 40
1
 40
1
 10
373.715088
 20
248.715061
 30
0.0
 10
374.315684
 20
248.114465
 30
0.0
 10
375.218931
 20
247.934798
 30
0.0
 10
376.003648
 20
248.259838
 30
0.0
  0
SPLINE
  5
228
100
AcDbEntity
  8
Decoupe_Ver._4
 62
1
100
AcDbSpline
 70
8
 71
3
 72
8
 73
4
 74
0
 40
0
 40
0
 40
0
 40
0
 40
1
 40
1
 40
1
 40
1
 10
376.003648
 20
248.259838
 30
0.0
 10
376.788364
 20
248.584878
 30
0.0
 10
377.300012
 20
249.350614
 30
0.0
 10
377.300012
 20
250.199985
 30
0.0
  0
SPLINE
  5
229
100
AcDbEntity
  8
Decoupe_Ver._4
 62
1
100
AcDbSpline
 70
8
 71
3
 72
8
 73
4
 74
0
 40
0
 40
0
 40
0
 40
0
 40
1
 40
1
 40
1
 40
1
 10
377.300012
 20
250.199985
 30
0.0
 10
377.300012
 20
250.756940
 30
0.0
 10
377.078763
 20
251.291083
 30
0.0
 10
376.684937
 20
251.684909
 30
0.0
  0
SPLINE
  5
22a
100
AcDbEntity
  8
Decoupe_Ver._4
 62
1
100
AcDbSpline
 70
8
 71
3
 72
8
 73
4
 74
0
 40
0
 40
0
 40
0
 40
0
 40
1
 40
1
 40
1
 40
1
 10
376.684937
 20
251.684909
 30
0.0
 10
376.291110
 20
252.078736
 30
0.0
 10
375.756967
 20
252.299985
 30
0.0
 10
375.200013
 20
252.299985
 30
0.0
  0
LINE
  5
22b
100
AcDbEntity
  8
Decoupe_Ver._4
 62
1
100
AcDbLine
 10
375.200013
 20
252.299985
 30
0.0
 11
375.200013
 21
252.299985
 31
0.0
  0
SPLINE
  5
22c
100
AcDbEntity
  8
Decoupe_Ver._4
 62
1
100
AcDbSpline
 70
8
 71
3
 72
8
 73
4
 74
0
 40
0
 40
0
 40
0
 40
0
 40
1
 40
1
 40
1
 40
1
 10
150.199997
 20
227.299985
 30
0.0
 10
149.350626
 20
227.299985
 30
0.0
 10
148.584890
 20
226.788337
 30
0.0
 10
148.259850
 20
226.003621
 30
0.0
  0
SPLINE
  5
22d
100
AcDbEntity
  8
Decoupe_Ver._4
 62
1
100
AcDbSpline
 70
8
 71
3
 72
8
 73
4
 74
0
 40
0
 40
0
 40
0
 40
0
 40
1
 40
1
 40
1
 40
1
 10
148.259850
 20
226.003621
 30
0.0
 10
147.934810
 20
225.218904
 30
0.0
 10
148.114477
 20
224.315657
 30
0.0
 10
148.715073
 20
223.715061
 30
0.0
  0
SPLINE
  5
22e
100
AcDbEntity
  8
Decoupe_Ver._4
 62
1
100
AcDbSpline
 70
8
 71
3
 72
8
 73
4
 74
0
 40
0
 40
0
 40
0
 40
0
 40
1
 40
1
 40
1
 40
1
 10
148.715073
 20
223.715061
 30
0.0
 10
149.315669
 20
223.114466
 30
0.0
 10
150.218916
 20
222.934799
 30
0.0
 10
151.003632
 20
223.259839
 30
0.0
  0
SPLINE
  5
22f
100
AcDbEntity
  8
Decoupe_Ver._4
 62
1
100
AcDbSpline
 70
8
 71
3
 72
8
 73
4
 74
0
 40
0
 40
0
 40
0
 40
0
 40
1
 40
1
 40
1
 40
1
 10
151.003632
 20
223.259839
 30
0.0
 10
151.788348
 20
223.584879
 30
0.0
 10
152.299997
 20
224.350615
 30
0.0
 10
152.299997
 20
225.199985
 30
0.0
  0
SPLINE
  5
230
100
AcDbEntity
  8
Decoupe_Ver._4
 62
1
100
AcDbSpline
 70
8
 71
3
 72
8
 73
4
 74
0
 40
0
 40
0
 40
0
 40
0
 40
1
 40
1
 40
1
 40
1
 10
152.299997
 20
225.199985
 30
0.0
 10
152.299997
 20
225.756940
 30
0.0
 10
152.078748
 20
226.291083
 30
0.0
 10
151.684921
 20
226.684910
 30
0.0
  0
SPLINE
  5
231
100
AcDbEntity
  8
Decoupe_Ver._4
 62
1
100
AcDbSpline
 70
8
 71
3
 72
8
 73
4
 74
0
 40
0
 40
0
 40
0
 40
0
 40
1
 40
1
 40
1
 40
1
 10
151.684921
 20
226.684910
 30
0.0
 10
151.291095
 20
227.078736
 30
0.0
 10
150.756952
 20
227.299985
 30
0.0
 10
150.199997
 20
227.299985
 30
0.0
  0
LINE
  5
232
100
AcDbEntity
  8
Decoupe_Ver._4
 62
1
100
AcDbLine
 10
150.199997
 20
227.299985
 30
0.0
 11
150.199997
 21
227.299985
 31
0.0
  0
SPLINE
  5
233
100
AcDbEntity
  8
Decoupe_Ver._4
 62
1
100
AcDbSpline
 70
8
 71
3
 72
8
 73
4
 74
0
 40
0
 40
0
 40
0
 40
0
 40
1
 40
1
 40
1
 40
1
 10
175.199995
 20
227.299985
 30
0.0
 10
174.350624
 20
227.299985
 30
0.0
 10
173.584888
 20
226.788337
 30
0.0
 10
173.259848
 20
226.003621
 30
0.0
  0
SPLINE
  5
234
100
AcDbEntity
  8
Decoupe_Ver._4
 62
1
100
AcDbSpline
 70
8
 71
3
 72
8
 73
4
 74
0
 40
0
 40
0
 40
0
 40
0
 40
1
 40
1
 40
1
 40
1
 10
173.259848
 20
226.003621
 30
0.0
 10
172.934808
 20
225.218904
 30
0.0
 10
173.114475
 20
224.315657
 30
0.0
 10
173.715070
 20
223.715061
 30
0.0
  0
SPLINE
  5
235
100
AcDbEntity
  8
Decoupe_Ver._4
 62
1
100
AcDbSpline
 70
8
 71
3
 72
8
 73
4
 74
0
 40
0
 40
0
 40
0
 40
0
 40
1
 40
1
 40
1
 40
1
 10
173.715070
 20
223.715061
 30
0.0
 10
174.315666
 20
223.114466
 30
0.0
 10
175.218914
 20
222.934799
 30
0.0
 10
176.003630
 20
223.259839
 30
0.0
  0
SPLINE
  5
236
100
AcDbEntity
  8
Decoupe_Ver._4
 62
1
100
AcDbSpline
 70
8
 71
3
 72
8
 73
4
 74
0
 40
0
 40
0
 40
0
 40
0
 40
1
 40
1
 40
1
 40
1
 10
176.003630
 20
223.259839
 30
0.0
 10
176.788346
 20
223.584879
 30
0.0
 10
177.299994
 20
224.350615
 30
0.0
 10
177.299994
 20
225.199985
 30
0.0
  0
SPLINE
  5
237
100
AcDbEntity
  8
Decoupe_Ver._4
 62
1
100
AcDbSpline
 70
8
 71
3
 72
8
 73
4
 74
0
 40
0
 40
0
 40
0
 40
0
 40
1
 40
1
 40
1
 40
1
 10
177.299994
 20
225.199985
 30
0.0
 10
177.299994
 20
225.756940
 30
0.0
 10
177.078745
 20
226.291083
 30
0.0
 10
176.684919
 20
226.684910
 30
0.0
  0
SPLINE
  5
238
100
AcDbEntity
  8
Decoupe_Ver._4
 62
1
100
AcDbSpline
 70
8
 71
3
 72
8
 73
4
 74
0
 40
0
 40
0
 40
0
 40
0
 40
1
 40
1
 40
1
 40
1
 10
176.684919
 20
226.684910
 30
0.0
 10
176.291092
 20
227.078736
 30
0.0
 10
175.756949
 20
227.299985
 30
0.0
 10
175.199995
 20
227.299985
 30
0.0
  0
LINE
  5
239
100
AcDbEntity
  8
Decoupe_Ver._4
 62
1
100
AcDbLine
 10
175.199995
 20
227.299985
 30
0.0
 11
175.199995
 21
227.299985
 31
0.0
  0
SPLINE
  5
23a
100
AcDbEntity
  8
Decoupe_Ver._4
 62
1
100
AcDbSpline
 70
8
 71
3
 72
8
 73
4
 74
0
 40
0
 40
0
 40
0
 40
0
 40
1
 40
1
 40
1
 40
1
 10
200.199994
 20
227.299985
 30
0.0
 10
199.350623
 20
227.299985
 30
0.0
 10
198.584887
 20
226.788337
 30
0.0
 10
198.259847
 20
226.003621
 30
0.0
  0
SPLINE
  5
23b
100
AcDbEntity
  8
Decoupe_Ver._4
 62
1
100
AcDbSpline
 70
8
 71
3
 72
8
 73
4
 74
0
 40
0
 40
0
 40
0
 40
0
 40
1
 40
1
 40
1
 40
1
 10
198.259847
 20
226.003621
 30
0.0
 10
197.934807
 20
225.218904
 30
0.0
 10
198.114474
 20
224.315657
 30
0.0
 10
198.715070
 20
223.715061
 30
0.0
  0
SPLINE
  5
23c
100
AcDbEntity
  8
Decoupe_Ver._4
 62
1
100
AcDbSpline
 70
8
 71
3
 72
8
 73
4
 74
0
 40
0
 40
0
 40
0
 40
0
 40
1
 40
1
 40
1
 40
1
 10
198.715070
 20
223.715061
 30
0.0
 10
199.315666
 20
223.114466
 30
0.0
 10
200.218913
 20
222.934799
 30
0.0
 10
201.003629
 20
223.259839
 30
0.0
  0
SPLINE
  5
23d
100
AcDbEntity
  8
Decoupe_Ver._4
 62
1
100
AcDbSpline
 70
8
 71
3
 72
8
 73
4
 74
0
 40
0
 40
0
 40
0
 40
0
 40
1
 40
1
 40
1
 40
1
 10
201.003629
 20
223.259839
 30
0.0
 10
201.788345
 20
223.584879
 30
0.0
 10
202.299994
 20
224.350615
 30
0.0
 10
202.299994
 20
225.199985
 30
0.0
  0
SPLINE
  5
23e
100
AcDbEntity
  8
Decoupe_Ver._4
 62
1
100
AcDbSpline
 70
8
 71
3
 72
8
 73
4
 74
0
 40
0
 40
0
 40
0
 40
0
 40
1
 40
1
 40
1
 40
1
 10
202.299994
 20
225.199985
 30
0.0
 10
202.299994
 20
225.756940
 30
0.0
 10
202.078745
 20
226.291083
 30
0.0
 10
201.684918
 20
226.684910
 30
0.0
  0
SPLINE
  5
23f
100
AcDbEntity
  8
Decoupe_Ver._4
 62
1
100
AcDbSpline
 70
8
 71
3
 72
8
 73
4
 74
0
 40
0
 40
0
 40
0
 40
0
 40
1
 40
1
 40
1
 40
1
 10
201.684918
 20
226.684910
 30
0.0
 10
201.291092
 20
227.078736
 30
0.0
 10
200.756949
 20
227.299985
 30
0.0
 10
200.199994
 20
227.299985
 30
0.0
  0
LINE
  5
240
100
AcDbEntity
  8
Decoupe_Ver._4
 62
1
100
AcDbLine
 10
200.199994
 20
227.299985
 30
0.0
 11
200.199994
 21
227.299985
 31
0.0
  0
SPLINE
  5
241
100
AcDbEntity
  8
Decoupe_Ver._4
 62
1
100
AcDbSpline
 70
8
 71
3
 72
8
 73
4
 74
0
 40
0
 40
0
 40
0
 40
0
 40
1
 40
1
 40
1
 40
1
 10
225.199995
 20
227.299985
 30
0.0
 10
224.350625
 20
227.299985
 30
0.0
 10
223.584889
 20
226.788337
 30
0.0
 10
223.259849
 20
226.003621
 30
0.0
  0
SPLINE
  5
242
100
AcDbEntity
  8
Decoupe_Ver._4
 62
1
100
AcDbSpline
 70
8
 71
3
 72
8
 73
4
 74
0
 40
0
 40
0
 40
0
 40
0
 40
1
 40
1
 40
1
 40
1
 10
223.259849
 20
226.003621
 30
0.0
 10
222.934809
 20
225.218904
 30
0.0
 10
223.114476
 20
224.315657
 30
0.0
 10
223.715071
 20
223.715061
 30
0.0
  0
SPLINE
  5
243
100
AcDbEntity
  8
Decoupe_Ver._4
 62
1
100
AcDbSpline
 70
8
 71
3
 72
8
 73
4
 74
0
 40
0
 40
0
 40
0
 40
0
 40
1
 40
1
 40
1
 40
1
 10
223.715071
 20
223.715061
 30
0.0
 10
224.315667
 20
223.114466
 30
0.0
 10
225.218914
 20
222.934799
 30
0.0
 10
226.003631
 20
223.259839
 30
0.0
  0
SPLINE
  5
244
100
AcDbEntity
  8
Decoupe_Ver._4
 62
1
100
AcDbSpline
 70
8
 71
3
 72
8
 73
4
 74
0
 40
0
 40
0
 40
0
 40
0
 40
1
 40
1
 40
1
 40
1
 10
226.003631
 20
223.259839
 30
0.0
 10
226.788347
 20
223.584879
 30
0.0
 10
227.299995
 20
224.350615
 30
0.0
 10
227.299995
 20
225.199985
 30
0.0
  0
SPLINE
  5
245
100
AcDbEntity
  8
Decoupe_Ver._4
 62
1
100
AcDbSpline
 70
8
 71
3
 72
8
 73
4
 74
0
 40
0
 40
0
 40
0
 40
0
 40
1
 40
1
 40
1
 40
1
 10
227.299995
 20
225.199985
 30
0.0
 10
227.299995
 20
225.756940
 30
0.0
 10
227.078746
 20
226.291083
 30
0.0
 10
226.684920
 20
226.684910
 30
0.0
  0
SPLINE
  5
246
100
AcDbEntity
  8
Decoupe_Ver._4
 62
1
100
AcDbSpline
 70
8
 71
3
 72
8
 73
4
 74
0
 40
0
 40
0
 40
0
 40
0
 40
1
 40
1
 40
1
 40
1
 10
226.684920
 20
226.684910
 30
0.0
 10
226.291093
 20
227.078736
 30
0.0
 10
225.756950
 20
227.299985
 30
0.0
 10
225.199995
 20
227.299985
 30
0.0
  0
LINE
  5
247
100
AcDbEntity
  8
Decoupe_Ver._4
 62
1
100
AcDbLine
 10
225.199995
 20
227.299985
 30
0.0
 11
225.199995
 21
227.299985
 31
0.0
  0
SPLINE
  5
248
100
AcDbEntity
  8
Decoupe_Ver._4
 62
1
100
AcDbSpline
 70
8
 71
3
 72
8
 73
4
 74
0
 40
0
 40
0
 40
0
 40
0
 40
1
 40
1
 40
1
 40
1
 10
250.199995
 20
227.299985
 30
0.0
 10
249.350624
 20
227.299985
 30
0.0
 10
248.584888
 20
226.788337
 30
0.0
 10
248.259848
 20
226.003621
 30
0.0
  0
SPLINE
  5
249
100
AcDbEntity
  8
Decoupe_Ver._4
 62
1
100
AcDbSpline
 70
8
 71
3
 72
8
 73
4
 74
0
 40
0
 40
0
 40
0
 40
0
 40
1
 40
1
 40
1
 40
1
 10
248.259848
 20
226.003621
 30
0.0
 10
247.934808
 20
225.218904
 30
0.0
 10
248.114475
 20
224.315657
 30
0.0
 10
248.715071
 20
223.715061
 30
0.0
  0
SPLINE
  5
24a
100
AcDbEntity
  8
Decoupe_Ver._4
 62
1
100
AcDbSpline
 70
8
 71
3
 72
8
 73
4
 74
0
 40
0
 40
0
 40
0
 40
0
 40
1
 40
1
 40
1
 40
1
 10
248.715071
 20
223.715061
 30
0.0
 10
249.315667
 20
223.114466
 30
0.0
 10
250.218914
 20
222.934799
 30
0.0
 10
251.003630
 20
223.259839
 30
0.0
  0
SPLINE
  5
24b
100
AcDbEntity
  8
Decoupe_Ver._4
 62
1
100
AcDbSpline
 70
8
 71
3
 72
8
 73
4
 74
0
 40
0
 40
0
 40
0
 40
0
 40
1
 40
1
 40
1
 40
1
 10
251.003630
 20
223.259839
 30
0.0
 10
251.788346
 20
223.584879
 30
0.0
 10
252.299995
 20
224.350615
 30
0.0
 10
252.299995
 20
225.199985
 30
0.0
  0
SPLINE
  5
24c
100
AcDbEntity
  8
Decoupe_Ver._4
 62
1
100
AcDbSpline
 70
8
 71
3
 72
8
 73
4
 74
0
 40
0
 40
0
 40
0
 40
0
 40
1
 40
1
 40
1
 40
1
 10
252.299995
 20
225.199985
 30
0.0
 10
252.299995
 20
225.756940
 30
0.0
 10
252.078746
 20
226.291083
 30
0.0
 10
251.684919
 20
226.684910
 30
0.0
  0
SPLINE
  5
24d
100
AcDbEntity
  8
Decoupe_Ver._4
 62
1
100
AcDbSpline
 70
8
 71
3
 72
8
 73
4
 74
0
 40
0
 40
0
 40
0
 40
0
 40
1
 40
1
 40
1
 40
1
 10
251.684919
 20
226.684910
 30
0.0
 10
251.291093
 20
227.078736
 30
0.0
 10
250.756950
 20
227.299985
 30
0.0
 10
250.199995
 20
227.299985
 30
0.0
  0
LINE
  5
24e
100
AcDbEntity
  8
Decoupe_Ver._4
 62
1
100
AcDbLine
 10
250.199995
 20
227.299985
 30
0.0
 11
250.199995
 21
227.299985
 31
0.0
  0
SPLINE
  5
24f
100
AcDbEntity
  8
Decoupe_Ver._4
 62
1
100
AcDbSpline
 70
8
 71
3
 72
8
 73
4
 74
0
 40
0
 40
0
 40
0
 40
0
 40
1
 40
1
 40
1
 40
1
 10
275.199995
 20
227.299985
 30
0.0
 10
274.350624
 20
227.299985
 30
0.0
 10
273.584888
 20
226.788337
 30
0.0
 10
273.259848
 20
226.003621
 30
0.0
  0
SPLINE
  5
250
100
AcDbEntity
  8
Decoupe_Ver._4
 62
1
100
AcDbSpline
 70
8
 71
3
 72
8
 73
4
 74
0
 40
0
 40
0
 40
0
 40
0
 40
1
 40
1
 40
1
 40
1
 10
273.259848
 20
226.003621
 30
0.0
 10
272.934808
 20
225.218904
 30
0.0
 10
273.114475
 20
224.315657
 30
0.0
 10
273.715070
 20
223.715061
 30
0.0
  0
SPLINE
  5
251
100
AcDbEntity
  8
Decoupe_Ver._4
 62
1
100
AcDbSpline
 70
8
 71
3
 72
8
 73
4
 74
0
 40
0
 40
0
 40
0
 40
0
 40
1
 40
1
 40
1
 40
1
 10
273.715070
 20
223.715061
 30
0.0
 10
274.315666
 20
223.114466
 30
0.0
 10
275.218913
 20
222.934799
 30
0.0
 10
276.003630
 20
223.259839
 30
0.0
  0
SPLINE
  5
252
100
AcDbEntity
  8
Decoupe_Ver._4
 62
1
100
AcDbSpline
 70
8
 71
3
 72
8
 73
4
 74
0
 40
0
 40
0
 40
0
 40
0
 40
1
 40
1
 40
1
 40
1
 10
276.003630
 20
223.259839
 30
0.0
 10
276.788346
 20
223.584879
 30
0.0
 10
277.299994
 20
224.350615
 30
0.0
 10
277.299994
 20
225.199985
 30
0.0
  0
SPLINE
  5
253
100
AcDbEntity
  8
Decoupe_Ver._4
 62
1
100
AcDbSpline
 70
8
 71
3
 72
8
 73
4
 74
0
 40
0
 40
0
 40
0
 40
0
 40
1
 40
1
 40
1
 40
1
 10
277.299994
 20
225.199985
 30
0.0
 10
277.299994
 20
225.756940
 30
0.0
 10
277.078745
 20
226.291083
 30
0.0
 10
276.684919
 20
226.684910
 30
0.0
  0
SPLINE
  5
254
100
AcDbEntity
  8
Decoupe_Ver._4
 62
1
100
AcDbSpline
 70
8
 71
3
 72
8
 73
4
 74
0
 40
0
 40
0
 40
0
 40
0
 40
1
 40
1
 40
1
 40
1
 10
276.684919
 20
226.684910
 30
0.0
 10
276.291092
 20
227.078736
 30
0.0
 10
275.756949
 20
227.299985
 30
0.0
 10
275.199995
 20
227.299985
 30
0.0
  0
LINE
  5
255
100
AcDbEntity
  8
Decoupe_Ver._4
 62
1
100
AcDbLine
 10
275.199995
 20
227.299985
 30
0.0
 11
275.199995
 21
227.299985
 31
0.0
  0
SPLINE
  5
256
100
AcDbEntity
  8
Decoupe_Ver._4
 62
1
100
AcDbSpline
 70
8
 71
3
 72
8
 73
4
 74
0
 40
0
 40
0
 40
0
 40
0
 40
1
 40
1
 40
1
 40
1
 10
300.199994
 20
227.299985
 30
0.0
 10
299.350623
 20
227.299985
 30
0.0
 10
298.584887
 20
226.788337
 30
0.0
 10
298.259847
 20
226.003621
 30
0.0
  0
SPLINE
  5
257
100
AcDbEntity
  8
Decoupe_Ver._4
 62
1
100
AcDbSpline
 70
8
 71
3
 72
8
 73
4
 74
0
 40
0
 40
0
 40
0
 40
0
 40
1
 40
1
 40
1
 40
1
 10
298.259847
 20
226.003621
 30
0.0
 10
297.934807
 20
225.218904
 30
0.0
 10
298.114474
 20
224.315657
 30
0.0
 10
298.715070
 20
223.715061
 30
0.0
  0
SPLINE
  5
258
100
AcDbEntity
  8
Decoupe_Ver._4
 62
1
100
AcDbSpline
 70
8
 71
3
 72
8
 73
4
 74
0
 40
0
 40
0
 40
0
 40
0
 40
1
 40
1
 40
1
 40
1
 10
298.715070
 20
223.715061
 30
0.0
 10
299.315666
 20
223.114466
 30
0.0
 10
300.218913
 20
222.934799
 30
0.0
 10
301.003629
 20
223.259839
 30
0.0
  0
SPLINE
  5
259
100
AcDbEntity
  8
Decoupe_Ver._4
 62
1
100
AcDbSpline
 70
8
 71
3
 72
8
 73
4
 74
0
 40
0
 40
0
 40
0
 40
0
 40
1
 40
1
 40
1
 40
1
 10
301.003629
 20
223.259839
 30
0.0
 10
301.788345
 20
223.584879
 30
0.0
 10
302.299994
 20
224.350615
 30
0.0
 10
302.299994
 20
225.199985
 30
0.0
  0
SPLINE
  5
25a
100
AcDbEntity
  8
Decoupe_Ver._4
 62
1
100
AcDbSpline
 70
8
 71
3
 72
8
 73
4
 74
0
 40
0
 40
0
 40
0
 40
0
 40
1
 40
1
 40
1
 40
1
 10
302.299994
 20
225.199985
 30
0.0
 10
302.299994
 20
225.756940
 30
0.0
 10
302.078745
 20
226.291083
 30
0.0
 10
301.684918
 20
226.684910
 30
0.0
  0
SPLINE
  5
25b
100
AcDbEntity
  8
Decoupe_Ver._4
 62
1
100
AcDbSpline
 70
8
 71
3
 72
8
 73
4
 74
0
 40
0
 40
0
 40
0
 40
0
 40
1
 40
1
 40
1
 40
1
 10
301.684918
 20
226.684910
 30
0.0
 10
301.291092
 20
227.078736
 30
0.0
 10
300.756949
 20
227.299985
 30
0.0
 10
300.199994
 20
227.299985
 30
0.0
  0
LINE
  5
25c
100
AcDbEntity
  8
Decoupe_Ver._4
 62
1
100
AcDbLine
 10
300.199994
 20
227.299985
 30
0.0
 11
300.199994
 21
227.299985
 31
0.0
  0
SPLINE
  5
25d
100
AcDbEntity
  8
Decoupe_Ver._4
 62
1
100
AcDbSpline
 70
8
 71
3
 72
8
 73
4
 74
0
 40
0
 40
0
 40
0
 40
0
 40
1
 40
1
 40
1
 40
1
 10
325.199974
 20
227.299985
 30
0.0
 10
324.350603
 20
227.299985
 30
0.0
 10
323.584867
 20
226.788337
 30
0.0
 10
323.259827
 20
226.003621
 30
0.0
  0
SPLINE
  5
25e
100
AcDbEntity
  8
Decoupe_Ver._4
 62
1
100
AcDbSpline
 70
8
 71
3
 72
8
 73
4
 74
0
 40
0
 40
0
 40
0
 40
0
 40
1
 40
1
 40
1
 40
1
 10
323.259827
 20
226.003621
 30
0.0
 10
322.934787
 20
225.218904
 30
0.0
 10
323.114454
 20
224.315657
 30
0.0
 10
323.715049
 20
223.715061
 30
0.0
  0
SPLINE
  5
25f
100
AcDbEntity
  8
Decoupe_Ver._4
 62
1
100
AcDbSpline
 70
8
 71
3
 72
8
 73
4
 74
0
 40
0
 40
0
 40
0
 40
0
 40
1
 40
1
 40
1
 40
1
 10
323.715049
 20
223.715061
 30
0.0
 10
324.315645
 20
223.114466
 30
0.0
 10
325.218892
 20
222.934799
 30
0.0
 10
326.003609
 20
223.259839
 30
0.0
  0
SPLINE
  5
260
100
AcDbEntity
  8
Decoupe_Ver._4
 62
1
100
AcDbSpline
 70
8
 71
3
 72
8
 73
4
 74
0
 40
0
 40
0
 40
0
 40
0
 40
1
 40
1
 40
1
 40
1
 10
326.003609
 20
223.259839
 30
0.0
 10
326.788325
 20
223.584879
 30
0.0
 10
327.299973
 20
224.350615
 30
0.0
 10
327.299973
 20
225.199985
 30
0.0
  0
SPLINE
  5
261
100
AcDbEntity
  8
Decoupe_Ver._4
 62
1
100
AcDbSpline
 70
8
 71
3
 72
8
 73
4
 74
0
 40
0
 40
0
 40
0
 40
0
 40
1
 40
1
 40
1
 40
1
 10
327.299973
 20
225.199985
 30
0.0
 10
327.299973
 20
225.756940
 30
0.0
 10
327.078724
 20
226.291083
 30
0.0
 10
326.684898
 20
226.684910
 30
0.0
  0
SPLINE
  5
262
100
AcDbEntity
  8
Decoupe_Ver._4
 62
1
100
AcDbSpline
 70
8
 71
3
 72
8
 73
4
 74
0
 40
0
 40
0
 40
0
 40
0
 40
1
 40
1
 40
1
 40
1
 10
326.684898
 20
226.684910
 30
0.0
 10
326.291071
 20
227.078736
 30
0.0
 10
325.756928
 20
227.299985
 30
0.0
 10
325.199974
 20
227.299985
 30
0.0
  0
LINE
  5
263
100
AcDbEntity
  8
Decoupe_Ver._4
 62
1
100
AcDbLine
 10
325.199974
 20
227.299985
 30
0.0
 11
325.199974
 21
227.299985
 31
0.0
  0
SPLINE
  5
264
100
AcDbEntity
  8
Decoupe_Ver._4
 62
1
100
AcDbSpline
 70
8
 71
3
 72
8
 73
4
 74
0
 40
0
 40
0
 40
0
 40
0
 40
1
 40
1
 40
1
 40
1
 10
350.199973
 20
227.299985
 30
0.0
 10
349.350602
 20
227.299985
 30
0.0
 10
348.584866
 20
226.788337
 30
0.0
 10
348.259826
 20
226.003621
 30
0.0
  0
SPLINE
  5
265
100
AcDbEntity
  8
Decoupe_Ver._4
 62
1
100
AcDbSpline
 70
8
 71
3
 72
8
 73
4
 74
0
 40
0
 40
0
 40
0
 40
0
 40
1
 40
1
 40
1
 40
1
 10
348.259826
 20
226.003621
 30
0.0
 10
347.934786
 20
225.218904
 30
0.0
 10
348.114453
 20
224.315657
 30
0.0
 10
348.715049
 20
223.715061
 30
0.0
  0
SPLINE
  5
266
100
AcDbEntity
  8
Decoupe_Ver._4
 62
1
100
AcDbSpline
 70
8
 71
3
 72
8
 73
4
 74
0
 40
0
 40
0
 40
0
 40
0
 40
1
 40
1
 40
1
 40
1
 10
348.715049
 20
223.715061
 30
0.0
 10
349.315645
 20
223.114466
 30
0.0
 10
350.218892
 20
222.934799
 30
0.0
 10
351.003608
 20
223.259839
 30
0.0
  0
SPLINE
  5
267
100
AcDbEntity
  8
Decoupe_Ver._4
 62
1
100
AcDbSpline
 70
8
 71
3
 72
8
 73
4
 74
0
 40
0
 40
0
 40
0
 40
0
 40
1
 40
1
 40
1
 40
1
 10
351.003608
 20
223.259839
 30
0.0
 10
351.788324
 20
223.584879
 30
0.0
 10
352.299973
 20
224.350615
 30
0.0
 10
352.299973
 20
225.199985
 30
0.0
  0
SPLINE
  5
268
100
AcDbEntity
  8
Decoupe_Ver._4
 62
1
100
AcDbSpline
 70
8
 71
3
 72
8
 73
4
 74
0
 40
0
 40
0
 40
0
 40
0
 40
1
 40
1
 40
1
 40
1
 10
352.299973
 20
225.199985
 30
0.0
 10
352.299973
 20
225.756940
 30
0.0
 10
352.078724
 20
226.291083
 30
0.0
 10
351.684897
 20
226.684910
 30
0.0
  0
SPLINE
  5
269
100
AcDbEntity
  8
Decoupe_Ver._4
 62
1
100
AcDbSpline
 70
8
 71
3
 72
8
 73
4
 74
0
 40
0
 40
0
 40
0
 40
0
 40
1
 40
1
 40
1
 40
1
 10
351.684897
 20
226.684910
 30
0.0
 10
351.291071
 20
227.078736
 30
0.0
 10
350.756928
 20
227.299985
 30
0.0
 10
350.199973
 20
227.299985
 30
0.0
  0
LINE
  5
26a
100
AcDbEntity
  8
Decoupe_Ver._4
 62
1
100
AcDbLine
 10
350.199973
 20
227.299985
 30
0.0
 11
350.199973
 21
227.299985
 31
0.0
  0
SPLINE
  5
26b
100
AcDbEntity
  8
Decoupe_Ver._4
 62
1
100
AcDbSpline
 70
8
 71
3
 72
8
 73
4
 74
0
 40
0
 40
0
 40
0
 40
0
 40
1
 40
1
 40
1
 40
1
 10
375.200013
 20
227.299985
 30
0.0
 10
374.350642
 20
227.299985
 30
0.0
 10
373.584906
 20
226.788337
 30
0.0
 10
373.259866
 20
226.003621
 30
0.0
  0
SPLINE
  5
26c
100
AcDbEntity
  8
Decoupe_Ver._4
 62
1
100
AcDbSpline
 70
8
 71
3
 72
8
 73
4
 74
0
 40
0
 40
0
 40
0
 40
0
 40
1
 40
1
 40
1
 40
1
 10
373.259866
 20
226.003621
 30
0.0
 10
372.934826
 20
225.218904
 30
0.0
 10
373.114493
 20
224.315657
 30
0.0
 10
373.715088
 20
223.715061
 30
0.0
  0
SPLINE
  5
26d
100
AcDbEntity
  8
Decoupe_Ver._4
 62
1
100
AcDbSpline
 70
8
 71
3
 72
8
 73
4
 74
0
 40
0
 40
0
 40
0
 40
0
 40
1
 40
1
 40
1
 40
1
 10
373.715088
 20
223.715061
 30
0.0
 10
374.315684
 20
223.114466
 30
0.0
 10
375.218931
 20
222.934799
 30
0.0
 10
376.003648
 20
223.259839
 30
0.0
  0
SPLINE
  5
26e
100
AcDbEntity
  8
Decoupe_Ver._4
 62
1
100
AcDbSpline
 70
8
 71
3
 72
8
 73
4
 74
0
 40
0
 40
0
 40
0
 40
0
 40
1
 40
1
 40
1
 40
1
 10
376.003648
 20
223.259839
 30
0.0
 10
376.788364
 20
223.584879
 30
0.0
 10
377.300012
 20
224.350615
 30
0.0
 10
377.300012
 20
225.199985
 30
0.0
  0
SPLINE
  5
26f
100
AcDbEntity
  8
Decoupe_Ver._4
 62
1
100
AcDbSpline
 70
8
 71
3
 72
8
 73
4
 74
0
 40
0
 40
0
 40
0
 40
0
 40
1
 40
1
 40
1
 40
1
 10
377.300012
 20
225.199985
 30
0.0
 10
377.300012
 20
225.756940
 30
0.0
 10
377.078763
 20
226.291083
 30
0.0
 10
376.684937
 20
226.684910
 30
0.0
  0
SPLINE
  5
270
100
AcDbEntity
  8
Decoupe_Ver._4
 62
1
100
AcDbSpline
 70
8
 71
3
 72
8
 73
4
 74
0
 40
0
 40
0
 40
0
 40
0
 40
1
 40
1
 40
1
 40
1
 10
376.684937
 20
226.684910
 30
0.0
 10
376.291110
 20
227.078736
 30
0.0
 10
375.756967
 20
227.299985
 30
0.0
 10
375.200013
 20
227.299985
 30
0.0
  0
LINE
  5
271
100
AcDbEntity
  8
Decoupe_Ver._4
 62
1
100
AcDbLine
 10
375.200013
 20
227.299985
 30
0.0
 11
375.200013
 21
227.299985
 31
0.0
  0
SPLINE
  5
272
100
AcDbEntity
  8
Decoupe_Ver._4
 62
1
100
AcDbSpline
 70
8
 71
3
 72
8
 73
4
 74
0
 40
0
 40
0
 40
0
 40
0
 40
1
 40
1
 40
1
 40
1
 10
150.199999
 20
202.299986
 30
0.0
 10
149.350628
 20
202.299986
 30
0.0
 10
148.584892
 20
201.788337
 30
0.0
 10
148.259852
 20
201.003621
 30
0.0
  0
SPLINE
  5
273
100
AcDbEntity
  8
Decoupe_Ver._4
 62
1
100
AcDbSpline
 70
8
 71
3
 72
8
 73
4
 74
0
 40
0
 40
0
 40
0
 40
0
 40
1
 40
1
 40
1
 40
1
 10
148.259852
 20
201.003621
 30
0.0
 10
147.934812
 20
200.218905
 30
0.0
 10
148.114479
 20
199.315658
 30
0.0
 10
148.715075
 20
198.715062
 30
0.0
  0
SPLINE
  5
274
100
AcDbEntity
  8
Decoupe_Ver._4
 62
1
100
AcDbSpline
 70
8
 71
3
 72
8
 73
4
 74
0
 40
0
 40
0
 40
0
 40
0
 40
1
 40
1
 40
1
 40
1
 10
148.715075
 20
198.715062
 30
0.0
 10
149.315671
 20
198.114466
 30
0.0
 10
150.218918
 20
197.934799
 30
0.0
 10
151.003634
 20
198.259839
 30
0.0
  0
SPLINE
  5
275
100
AcDbEntity
  8
Decoupe_Ver._4
 62
1
100
AcDbSpline
 70
8
 71
3
 72
8
 73
4
 74
0
 40
0
 40
0
 40
0
 40
0
 40
1
 40
1
 40
1
 40
1
 10
151.003634
 20
198.259839
 30
0.0
 10
151.788350
 20
198.584879
 30
0.0
 10
152.299999
 20
199.350615
 30
0.0
 10
152.299999
 20
200.199986
 30
0.0
  0
SPLINE
  5
276
100
AcDbEntity
  8
Decoupe_Ver._4
 62
1
100
AcDbSpline
 70
8
 71
3
 72
8
 73
4
 74
0
 40
0
 40
0
 40
0
 40
0
 40
1
 40
1
 40
1
 40
1
 10
152.299999
 20
200.199986
 30
0.0
 10
152.299999
 20
200.756941
 30
0.0
 10
152.078750
 20
201.291084
 30
0.0
 10
151.684923
 20
201.684910
 30
0.0
  0
SPLINE
  5
277
100
AcDbEntity
  8
Decoupe_Ver._4
 62
1
100
AcDbSpline
 70
8
 71
3
 72
8
 73
4
 74
0
 40
0
 40
0
 40
0
 40
0
 40
1
 40
1
 40
1
 40
1
 10
151.684923
 20
201.684910
 30
0.0
 10
151.291097
 20
202.078737
 30
0.0
 10
150.756954
 20
202.299986
 30
0.0
 10
150.199999
 20
202.299986
 30
0.0
  0
LINE
  5
278
100
AcDbEntity
  8
Decoupe_Ver._4
 62
1
100
AcDbLine
 10
150.199999
 20
202.299986
 30
0.0
 11
150.199999
 21
202.299986
 31
0.0
  0
SPLINE
  5
279
100
AcDbEntity
  8
Decoupe_Ver._4
 62
1
100
AcDbSpline
 70
8
 71
3
 72
8
 73
4
 74
0
 40
0
 40
0
 40
0
 40
0
 40
1
 40
1
 40
1
 40
1
 10
175.199999
 20
202.299986
 30
0.0
 10
174.350628
 20
202.299986
 30
0.0
 10
173.584892
 20
201.788337
 30
0.0
 10
173.259852
 20
201.003621
 30
0.0
  0
SPLINE
  5
27a
100
AcDbEntity
  8
Decoupe_Ver._4
 62
1
100
AcDbSpline
 70
8
 71
3
 72
8
 73
4
 74
0
 40
0
 40
0
 40
0
 40
0
 40
1
 40
1
 40
1
 40
1
 10
173.259852
 20
201.003621
 30
0.0
 10
172.934812
 20
200.218905
 30
0.0
 10
173.114479
 20
199.315658
 30
0.0
 10
173.715075
 20
198.715062
 30
0.0
  0
SPLINE
  5
27b
100
AcDbEntity
  8
Decoupe_Ver._4
 62
1
100
AcDbSpline
 70
8
 71
3
 72
8
 73
4
 74
0
 40
0
 40
0
 40
0
 40
0
 40
1
 40
1
 40
1
 40
1
 10
173.715075
 20
198.715062
 30
0.0
 10
174.315671
 20
198.114466
 30
0.0
 10
175.218918
 20
197.934799
 30
0.0
 10
176.003634
 20
198.259839
 30
0.0
  0
SPLINE
  5
27c
100
AcDbEntity
  8
Decoupe_Ver._4
 62
1
100
AcDbSpline
 70
8
 71
3
 72
8
 73
4
 74
0
 40
0
 40
0
 40
0
 40
0
 40
1
 40
1
 40
1
 40
1
 10
176.003634
 20
198.259839
 30
0.0
 10
176.788350
 20
198.584879
 30
0.0
 10
177.299999
 20
199.350615
 30
0.0
 10
177.299999
 20
200.199986
 30
0.0
  0
SPLINE
  5
27d
100
AcDbEntity
  8
Decoupe_Ver._4
 62
1
100
AcDbSpline
 70
8
 71
3
 72
8
 73
4
 74
0
 40
0
 40
0
 40
0
 40
0
 40
1
 40
1
 40
1
 40
1
 10
177.299999
 20
200.199986
 30
0.0
 10
177.299999
 20
201.359784
 30
0.0
 10
176.359797
 20
202.299986
 30
0.0
 10
175.199999
 20
202.299986
 30
0.0
  0
LINE
  5
27e
100
AcDbEntity
  8
Decoupe_Ver._4
 62
1
100
AcDbLine
 10
175.199999
 20
202.299986
 30
0.0
 11
175.199999
 21
202.299986
 31
0.0
  0
SPLINE
  5
27f
100
AcDbEntity
  8
Decoupe_Ver._4
 62
1
100
AcDbSpline
 70
8
 71
3
 72
8
 73
4
 74
0
 40
0
 40
0
 40
0
 40
0
 40
1
 40
1
 40
1
 40
1
 10
200.199998
 20
202.299986
 30
0.0
 10
199.350627
 20
202.299986
 30
0.0
 10
198.584891
 20
201.788337
 30
0.0
 10
198.259851
 20
201.003621
 30
0.0
  0
SPLINE
  5
280
100
AcDbEntity
  8
Decoupe_Ver._4
 62
1
100
AcDbSpline
 70
8
 71
3
 72
8
 73
4
 74
0
 40
0
 40
0
 40
0
 40
0
 40
1
 40
1
 40
1
 40
1
 10
198.259851
 20
201.003621
 30
0.0
 10
197.934811
 20
200.218905
 30
0.0
 10
198.114478
 20
199.315658
 30
0.0
 10
198.715074
 20
198.715062
 30
0.0
  0
SPLINE
  5
281
100
AcDbEntity
  8
Decoupe_Ver._4
 62
1
100
AcDbSpline
 70
8
 71
3
 72
8
 73
4
 74
0
 40
0
 40
0
 40
0
 40
0
 40
1
 40
1
 40
1
 40
1
 10
198.715074
 20
198.715062
 30
0.0
 10
199.315670
 20
198.114466
 30
0.0
 10
200.218917
 20
197.934799
 30
0.0
 10
201.003633
 20
198.259839
 30
0.0
  0
SPLINE
  5
282
100
AcDbEntity
  8
Decoupe_Ver._4
 62
1
100
AcDbSpline
 70
8
 71
3
 72
8
 73
4
 74
0
 40
0
 40
0
 40
0
 40
0
 40
1
 40
1
 40
1
 40
1
 10
201.003633
 20
198.259839
 30
0.0
 10
201.788349
 20
198.584879
 30
0.0
 10
202.299998
 20
199.350615
 30
0.0
 10
202.299998
 20
200.199986
 30
0.0
  0
SPLINE
  5
283
100
AcDbEntity
  8
Decoupe_Ver._4
 62
1
100
AcDbSpline
 70
8
 71
3
 72
8
 73
4
 74
0
 40
0
 40
0
 40
0
 40
0
 40
1
 40
1
 40
1
 40
1
 10
202.299998
 20
200.199986
 30
0.0
 10
202.299998
 20
200.756941
 30
0.0
 10
202.078749
 20
201.291084
 30
0.0
 10
201.684922
 20
201.684910
 30
0.0
  0
SPLINE
  5
284
100
AcDbEntity
  8
Decoupe_Ver._4
 62
1
100
AcDbSpline
 70
8
 71
3
 72
8
 73
4
 74
0
 40
0
 40
0
 40
0
 40
0
 40
1
 40
1
 40
1
 40
1
 10
201.684922
 20
201.684910
 30
0.0
 10
201.291096
 20
202.078737
 30
0.0
 10
200.756953
 20
202.299986
 30
0.0
 10
200.199998
 20
202.299986
 30
0.0
  0
LINE
  5
285
100
AcDbEntity
  8
Decoupe_Ver._4
 62
1
100
AcDbLine
 10
200.199998
 20
202.299986
 30
0.0
 11
200.199998
 21
202.299986
 31
0.0
  0
SPLINE
  5
286
100
AcDbEntity
  8
Decoupe_Ver._4
 62
1
100
AcDbSpline
 70
8
 71
3
 72
8
 73
4
 74
0
 40
0
 40
0
 40
0
 40
0
 40
1
 40
1
 40
1
 40
1
 10
225.199999
 20
202.299986
 30
0.0
 10
224.350629
 20
202.299986
 30
0.0
 10
223.584893
 20
201.788337
 30
0.0
 10
223.259853
 20
201.003621
 30
0.0
  0
SPLINE
  5
287
100
AcDbEntity
  8
Decoupe_Ver._4
 62
1
100
AcDbSpline
 70
8
 71
3
 72
8
 73
4
 74
0
 40
0
 40
0
 40
0
 40
0
 40
1
 40
1
 40
1
 40
1
 10
223.259853
 20
201.003621
 30
0.0
 10
222.934813
 20
200.218905
 30
0.0
 10
223.114480
 20
199.315658
 30
0.0
 10
223.715075
 20
198.715062
 30
0.0
  0
SPLINE
  5
288
100
AcDbEntity
  8
Decoupe_Ver._4
 62
1
100
AcDbSpline
 70
8
 71
3
 72
8
 73
4
 74
0
 40
0
 40
0
 40
0
 40
0
 40
1
 40
1
 40
1
 40
1
 10
223.715075
 20
198.715062
 30
0.0
 10
224.315671
 20
198.114466
 30
0.0
 10
225.218918
 20
197.934799
 30
0.0
 10
226.003635
 20
198.259839
 30
0.0
  0
SPLINE
  5
289
100
AcDbEntity
  8
Decoupe_Ver._4
 62
1
100
AcDbSpline
 70
8
 71
3
 72
8
 73
4
 74
0
 40
0
 40
0
 40
0
 40
0
 40
1
 40
1
 40
1
 40
1
 10
226.003635
 20
198.259839
 30
0.0
 10
226.788351
 20
198.584879
 30
0.0
 10
227.299999
 20
199.350615
 30
0.0
 10
227.299999
 20
200.199986
 30
0.0
  0
SPLINE
  5
28a
100
AcDbEntity
  8
Decoupe_Ver._4
 62
1
100
AcDbSpline
 70
8
 71
3
 72
8
 73
4
 74
0
 40
0
 40
0
 40
0
 40
0
 40
1
 40
1
 40
1
 40
1
 10
227.299999
 20
200.199986
 30
0.0
 10
227.299999
 20
200.756941
 30
0.0
 10
227.078750
 20
201.291084
 30
0.0
 10
226.684924
 20
201.684910
 30
0.0
  0
SPLINE
  5
28b
100
AcDbEntity
  8
Decoupe_Ver._4
 62
1
100
AcDbSpline
 70
8
 71
3
 72
8
 73
4
 74
0
 40
0
 40
0
 40
0
 40
0
 40
1
 40
1
 40
1
 40
1
 10
226.684924
 20
201.684910
 30
0.0
 10
226.291097
 20
202.078737
 30
0.0
 10
225.756954
 20
202.299986
 30
0.0
 10
225.199999
 20
202.299986
 30
0.0
  0
LINE
  5
28c
100
AcDbEntity
  8
Decoupe_Ver._4
 62
1
100
AcDbLine
 10
225.199999
 20
202.299986
 30
0.0
 11
225.199999
 21
202.299986
 31
0.0
  0
SPLINE
  5
28d
100
AcDbEntity
  8
Decoupe_Ver._4
 62
1
100
AcDbSpline
 70
8
 71
3
 72
8
 73
4
 74
0
 40
0
 40
0
 40
0
 40
0
 40
1
 40
1
 40
1
 40
1
 10
250.199995
 20
202.299986
 30
0.0
 10
249.350624
 20
202.299986
 30
0.0
 10
248.584888
 20
201.788337
 30
0.0
 10
248.259848
 20
201.003621
 30
0.0
  0
SPLINE
  5
28e
100
AcDbEntity
  8
Decoupe_Ver._4
 62
1
100
AcDbSpline
 70
8
 71
3
 72
8
 73
4
 74
0
 40
0
 40
0
 40
0
 40
0
 40
1
 40
1
 40
1
 40
1
 10
248.259848
 20
201.003621
 30
0.0
 10
247.934808
 20
200.218905
 30
0.0
 10
248.114475
 20
199.315658
 30
0.0
 10
248.715071
 20
198.715062
 30
0.0
  0
SPLINE
  5
28f
100
AcDbEntity
  8
Decoupe_Ver._4
 62
1
100
AcDbSpline
 70
8
 71
3
 72
8
 73
4
 74
0
 40
0
 40
0
 40
0
 40
0
 40
1
 40
1
 40
1
 40
1
 10
248.715071
 20
198.715062
 30
0.0
 10
249.315667
 20
198.114466
 30
0.0
 10
250.218914
 20
197.934799
 30
0.0
 10
251.003630
 20
198.259839
 30
0.0
  0
SPLINE
  5
290
100
AcDbEntity
  8
Decoupe_Ver._4
 62
1
100
AcDbSpline
 70
8
 71
3
 72
8
 73
4
 74
0
 40
0
 40
0
 40
0
 40
0
 40
1
 40
1
 40
1
 40
1
 10
251.003630
 20
198.259839
 30
0.0
 10
251.788346
 20
198.584879
 30
0.0
 10
252.299995
 20
199.350615
 30
0.0
 10
252.299995
 20
200.199986
 30
0.0
  0
SPLINE
  5
291
100
AcDbEntity
  8
Decoupe_Ver._4
 62
1
100
AcDbSpline
 70
8
 71
3
 72
8
 73
4
 74
0
 40
0
 40
0
 40
0
 40
0
 40
1
 40
1
 40
1
 40
1
 10
252.299995
 20
200.199986
 30
0.0
 10
252.299995
 20
200.756941
 30
0.0
 10
252.078746
 20
201.291084
 30
0.0
 10
251.684919
 20
201.684910
 30
0.0
  0
SPLINE
  5
292
100
AcDbEntity
  8
Decoupe_Ver._4
 62
1
100
AcDbSpline
 70
8
 71
3
 72
8
 73
4
 74
0
 40
0
 40
0
 40
0
 40
0
 40
1
 40
1
 40
1
 40
1
 10
251.684919
 20
201.684910
 30
0.0
 10
251.291093
 20
202.078737
 30
0.0
 10
250.756950
 20
202.299986
 30
0.0
 10
250.199995
 20
202.299986
 30
0.0
  0
LINE
  5
293
100
AcDbEntity
  8
Decoupe_Ver._4
 62
1
100
AcDbLine
 10
250.199995
 20
202.299986
 30
0.0
 11
250.199995
 21
202.299986
 31
0.0
  0
SPLINE
  5
294
100
AcDbEntity
  8
Decoupe_Ver._4
 62
1
100
AcDbSpline
 70
8
 71
3
 72
8
 73
4
 74
0
 40
0
 40
0
 40
0
 40
0
 40
1
 40
1
 40
1
 40
1
 10
275.199995
 20
202.299986
 30
0.0
 10
274.350624
 20
202.299986
 30
0.0
 10
273.584888
 20
201.788337
 30
0.0
 10
273.259848
 20
201.003621
 30
0.0
  0
SPLINE
  5
295
100
AcDbEntity
  8
Decoupe_Ver._4
 62
1
100
AcDbSpline
 70
8
 71
3
 72
8
 73
4
 74
0
 40
0
 40
0
 40
0
 40
0
 40
1
 40
1
 40
1
 40
1
 10
273.259848
 20
201.003621
 30
0.0
 10
272.934808
 20
200.218905
 30
0.0
 10
273.114475
 20
199.315658
 30
0.0
 10
273.715070
 20
198.715062
 30
0.0
  0
SPLINE
  5
296
100
AcDbEntity
  8
Decoupe_Ver._4
 62
1
100
AcDbSpline
 70
8
 71
3
 72
8
 73
4
 74
0
 40
0
 40
0
 40
0
 40
0
 40
1
 40
1
 40
1
 40
1
 10
273.715070
 20
198.715062
 30
0.0
 10
274.315666
 20
198.114466
 30
0.0
 10
275.218913
 20
197.934799
 30
0.0
 10
276.003630
 20
198.259839
 30
0.0
  0
SPLINE
  5
297
100
AcDbEntity
  8
Decoupe_Ver._4
 62
1
100
AcDbSpline
 70
8
 71
3
 72
8
 73
4
 74
0
 40
0
 40
0
 40
0
 40
0
 40
1
 40
1
 40
1
 40
1
 10
276.003630
 20
198.259839
 30
0.0
 10
276.788346
 20
198.584879
 30
0.0
 10
277.299994
 20
199.350615
 30
0.0
 10
277.299994
 20
200.199986
 30
0.0
  0
SPLINE
  5
298
100
AcDbEntity
  8
Decoupe_Ver._4
 62
1
100
AcDbSpline
 70
8
 71
3
 72
8
 73
4
 74
0
 40
0
 40
0
 40
0
 40
0
 40
1
 40
1
 40
1
 40
1
 10
277.299994
 20
200.199986
 30
0.0
 10
277.299994
 20
200.756941
 30
0.0
 10
277.078745
 20
201.291084
 30
0.0
 10
276.684919
 20
201.684910
 30
0.0
  0
SPLINE
  5
299
100
AcDbEntity
  8
Decoupe_Ver._4
 62
1
100
AcDbSpline
 70
8
 71
3
 72
8
 73
4
 74
0
 40
0
 40
0
 40
0
 40
0
 40
1
 40
1
 40
1
 40
1
 10
276.684919
 20
201.684910
 30
0.0
 10
276.291092
 20
202.078737
 30
0.0
 10
275.756949
 20
202.299986
 30
0.0
 10
275.199995
 20
202.299986
 30
0.0
  0
LINE
  5
29a
100
AcDbEntity
  8
Decoupe_Ver._4
 62
1
100
AcDbLine
 10
275.199995
 20
202.299986
 30
0.0
 11
275.199995
 21
202.299986
 31
0.0
  0
SPLINE
  5
29b
100
AcDbEntity
  8
Decoupe_Ver._4
 62
1
100
AcDbSpline
 70
8
 71
3
 72
8
 73
4
 74
0
 40
0
 40
0
 40
0
 40
0
 40
1
 40
1
 40
1
 40
1
 10
300.199994
 20
202.299986
 30
0.0
 10
299.350623
 20
202.299986
 30
0.0
 10
298.584887
 20
201.788337
 30
0.0
 10
298.259847
 20
201.003621
 30
0.0
  0
SPLINE
  5
29c
100
AcDbEntity
  8
Decoupe_Ver._4
 62
1
100
AcDbSpline
 70
8
 71
3
 72
8
 73
4
 74
0
 40
0
 40
0
 40
0
 40
0
 40
1
 40
1
 40
1
 40
1
 10
298.259847
 20
201.003621
 30
0.0
 10
297.934807
 20
200.218905
 30
0.0
 10
298.114474
 20
199.315658
 30
0.0
 10
298.715070
 20
198.715062
 30
0.0
  0
SPLINE
  5
29d
100
AcDbEntity
  8
Decoupe_Ver._4
 62
1
100
AcDbSpline
 70
8
 71
3
 72
8
 73
4
 74
0
 40
0
 40
0
 40
0
 40
0
 40
1
 40
1
 40
1
 40
1
 10
298.715070
 20
198.715062
 30
0.0
 10
299.315666
 20
198.114466
 30
0.0
 10
300.218913
 20
197.934799
 30
0.0
 10
301.003629
 20
198.259839
 30
0.0
  0
SPLINE
  5
29e
100
AcDbEntity
  8
Decoupe_Ver._4
 62
1
100
AcDbSpline
 70
8
 71
3
 72
8
 73
4
 74
0
 40
0
 40
0
 40
0
 40
0
 40
1
 40
1
 40
1
 40
1
 10
301.003629
 20
198.259839
 30
0.0
 10
301.788345
 20
198.584879
 30
0.0
 10
302.299994
 20
199.350615
 30
0.0
 10
302.299994
 20
200.199986
 30
0.0
  0
SPLINE
  5
29f
100
AcDbEntity
  8
Decoupe_Ver._4
 62
1
100
AcDbSpline
 70
8
 71
3
 72
8
 73
4
 74
0
 40
0
 40
0
 40
0
 40
0
 40
1
 40
1
 40
1
 40
1
 10
302.299994
 20
200.199986
 30
0.0
 10
302.299994
 20
200.756941
 30
0.0
 10
302.078745
 20
201.291084
 30
0.0
 10
301.684918
 20
201.684910
 30
0.0
  0
SPLINE
  5
2a0
100
AcDbEntity
  8
Decoupe_Ver._4
 62
1
100
AcDbSpline
 70
8
 71
3
 72
8
 73
4
 74
0
 40
0
 40
0
 40
0
 40
0
 40
1
 40
1
 40
1
 40
1
 10
301.684918
 20
201.684910
 30
0.0
 10
301.291092
 20
202.078737
 30
0.0
 10
300.756949
 20
202.299986
 30
0.0
 10
300.199994
 20
202.299986
 30
0.0
  0
LINE
  5
2a1
100
AcDbEntity
  8
Decoupe_Ver._4
 62
1
100
AcDbLine
 10
300.199994
 20
202.299986
 30
0.0
 11
300.199994
 21
202.299986
 31
0.0
  0
SPLINE
  5
2a2
100
AcDbEntity
  8
Decoupe_Ver._4
 62
1
100
AcDbSpline
 70
8
 71
3
 72
8
 73
4
 74
0
 40
0
 40
0
 40
0
 40
0
 40
1
 40
1
 40
1
 40
1
 10
325.199974
 20
202.299986
 30
0.0
 10
324.350603
 20
202.299986
 30
0.0
 10
323.584867
 20
201.788337
 30
0.0
 10
323.259827
 20
201.003621
 30
0.0
  0
SPLINE
  5
2a3
100
AcDbEntity
  8
Decoupe_Ver._4
 62
1
100
AcDbSpline
 70
8
 71
3
 72
8
 73
4
 74
0
 40
0
 40
0
 40
0
 40
0
 40
1
 40
1
 40
1
 40
1
 10
323.259827
 20
201.003621
 30
0.0
 10
322.934787
 20
200.218905
 30
0.0
 10
323.114454
 20
199.315658
 30
0.0
 10
323.715049
 20
198.715062
 30
0.0
  0
SPLINE
  5
2a4
100
AcDbEntity
  8
Decoupe_Ver._4
 62
1
100
AcDbSpline
 70
8
 71
3
 72
8
 73
4
 74
0
 40
0
 40
0
 40
0
 40
0
 40
1
 40
1
 40
1
 40
1
 10
323.715049
 20
198.715062
 30
0.0
 10
324.315645
 20
198.114466
 30
0.0
 10
325.218892
 20
197.934799
 30
0.0
 10
326.003609
 20
198.259839
 30
0.0
  0
SPLINE
  5
2a5
100
AcDbEntity
  8
Decoupe_Ver._4
 62
1
100
AcDbSpline
 70
8
 71
3
 72
8
 73
4
 74
0
 40
0
 40
0
 40
0
 40
0
 40
1
 40
1
 40
1
 40
1
 10
326.003609
 20
198.259839
 30
0.0
 10
326.788325
 20
198.584879
 30
0.0
 10
327.299973
 20
199.350615
 30
0.0
 10
327.299973
 20
200.199986
 30
0.0
  0
SPLINE
  5
2a6
100
AcDbEntity
  8
Decoupe_Ver._4
 62
1
100
AcDbSpline
 70
8
 71
3
 72
8
 73
4
 74
0
 40
0
 40
0
 40
0
 40
0
 40
1
 40
1
 40
1
 40
1
 10
327.299973
 20
200.199986
 30
0.0
 10
327.299973
 20
200.756941
 30
0.0
 10
327.078724
 20
201.291084
 30
0.0
 10
326.684898
 20
201.684910
 30
0.0
  0
SPLINE
  5
2a7
100
AcDbEntity
  8
Decoupe_Ver._4
 62
1
100
AcDbSpline
 70
8
 71
3
 72
8
 73
4
 74
0
 40
0
 40
0
 40
0
 40
0
 40
1
 40
1
 40
1
 40
1
 10
326.684898
 20
201.684910
 30
0.0
 10
326.291071
 20
202.078737
 30
0.0
 10
325.756928
 20
202.299986
 30
0.0
 10
325.199974
 20
202.299986
 30
0.0
  0
LINE
  5
2a8
100
AcDbEntity
  8
Decoupe_Ver._4
 62
1
100
AcDbLine
 10
325.199974
 20
202.299986
 30
0.0
 11
325.199974
 21
202.299986
 31
0.0
  0
SPLINE
  5
2a9
100
AcDbEntity
  8
Decoupe_Ver._4
 62
1
100
AcDbSpline
 70
8
 71
3
 72
8
 73
4
 74
0
 40
0
 40
0
 40
0
 40
0
 40
1
 40
1
 40
1
 40
1
 10
350.199973
 20
202.299986
 30
0.0
 10
349.350602
 20
202.299986
 30
0.0
 10
348.584866
 20
201.788337
 30
0.0
 10
348.259826
 20
201.003621
 30
0.0
  0
SPLINE
  5
2aa
100
AcDbEntity
  8
Decoupe_Ver._4
 62
1
100
AcDbSpline
 70
8
 71
3
 72
8
 73
4
 74
0
 40
0
 40
0
 40
0
 40
0
 40
1
 40
1
 40
1
 40
1
 10
348.259826
 20
201.003621
 30
0.0
 10
347.934786
 20
200.218905
 30
0.0
 10
348.114453
 20
199.315658
 30
0.0
 10
348.715049
 20
198.715062
 30
0.0
  0
SPLINE
  5
2ab
100
AcDbEntity
  8
Decoupe_Ver._4
 62
1
100
AcDbSpline
 70
8
 71
3
 72
8
 73
4
 74
0
 40
0
 40
0
 40
0
 40
0
 40
1
 40
1
 40
1
 40
1
 10
348.715049
 20
198.715062
 30
0.0
 10
349.315645
 20
198.114466
 30
0.0
 10
350.218892
 20
197.934799
 30
0.0
 10
351.003608
 20
198.259839
 30
0.0
  0
SPLINE
  5
2ac
100
AcDbEntity
  8
Decoupe_Ver._4
 62
1
100
AcDbSpline
 70
8
 71
3
 72
8
 73
4
 74
0
 40
0
 40
0
 40
0
 40
0
 40
1
 40
1
 40
1
 40
1
 10
351.003608
 20
198.259839
 30
0.0
 10
351.788324
 20
198.584879
 30
0.0
 10
352.299973
 20
199.350615
 30
0.0
 10
352.299973
 20
200.199986
 30
0.0
  0
SPLINE
  5
2ad
100
AcDbEntity
  8
Decoupe_Ver._4
 62
1
100
AcDbSpline
 70
8
 71
3
 72
8
 73
4
 74
0
 40
0
 40
0
 40
0
 40
0
 40
1
 40
1
 40
1
 40
1
 10
352.299973
 20
200.199986
 30
0.0
 10
352.299973
 20
200.756941
 30
0.0
 10
352.078724
 20
201.291084
 30
0.0
 10
351.684897
 20
201.684910
 30
0.0
  0
SPLINE
  5
2ae
100
AcDbEntity
  8
Decoupe_Ver._4
 62
1
100
AcDbSpline
 70
8
 71
3
 72
8
 73
4
 74
0
 40
0
 40
0
 40
0
 40
0
 40
1
 40
1
 40
1
 40
1
 10
351.684897
 20
201.684910
 30
0.0
 10
351.291071
 20
202.078737
 30
0.0
 10
350.756928
 20
202.299986
 30
0.0
 10
350.199973
 20
202.299986
 30
0.0
  0
LINE
  5
2af
100
AcDbEntity
  8
Decoupe_Ver._4
 62
1
100
AcDbLine
 10
350.199973
 20
202.299986
 30
0.0
 11
350.199973
 21
202.299986
 31
0.0
  0
SPLINE
  5
2b0
100
AcDbEntity
  8
Decoupe_Ver._4
 62
1
100
AcDbSpline
 70
8
 71
3
 72
8
 73
4
 74
0
 40
0
 40
0
 40
0
 40
0
 40
1
 40
1
 40
1
 40
1
 10
375.200013
 20
202.299986
 30
0.0
 10
374.350642
 20
202.299986
 30
0.0
 10
373.584906
 20
201.788337
 30
0.0
 10
373.259866
 20
201.003621
 30
0.0
  0
SPLINE
  5
2b1
100
AcDbEntity
  8
Decoupe_Ver._4
 62
1
100
AcDbSpline
 70
8
 71
3
 72
8
 73
4
 74
0
 40
0
 40
0
 40
0
 40
0
 40
1
 40
1
 40
1
 40
1
 10
373.259866
 20
201.003621
 30
0.0
 10
372.934826
 20
200.218905
 30
0.0
 10
373.114493
 20
199.315658
 30
0.0
 10
373.715088
 20
198.715062
 30
0.0
  0
SPLINE
  5
2b2
100
AcDbEntity
  8
Decoupe_Ver._4
 62
1
100
AcDbSpline
 70
8
 71
3
 72
8
 73
4
 74
0
 40
0
 40
0
 40
0
 40
0
 40
1
 40
1
 40
1
 40
1
 10
373.715088
 20
198.715062
 30
0.0
 10
374.315684
 20
198.114466
 30
0.0
 10
375.218931
 20
197.934799
 30
0.0
 10
376.003648
 20
198.259839
 30
0.0
  0
SPLINE
  5
2b3
100
AcDbEntity
  8
Decoupe_Ver._4
 62
1
100
AcDbSpline
 70
8
 71
3
 72
8
 73
4
 74
0
 40
0
 40
0
 40
0
 40
0
 40
1
 40
1
 40
1
 40
1
 10
376.003648
 20
198.259839
 30
0.0
 10
376.788364
 20
198.584879
 30
0.0
 10
377.300012
 20
199.350615
 30
0.0
 10
377.300012
 20
200.199986
 30
0.0
  0
SPLINE
  5
2b4
100
AcDbEntity
  8
Decoupe_Ver._4
 62
1
100
AcDbSpline
 70
8
 71
3
 72
8
 73
4
 74
0
 40
0
 40
0
 40
0
 40
0
 40
1
 40
1
 40
1
 40
1
 10
377.300012
 20
200.199986
 30
0.0
 10
377.300012
 20
200.756941
 30
0.0
 10
377.078763
 20
201.291084
 30
0.0
 10
376.684937
 20
201.684910
 30
0.0
  0
SPLINE
  5
2b5
100
AcDbEntity
  8
Decoupe_Ver._4
 62
1
100
AcDbSpline
 70
8
 71
3
 72
8
 73
4
 74
0
 40
0
 40
0
 40
0
 40
0
 40
1
 40
1
 40
1
 40
1
 10
376.684937
 20
201.684910
 30
0.0
 10
376.291110
 20
202.078737
 30
0.0
 10
375.756967
 20
202.299986
 30
0.0
 10
375.200013
 20
202.299986
 30
0.0
  0
LINE
  5
2b6
100
AcDbEntity
  8
Decoupe_Ver._4
 62
1
100
AcDbLine
 10
375.200013
 20
202.299986
 30
0.0
 11
375.200013
 21
202.299986
 31
0.0
  0
SPLINE
  5
2b7
100
AcDbEntity
  8
Decoupe_Ver._4
 62
1
100
AcDbSpline
 70
8
 71
3
 72
8
 73
4
 74
0
 40
0
 40
0
 40
0
 40
0
 40
1
 40
1
 40
1
 40
1
 10
400.200012
 20
302.299984
 30
0.0
 10
399.350641
 20
302.299984
 30
0.0
 10
398.584905
 20
301.788335
 30
0.0
 10
398.259865
 20
301.003619
 30
0.0
  0
SPLINE
  5
2b8
100
AcDbEntity
  8
Decoupe_Ver._4
 62
1
100
AcDbSpline
 70
8
 71
3
 72
8
 73
4
 74
0
 40
0
 40
0
 40
0
 40
0
 40
1
 40
1
 40
1
 40
1
 10
398.259865
 20
301.003619
 30
0.0
 10
397.934825
 20
300.218903
 30
0.0
 10
398.114492
 20
299.315656
 30
0.0
 10
398.715088
 20
298.715060
 30
0.0
  0
SPLINE
  5
2b9
100
AcDbEntity
  8
Decoupe_Ver._4
 62
1
100
AcDbSpline
 70
8
 71
3
 72
8
 73
4
 74
0
 40
0
 40
0
 40
0
 40
0
 40
1
 40
1
 40
1
 40
1
 10
398.715088
 20
298.715060
 30
0.0
 10
399.315684
 20
298.114464
 30
0.0
 10
400.218931
 20
297.934797
 30
0.0
 10
401.003647
 20
298.259837
 30
0.0
  0
SPLINE
  5
2ba
100
AcDbEntity
  8
Decoupe_Ver._4
 62
1
100
AcDbSpline
 70
8
 71
3
 72
8
 73
4
 74
0
 40
0
 40
0
 40
0
 40
0
 40
1
 40
1
 40
1
 40
1
 10
401.003647
 20
298.259837
 30
0.0
 10
401.788363
 20
298.584877
 30
0.0
 10
402.300012
 20
299.350613
 30
0.0
 10
402.300012
 20
300.199984
 30
0.0
  0
SPLINE
  5
2bb
100
AcDbEntity
  8
Decoupe_Ver._4
 62
1
100
AcDbSpline
 70
8
 71
3
 72
8
 73
4
 74
0
 40
0
 40
0
 40
0
 40
0
 40
1
 40
1
 40
1
 40
1
 10
402.300012
 20
300.199984
 30
0.0
 10
402.300012
 20
300.756939
 30
0.0
 10
402.078763
 20
301.291082
 30
0.0
 10
401.684936
 20
301.684908
 30
0.0
  0
SPLINE
  5
2bc
100
AcDbEntity
  8
Decoupe_Ver._4
 62
1
100
AcDbSpline
 70
8
 71
3
 72
8
 73
4
 74
0
 40
0
 40
0
 40
0
 40
0
 40
1
 40
1
 40
1
 40
1
 10
401.684936
 20
301.684908
 30
0.0
 10
401.291110
 20
302.078735
 30
0.0
 10
400.756967
 20
302.299984
 30
0.0
 10
400.200012
 20
302.299984
 30
0.0
  0
LINE
  5
2bd
100
AcDbEntity
  8
Decoupe_Ver._4
 62
1
100
AcDbLine
 10
400.200012
 20
302.299984
 30
0.0
 11
400.200012
 21
302.299984
 31
0.0
  0
SPLINE
  5
2be
100
AcDbEntity
  8
Decoupe_Ver._4
 62
1
100
AcDbSpline
 70
8
 71
3
 72
8
 73
4
 74
0
 40
0
 40
0
 40
0
 40
0
 40
1
 40
1
 40
1
 40
1
 10
400.200012
 20
277.299984
 30
0.0
 10
399.350641
 20
277.299984
 30
0.0
 10
398.584905
 20
276.788336
 30
0.0
 10
398.259865
 20
276.003620
 30
0.0
  0
SPLINE
  5
2bf
100
AcDbEntity
  8
Decoupe_Ver._4
 62
1
100
AcDbSpline
 70
8
 71
3
 72
8
 73
4
 74
0
 40
0
 40
0
 40
0
 40
0
 40
1
 40
1
 40
1
 40
1
 10
398.259865
 20
276.003620
 30
0.0
 10
397.934825
 20
275.218903
 30
0.0
 10
398.114492
 20
274.315656
 30
0.0
 10
398.715088
 20
273.715060
 30
0.0
  0
SPLINE
  5
2c0
100
AcDbEntity
  8
Decoupe_Ver._4
 62
1
100
AcDbSpline
 70
8
 71
3
 72
8
 73
4
 74
0
 40
0
 40
0
 40
0
 40
0
 40
1
 40
1
 40
1
 40
1
 10
398.715088
 20
273.715060
 30
0.0
 10
399.315684
 20
273.114465
 30
0.0
 10
400.218931
 20
272.934798
 30
0.0
 10
401.003647
 20
273.259838
 30
0.0
  0
SPLINE
  5
2c1
100
AcDbEntity
  8
Decoupe_Ver._4
 62
1
100
AcDbSpline
 70
8
 71
3
 72
8
 73
4
 74
0
 40
0
 40
0
 40
0
 40
0
 40
1
 40
1
 40
1
 40
1
 10
401.003647
 20
273.259838
 30
0.0
 10
401.788363
 20
273.584878
 30
0.0
 10
402.300012
 20
274.350614
 30
0.0
 10
402.300012
 20
275.199985
 30
0.0
  0
SPLINE
  5
2c2
100
AcDbEntity
  8
Decoupe_Ver._4
 62
1
100
AcDbSpline
 70
8
 71
3
 72
8
 73
4
 74
0
 40
0
 40
0
 40
0
 40
0
 40
1
 40
1
 40
1
 40
1
 10
402.300012
 20
275.199985
 30
0.0
 10
402.300012
 20
275.756939
 30
0.0
 10
402.078763
 20
276.291082
 30
0.0
 10
401.684936
 20
276.684909
 30
0.0
  0
SPLINE
  5
2c3
100
AcDbEntity
  8
Decoupe_Ver._4
 62
1
100
AcDbSpline
 70
8
 71
3
 72
8
 73
4
 74
0
 40
0
 40
0
 40
0
 40
0
 40
1
 40
1
 40
1
 40
1
 10
401.684936
 20
276.684909
 30
0.0
 10
401.291110
 20
277.078735
 30
0.0
 10
400.756967
 20
277.299984
 30
0.0
 10
400.200012
 20
277.299984
 30
0.0
  0
LINE
  5
2c4
100
AcDbEntity
  8
Decoupe_Ver._4
 62
1
100
AcDbLine
 10
400.200012
 20
277.299984
 30
0.0
 11
400.200012
 21
277.299984
 31
0.0
  0
SPLINE
  5
2c5
100
AcDbEntity
  8
Decoupe_Ver._4
 62
1
100
AcDbSpline
 70
8
 71
3
 72
8
 73
4
 74
0
 40
0
 40
0
 40
0
 40
0
 40
1
 40
1
 40
1
 40
1
 10
400.200012
 20
252.299985
 30
0.0
 10
399.350641
 20
252.299985
 30
0.0
 10
398.584905
 20
251.788336
 30
0.0
 10
398.259865
 20
251.003620
 30
0.0
  0
SPLINE
  5
2c6
100
AcDbEntity
  8
Decoupe_Ver._4
 62
1
100
AcDbSpline
 70
8
 71
3
 72
8
 73
4
 74
0
 40
0
 40
0
 40
0
 40
0
 40
1
 40
1
 40
1
 40
1
 10
398.259865
 20
251.003620
 30
0.0
 10
397.934825
 20
250.218904
 30
0.0
 10
398.114492
 20
249.315657
 30
0.0
 10
398.715088
 20
248.715061
 30
0.0
  0
SPLINE
  5
2c7
100
AcDbEntity
  8
Decoupe_Ver._4
 62
1
100
AcDbSpline
 70
8
 71
3
 72
8
 73
4
 74
0
 40
0
 40
0
 40
0
 40
0
 40
1
 40
1
 40
1
 40
1
 10
398.715088
 20
248.715061
 30
0.0
 10
399.315684
 20
248.114465
 30
0.0
 10
400.218931
 20
247.934798
 30
0.0
 10
401.003647
 20
248.259838
 30
0.0
  0
SPLINE
  5
2c8
100
AcDbEntity
  8
Decoupe_Ver._4
 62
1
100
AcDbSpline
 70
8
 71
3
 72
8
 73
4
 74
0
 40
0
 40
0
 40
0
 40
0
 40
1
 40
1
 40
1
 40
1
 10
401.003647
 20
248.259838
 30
0.0
 10
401.788363
 20
248.584878
 30
0.0
 10
402.300012
 20
249.350614
 30
0.0
 10
402.300012
 20
250.199985
 30
0.0
  0
SPLINE
  5
2c9
100
AcDbEntity
  8
Decoupe_Ver._4
 62
1
100
AcDbSpline
 70
8
 71
3
 72
8
 73
4
 74
0
 40
0
 40
0
 40
0
 40
0
 40
1
 40
1
 40
1
 40
1
 10
402.300012
 20
250.199985
 30
0.0
 10
402.300012
 20
250.756940
 30
0.0
 10
402.078763
 20
251.291083
 30
0.0
 10
401.684936
 20
251.684909
 30
0.0
  0
SPLINE
  5
2ca
100
AcDbEntity
  8
Decoupe_Ver._4
 62
1
100
AcDbSpline
 70
8
 71
3
 72
8
 73
4
 74
0
 40
0
 40
0
 40
0
 40
0
 40
1
 40
1
 40
1
 40
1
 10
401.684936
 20
251.684909
 30
0.0
 10
401.291110
 20
252.078736
 30
0.0
 10
400.756967
 20
252.299985
 30
0.0
 10
400.200012
 20
252.299985
 30
0.0
  0
LINE
  5
2cb
100
AcDbEntity
  8
Decoupe_Ver._4
 62
1
100
AcDbLine
 10
400.200012
 20
252.299985
 30
0.0
 11
400.200012
 21
252.299985
 31
0.0
  0
SPLINE
  5
2cc
100
AcDbEntity
  8
Decoupe_Ver._4
 62
1
100
AcDbSpline
 70
8
 71
3
 72
8
 73
4
 74
0
 40
0
 40
0
 40
0
 40
0
 40
1
 40
1
 40
1
 40
1
 10
400.200012
 20
227.299985
 30
0.0
 10
399.350641
 20
227.299985
 30
0.0
 10
398.584905
 20
226.788337
 30
0.0
 10
398.259865
 20
226.003621
 30
0.0
  0
SPLINE
  5
2cd
100
AcDbEntity
  8
Decoupe_Ver._4
 62
1
100
AcDbSpline
 70
8
 71
3
 72
8
 73
4
 74
0
 40
0
 40
0
 40
0
 40
0
 40
1
 40
1
 40
1
 40
1
 10
398.259865
 20
226.003621
 30
0.0
 10
397.934825
 20
225.218904
 30
0.0
 10
398.114492
 20
224.315657
 30
0.0
 10
398.715088
 20
223.715061
 30
0.0
  0
SPLINE
  5
2ce
100
AcDbEntity
  8
Decoupe_Ver._4
 62
1
100
AcDbSpline
 70
8
 71
3
 72
8
 73
4
 74
0
 40
0
 40
0
 40
0
 40
0
 40
1
 40
1
 40
1
 40
1
 10
398.715088
 20
223.715061
 30
0.0
 10
399.315684
 20
223.114466
 30
0.0
 10
400.218931
 20
222.934799
 30
0.0
 10
401.003647
 20
223.259839
 30
0.0
  0
SPLINE
  5
2cf
100
AcDbEntity
  8
Decoupe_Ver._4
 62
1
100
AcDbSpline
 70
8
 71
3
 72
8
 73
4
 74
0
 40
0
 40
0
 40
0
 40
0
 40
1
 40
1
 40
1
 40
1
 10
401.003647
 20
223.259839
 30
0.0
 10
401.788363
 20
223.584879
 30
0.0
 10
402.300012
 20
224.350615
 30
0.0
 10
402.300012
 20
225.199985
 30
0.0
  0
SPLINE
  5
2d0
100
AcDbEntity
  8
Decoupe_Ver._4
 62
1
100
AcDbSpline
 70
8
 71
3
 72
8
 73
4
 74
0
 40
0
 40
0
 40
0
 40
0
 40
1
 40
1
 40
1
 40
1
 10
402.300012
 20
225.199985
 30
0.0
 10
402.300012
 20
225.756940
 30
0.0
 10
402.078763
 20
226.291083
 30
0.0
 10
401.684936
 20
226.684910
 30
0.0
  0
SPLINE
  5
2d1
100
AcDbEntity
  8
Decoupe_Ver._4
 62
1
100
AcDbSpline
 70
8
 71
3
 72
8
 73
4
 74
0
 40
0
 40
0
 40
0
 40
0
 40
1
 40
1
 40
1
 40
1
 10
401.684936
 20
226.684910
 30
0.0
 10
401.291110
 20
227.078736
 30
0.0
 10
400.756967
 20
227.299985
 30
0.0
 10
400.200012
 20
227.299985
 30
0.0
  0
LINE
  5
2d2
100
AcDbEntity
  8
Decoupe_Ver._4
 62
1
100
AcDbLine
 10
400.200012
 20
227.299985
 30
0.0
 11
400.200012
 21
227.299985
 31
0.0
  0
SPLINE
  5
2d3
100
AcDbEntity
  8
Decoupe_Ver._4
 62
1
100
AcDbSpline
 70
8
 71
3
 72
8
 73
4
 74
0
 40
0
 40
0
 40
0
 40
0
 40
1
 40
1
 40
1
 40
1
 10
400.200012
 20
202.299986
 30
0.0
 10
399.350641
 20
202.299986
 30
0.0
 10
398.584905
 20
201.788337
 30
0.0
 10
398.259865
 20
201.003621
 30
0.0
  0
SPLINE
  5
2d4
100
AcDbEntity
  8
Decoupe_Ver._4
 62
1
100
AcDbSpline
 70
8
 71
3
 72
8
 73
4
 74
0
 40
0
 40
0
 40
0
 40
0
 40
1
 40
1
 40
1
 40
1
 10
398.259865
 20
201.003621
 30
0.0
 10
397.934825
 20
200.218905
 30
0.0
 10
398.114492
 20
199.315658
 30
0.0
 10
398.715088
 20
198.715062
 30
0.0
  0
SPLINE
  5
2d5
100
AcDbEntity
  8
Decoupe_Ver._4
 62
1
100
AcDbSpline
 70
8
 71
3
 72
8
 73
4
 74
0
 40
0
 40
0
 40
0
 40
0
 40
1
 40
1
 40
1
 40
1
 10
398.715088
 20
198.715062
 30
0.0
 10
399.315684
 20
198.114466
 30
0.0
 10
400.218931
 20
197.934799
 30
0.0
 10
401.003647
 20
198.259839
 30
0.0
  0
SPLINE
  5
2d6
100
AcDbEntity
  8
Decoupe_Ver._4
 62
1
100
AcDbSpline
 70
8
 71
3
 72
8
 73
4
 74
0
 40
0
 40
0
 40
0
 40
0
 40
1
 40
1
 40
1
 40
1
 10
401.003647
 20
198.259839
 30
0.0
 10
401.788363
 20
198.584879
 30
0.0
 10
402.300012
 20
199.350615
 30
0.0
 10
402.300012
 20
200.199986
 30
0.0
  0
SPLINE
  5
2d7
100
AcDbEntity
  8
Decoupe_Ver._4
 62
1
100
AcDbSpline
 70
8
 71
3
 72
8
 73
4
 74
0
 40
0
 40
0
 40
0
 40
0
 40
1
 40
1
 40
1
 40
1
 10
402.300012
 20
200.199986
 30
0.0
 10
402.300012
 20
200.756941
 30
0.0
 10
402.078763
 20
201.291084
 30
0.0
 10
401.684936
 20
201.684910
 30
0.0
  0
SPLINE
  5
2d8
100
AcDbEntity
  8
Decoupe_Ver._4
 62
1
100
AcDbSpline
 70
8
 71
3
 72
8
 73
4
 74
0
 40
0
 40
0
 40
0
 40
0
 40
1
 40
1
 40
1
 40
1
 10
401.684936
 20
201.684910
 30
0.0
 10
401.291110
 20
202.078737
 30
0.0
 10
400.756967
 20
202.299986
 30
0.0
 10
400.200012
 20
202.299986
 30
0.0
  0
LINE
  5
2d9
100
AcDbEntity
  8
Decoupe_Ver._4
 62
1
100
AcDbLine
 10
400.200012
 20
202.299986
 30
0.0
 11
400.200012
 21
202.299986
 31
0.0
  0
SPLINE
  5
2da
100
AcDbEntity
  8
Decoupe_Ver._4
 62
1
100
AcDbSpline
 70
8
 71
3
 72
8
 73
4
 74
0
 40
0
 40
0
 40
0
 40
0
 40
1
 40
1
 40
1
 40
1
 10
225.199999
 20
177.299986
 30
0.0
 10
224.350629
 20
177.299986
 30
0.0
 10
223.584893
 20
176.788338
 30
0.0
 10
223.259853
 20
176.003622
 30
0.0
  0
SPLINE
  5
2db
100
AcDbEntity
  8
Decoupe_Ver._4
 62
1
100
AcDbSpline
 70
8
 71
3
 72
8
 73
4
 74
0
 40
0
 40
0
 40
0
 40
0
 40
1
 40
1
 40
1
 40
1
 10
223.259853
 20
176.003622
 30
0.0
 10
222.934813
 20
175.218905
 30
0.0
 10
223.114480
 20
174.315658
 30
0.0
 10
223.715075
 20
173.715062
 30
0.0
  0
SPLINE
  5
2dc
100
AcDbEntity
  8
Decoupe_Ver._4
 62
1
100
AcDbSpline
 70
8
 71
3
 72
8
 73
4
 74
0
 40
0
 40
0
 40
0
 40
0
 40
1
 40
1
 40
1
 40
1
 10
223.715075
 20
173.715062
 30
0.0
 10
224.315671
 20
173.114467
 30
0.0
 10
225.218918
 20
172.934800
 30
0.0
 10
226.003635
 20
173.259840
 30
0.0
  0
SPLINE
  5
2dd
100
AcDbEntity
  8
Decoupe_Ver._4
 62
1
100
AcDbSpline
 70
8
 71
3
 72
8
 73
4
 74
0
 40
0
 40
0
 40
0
 40
0
 40
1
 40
1
 40
1
 40
1
 10
226.003635
 20
173.259840
 30
0.0
 10
226.788351
 20
173.584880
 30
0.0
 10
227.299999
 20
174.350616
 30
0.0
 10
227.299999
 20
175.199986
 30
0.0
  0
SPLINE
  5
2de
100
AcDbEntity
  8
Decoupe_Ver._4
 62
1
100
AcDbSpline
 70
8
 71
3
 72
8
 73
4
 74
0
 40
0
 40
0
 40
0
 40
0
 40
1
 40
1
 40
1
 40
1
 10
227.299999
 20
175.199986
 30
0.0
 10
227.299999
 20
175.756941
 30
0.0
 10
227.078750
 20
176.291084
 30
0.0
 10
226.684924
 20
176.684911
 30
0.0
  0
SPLINE
  5
2df
100
AcDbEntity
  8
Decoupe_Ver._4
 62
1
100
AcDbSpline
 70
8
 71
3
 72
8
 73
4
 74
0
 40
0
 40
0
 40
0
 40
0
 40
1
 40
1
 40
1
 40
1
 10
226.684924
 20
176.684911
 30
0.0
 10
226.291097
 20
177.078737
 30
0.0
 10
225.756954
 20
177.299986
 30
0.0
 10
225.199999
 20
177.299986
 30
0.0
  0
LINE
  5
2e0
100
AcDbEntity
  8
Decoupe_Ver._4
 62
1
100
AcDbLine
 10
225.199999
 20
177.299986
 30
0.0
 11
225.199999
 21
177.299986
 31
0.0
  0
SPLINE
  5
2e1
100
AcDbEntity
  8
Decoupe_Ver._4
 62
1
100
AcDbSpline
 70
8
 71
3
 72
8
 73
4
 74
0
 40
0
 40
0
 40
0
 40
0
 40
1
 40
1
 40
1
 40
1
 10
250.199995
 20
177.299986
 30
0.0
 10
249.350624
 20
177.299986
 30
0.0
 10
248.584888
 20
176.788338
 30
0.0
 10
248.259848
 20
176.003622
 30
0.0
  0
SPLINE
  5
2e2
100
AcDbEntity
  8
Decoupe_Ver._4
 62
1
100
AcDbSpline
 70
8
 71
3
 72
8
 73
4
 74
0
 40
0
 40
0
 40
0
 40
0
 40
1
 40
1
 40
1
 40
1
 10
248.259848
 20
176.003622
 30
0.0
 10
247.934808
 20
175.218905
 30
0.0
 10
248.114475
 20
174.315658
 30
0.0
 10
248.715071
 20
173.715062
 30
0.0
  0
SPLINE
  5
2e3
100
AcDbEntity
  8
Decoupe_Ver._4
 62
1
100
AcDbSpline
 70
8
 71
3
 72
8
 73
4
 74
0
 40
0
 40
0
 40
0
 40
0
 40
1
 40
1
 40
1
 40
1
 10
248.715071
 20
173.715062
 30
0.0
 10
249.315667
 20
173.114467
 30
0.0
 10
250.218914
 20
172.934800
 30
0.0
 10
251.003630
 20
173.259840
 30
0.0
  0
SPLINE
  5
2e4
100
AcDbEntity
  8
Decoupe_Ver._4
 62
1
100
AcDbSpline
 70
8
 71
3
 72
8
 73
4
 74
0
 40
0
 40
0
 40
0
 40
0
 40
1
 40
1
 40
1
 40
1
 10
251.003630
 20
173.259840
 30
0.0
 10
251.788346
 20
173.584880
 30
0.0
 10
252.299995
 20
174.350616
 30
0.0
 10
252.299995
 20
175.199986
 30
0.0
  0
SPLINE
  5
2e5
100
AcDbEntity
  8
Decoupe_Ver._4
 62
1
100
AcDbSpline
 70
8
 71
3
 72
8
 73
4
 74
0
 40
0
 40
0
 40
0
 40
0
 40
1
 40
1
 40
1
 40
1
 10
252.299995
 20
175.199986
 30
0.0
 10
252.299995
 20
175.756941
 30
0.0
 10
252.078746
 20
176.291084
 30
0.0
 10
251.684919
 20
176.684911
 30
0.0
  0
SPLINE
  5
2e6
100
AcDbEntity
  8
Decoupe_Ver._4
 62
1
100
AcDbSpline
 70
8
 71
3
 72
8
 73
4
 74
0
 40
0
 40
0
 40
0
 40
0
 40
1
 40
1
 40
1
 40
1
 10
251.684919
 20
176.684911
 30
0.0
 10
251.291093
 20
177.078737
 30
0.0
 10
250.756950
 20
177.299986
 30
0.0
 10
250.199995
 20
177.299986
 30
0.0
  0
LINE
  5
2e7
100
AcDbEntity
  8
Decoupe_Ver._4
 62
1
100
AcDbLine
 10
250.199995
 20
177.299986
 30
0.0
 11
250.199995
 21
177.299986
 31
0.0
  0
SPLINE
  5
2e8
100
AcDbEntity
  8
Decoupe_Ver._4
 62
1
100
AcDbSpline
 70
8
 71
3
 72
8
 73
4
 74
0
 40
0
 40
0
 40
0
 40
0
 40
1
 40
1
 40
1
 40
1
 10
275.199995
 20
177.299986
 30
0.0
 10
274.350624
 20
177.299986
 30
0.0
 10
273.584888
 20
176.788338
 30
0.0
 10
273.259848
 20
176.003622
 30
0.0
  0
SPLINE
  5
2e9
100
AcDbEntity
  8
Decoupe_Ver._4
 62
1
100
AcDbSpline
 70
8
 71
3
 72
8
 73
4
 74
0
 40
0
 40
0
 40
0
 40
0
 40
1
 40
1
 40
1
 40
1
 10
273.259848
 20
176.003622
 30
0.0
 10
272.934808
 20
175.218905
 30
0.0
 10
273.114475
 20
174.315658
 30
0.0
 10
273.715070
 20
173.715062
 30
0.0
  0
SPLINE
  5
2ea
100
AcDbEntity
  8
Decoupe_Ver._4
 62
1
100
AcDbSpline
 70
8
 71
3
 72
8
 73
4
 74
0
 40
0
 40
0
 40
0
 40
0
 40
1
 40
1
 40
1
 40
1
 10
273.715070
 20
173.715062
 30
0.0
 10
274.315666
 20
173.114467
 30
0.0
 10
275.218913
 20
172.934800
 30
0.0
 10
276.003630
 20
173.259840
 30
0.0
  0
SPLINE
  5
2eb
100
AcDbEntity
  8
Decoupe_Ver._4
 62
1
100
AcDbSpline
 70
8
 71
3
 72
8
 73
4
 74
0
 40
0
 40
0
 40
0
 40
0
 40
1
 40
1
 40
1
 40
1
 10
276.003630
 20
173.259840
 30
0.0
 10
276.788346
 20
173.584880
 30
0.0
 10
277.299994
 20
174.350616
 30
0.0
 10
277.299994
 20
175.199986
 30
0.0
  0
SPLINE
  5
2ec
100
AcDbEntity
  8
Decoupe_Ver._4
 62
1
100
AcDbSpline
 70
8
 71
3
 72
8
 73
4
 74
0
 40
0
 40
0
 40
0
 40
0
 40
1
 40
1
 40
1
 40
1
 10
277.299994
 20
175.199986
 30
0.0
 10
277.299994
 20
175.756941
 30
0.0
 10
277.078745
 20
176.291084
 30
0.0
 10
276.684919
 20
176.684911
 30
0.0
  0
SPLINE
  5
2ed
100
AcDbEntity
  8
Decoupe_Ver._4
 62
1
100
AcDbSpline
 70
8
 71
3
 72
8
 73
4
 74
0
 40
0
 40
0
 40
0
 40
0
 40
1
 40
1
 40
1
 40
1
 10
276.684919
 20
176.684911
 30
0.0
 10
276.291092
 20
177.078737
 30
0.0
 10
275.756949
 20
177.299986
 30
0.0
 10
275.199995
 20
177.299986
 30
0.0
  0
LINE
  5
2ee
100
AcDbEntity
  8
Decoupe_Ver._4
 62
1
100
AcDbLine
 10
275.199995
 20
177.299986
 30
0.0
 11
275.199995
 21
177.299986
 31
0.0
  0
SPLINE
  5
2ef
100
AcDbEntity
  8
Decoupe_Ver._4
 62
1
100
AcDbSpline
 70
8
 71
3
 72
8
 73
4
 74
0
 40
0
 40
0
 40
0
 40
0
 40
1
 40
1
 40
1
 40
1
 10
300.199994
 20
177.299986
 30
0.0
 10
299.350623
 20
177.299986
 30
0.0
 10
298.584887
 20
176.788338
 30
0.0
 10
298.259847
 20
176.003622
 30
0.0
  0
SPLINE
  5
2f0
100
AcDbEntity
  8
Decoupe_Ver._4
 62
1
100
AcDbSpline
 70
8
 71
3
 72
8
 73
4
 74
0
 40
0
 40
0
 40
0
 40
0
 40
1
 40
1
 40
1
 40
1
 10
298.259847
 20
176.003622
 30
0.0
 10
297.934807
 20
175.218905
 30
0.0
 10
298.114474
 20
174.315658
 30
0.0
 10
298.715070
 20
173.715062
 30
0.0
  0
SPLINE
  5
2f1
100
AcDbEntity
  8
Decoupe_Ver._4
 62
1
100
AcDbSpline
 70
8
 71
3
 72
8
 73
4
 74
0
 40
0
 40
0
 40
0
 40
0
 40
1
 40
1
 40
1
 40
1
 10
298.715070
 20
173.715062
 30
0.0
 10
299.315666
 20
173.114467
 30
0.0
 10
300.218913
 20
172.934800
 30
0.0
 10
301.003629
 20
173.259840
 30
0.0
  0
SPLINE
  5
2f2
100
AcDbEntity
  8
Decoupe_Ver._4
 62
1
100
AcDbSpline
 70
8
 71
3
 72
8
 73
4
 74
0
 40
0
 40
0
 40
0
 40
0
 40
1
 40
1
 40
1
 40
1
 10
301.003629
 20
173.259840
 30
0.0
 10
301.788345
 20
173.584880
 30
0.0
 10
302.299994
 20
174.350616
 30
0.0
 10
302.299994
 20
175.199986
 30
0.0
  0
SPLINE
  5
2f3
100
AcDbEntity
  8
Decoupe_Ver._4
 62
1
100
AcDbSpline
 70
8
 71
3
 72
8
 73
4
 74
0
 40
0
 40
0
 40
0
 40
0
 40
1
 40
1
 40
1
 40
1
 10
302.299994
 20
175.199986
 30
0.0
 10
302.299994
 20
175.756941
 30
0.0
 10
302.078745
 20
176.291084
 30
0.0
 10
301.684918
 20
176.684911
 30
0.0
  0
SPLINE
  5
2f4
100
AcDbEntity
  8
Decoupe_Ver._4
 62
1
100
AcDbSpline
 70
8
 71
3
 72
8
 73
4
 74
0
 40
0
 40
0
 40
0
 40
0
 40
1
 40
1
 40
1
 40
1
 10
301.684918
 20
176.684911
 30
0.0
 10
301.291092
 20
177.078737
 30
0.0
 10
300.756949
 20
177.299986
 30
0.0
 10
300.199994
 20
177.299986
 30
0.0
  0
LINE
  5
2f5
100
AcDbEntity
  8
Decoupe_Ver._4
 62
1
100
AcDbLine
 10
300.199994
 20
177.299986
 30
0.0
 11
300.199994
 21
177.299986
 31
0.0
  0
SPLINE
  5
2f6
100
AcDbEntity
  8
Decoupe_Ver._4
 62
1
100
AcDbSpline
 70
8
 71
3
 72
8
 73
4
 74
0
 40
0
 40
0
 40
0
 40
0
 40
1
 40
1
 40
1
 40
1
 10
325.199974
 20
177.299986
 30
0.0
 10
324.350603
 20
177.299986
 30
0.0
 10
323.584867
 20
176.788338
 30
0.0
 10
323.259827
 20
176.003622
 30
0.0
  0
SPLINE
  5
2f7
100
AcDbEntity
  8
Decoupe_Ver._4
 62
1
100
AcDbSpline
 70
8
 71
3
 72
8
 73
4
 74
0
 40
0
 40
0
 40
0
 40
0
 40
1
 40
1
 40
1
 40
1
 10
323.259827
 20
176.003622
 30
0.0
 10
322.934787
 20
175.218905
 30
0.0
 10
323.114454
 20
174.315658
 30
0.0
 10
323.715049
 20
173.715062
 30
0.0
  0
SPLINE
  5
2f8
100
AcDbEntity
  8
Decoupe_Ver._4
 62
1
100
AcDbSpline
 70
8
 71
3
 72
8
 73
4
 74
0
 40
0
 40
0
 40
0
 40
0
 40
1
 40
1
 40
1
 40
1
 10
323.715049
 20
173.715062
 30
0.0
 10
324.315645
 20
173.114467
 30
0.0
 10
325.218892
 20
172.934800
 30
0.0
 10
326.003609
 20
173.259840
 30
0.0
  0
SPLINE
  5
2f9
100
AcDbEntity
  8
Decoupe_Ver._4
 62
1
100
AcDbSpline
 70
8
 71
3
 72
8
 73
4
 74
0
 40
0
 40
0
 40
0
 40
0
 40
1
 40
1
 40
1
 40
1
 10
326.003609
 20
173.259840
 30
0.0
 10
326.788325
 20
173.584880
 30
0.0
 10
327.299973
 20
174.350616
 30
0.0
 10
327.299973
 20
175.199986
 30
0.0
  0
SPLINE
  5
2fa
100
AcDbEntity
  8
Decoupe_Ver._4
 62
1
100
AcDbSpline
 70
8
 71
3
 72
8
 73
4
 74
0
 40
0
 40
0
 40
0
 40
0
 40
1
 40
1
 40
1
 40
1
 10
327.299973
 20
175.199986
 30
0.0
 10
327.299973
 20
175.756941
 30
0.0
 10
327.078724
 20
176.291084
 30
0.0
 10
326.684898
 20
176.684911
 30
0.0
  0
SPLINE
  5
2fb
100
AcDbEntity
  8
Decoupe_Ver._4
 62
1
100
AcDbSpline
 70
8
 71
3
 72
8
 73
4
 74
0
 40
0
 40
0
 40
0
 40
0
 40
1
 40
1
 40
1
 40
1
 10
326.684898
 20
176.684911
 30
0.0
 10
326.291071
 20
177.078737
 30
0.0
 10
325.756928
 20
177.299986
 30
0.0
 10
325.199974
 20
177.299986
 30
0.0
  0
LINE
  5
2fc
100
AcDbEntity
  8
Decoupe_Ver._4
 62
1
100
AcDbLine
 10
325.199974
 20
177.299986
 30
0.0
 11
325.199974
 21
177.299986
 31
0.0
  0
LINE
  5
2fd
100
AcDbEntity
  8
Decoupe_Ver._4
 62
5
100
AcDbLine
 10
130.199997
 20
337.699983
 30
0.0
 11
420.199992
 21
337.699983
 31
0.0
  0
LINE
  5
2fe
100
AcDbEntity
  8
Decoupe_Ver._4
 62
5
100
AcDbLine
 10
420.199992
 20
337.699983
 30
0.0
 11
420.199992
 21
162.699987
 31
0.0
  0
LINE
  5
2ff
100
AcDbEntity
  8
Decoupe_Ver._4
 62
5
100
AcDbLine
 10
420.199992
 20
162.699987
 30
0.0
 11
130.199997
 21
162.699987
 31
0.0
  0
LINE
  5
300
100
AcDbEntity
  8
Decoupe_Ver._4
 62
5
100
AcDbLine
 10
130.199997
 20
162.699987
 30
0.0
 11
130.199997
 21
337.699983
 31
0.0
  0
ENDSEC
  0
SECTION
  2
OBJECTS
  0
DICTIONARY
  5
C
330
0
100
AcDbDictionary
  3
ACAD_GROUP
350
D
  3
ACAD_MLINESTYLE
350
17
  0
DICTIONARY
  5
D
330
C
100
AcDbDictionary
  0
DICTIONARY
  5
1A
330
C
100
AcDbDictionary
  0
DICTIONARY
  5
17
330
C
100
AcDbDictionary
  3
STANDARD
350
18
  0
DICTIONARY
  5
19
330
C
100
AcDbDictionary
  0
ENDSEC
  0
EOF
